<svg width="34" height="31" viewBox="0 0 34 31" fill="none" xmlns="http://www.w3.org/2000/svg">
<path d="M29.1765 30.4938H4.82294C3.15157 30.4938 1.59905 29.6284 0.720423 28.2064C-0.158465 26.7846 -0.238387 25.0092 0.509199 23.514L12.686 2.66647C13.5031 1.03273 15.1729 0.000488281 16.9997 0.000488281C18.8265 0.000488281 20.4963 1.03273 21.3134 2.66647L33.4902 23.514C34.2378 25.0092 34.1579 26.7846 33.279 28.2064C32.4003 29.6284 30.8481 30.4938 29.1765 30.4938Z" fill="#4477B2"/>
<path d="M29.1793 30.4934H16.9997V9.33783e-05C18.8309 -0.0113241 20.5075 1.02507 21.3158 2.66841L33.4894 23.5152C34.238 25.0093 34.1591 26.7848 33.281 28.2065C32.4027 29.6285 30.8507 30.4939 29.1793 30.4934Z" fill="#285180"/>
<path d="M19.3455 25.2156C19.3455 26.5113 18.2951 27.5614 16.9997 27.5614C15.7043 27.5614 14.6542 26.5113 14.6542 25.2156C14.6542 23.9203 15.7043 22.8701 16.9997 22.8701C18.2951 22.8701 19.3455 23.9203 19.3455 25.2156Z" fill="#F0F0F0"/>
<path d="M19.3455 25.2156C19.3455 25.8379 19.0984 26.4345 18.6586 26.8745C18.2185 27.3144 17.6219 27.5614 16.9997 27.5614V22.8701C17.6219 22.8699 18.2185 23.1169 18.6586 23.557C19.0984 23.9968 19.3455 24.5936 19.3455 25.2156Z" fill="#D6E9F8"/>
<path d="M16.9997 4.69141C18.2951 4.69141 19.3455 5.74156 19.3455 7.03718V18.1788C19.3455 19.4742 18.2951 20.5244 16.9997 20.5244C15.7043 20.5244 14.6542 19.4742 14.6542 18.1788V7.03718C14.6542 5.74156 15.7043 4.69141 16.9997 4.69141Z" fill="#F0F0F0"/>
<path d="M19.3455 7.03718V18.1788C19.3455 18.8011 19.0984 19.3977 18.6586 19.8375C18.2185 20.2776 17.6219 20.5246 16.9997 20.5244V4.69141C17.6219 4.69063 18.2193 4.9374 18.6594 5.3775C19.0992 5.81759 19.3462 6.41467 19.3455 7.03718Z" fill="#D6E9F8"/>
</svg>
