<svg xmlns="http://www.w3.org/2000/svg" xmlns:xlink="http://www.w3.org/1999/xlink" viewBox="0 0 545.45 545.45"><defs><style>.cls-1{fill:none;}.cls-2{fill:url(#New_Gradient_Swatch_1);}.cls-3{fill:url(#New_Gradient_Swatch_1-2);}</style><linearGradient id="New_Gradient_Swatch_1" y1="352.27" x2="545.45" y2="352.27" gradientUnits="userSpaceOnUse"><stop offset="0" stop-color="#285180"/><stop offset="1" stop-color="#85b9f4"/></linearGradient><linearGradient id="New_Gradient_Swatch_1-2" x1="46.43" y1="482.95" x2="78.57" y2="482.95" gradientTransform="translate(359.81 97.26) rotate(45)" xlink:href="#New_Gradient_Swatch_1"/></defs><g id="Layer_2" data-name="Layer 2"><g id="Upscaped_Icons" data-name="Upscaped Icons"><rect class="cls-1" width="545.45" height="545.45"/><path class="cls-2" d="M536.49,522.73l-41-88.92,6.38-3.19-10.16-20.33-16.23,8.11a11.7,11.7,0,0,0-2.52,1.72l-47.15,42.44a35.74,35.74,0,0,0-9.8,14.71H391.78a62.23,62.23,0,0,0-14.06-34.09h20a11.37,11.37,0,0,0,11.36-11.36V352.27A34.13,34.13,0,0,0,375,318.18H340.91v-65.5l18.9-37.8-20.33-10.16-20.1,40.2a11.36,11.36,0,0,0-1.2,5.08v68.18H277.72l-46-136.36H250V159.09H123.34a34.24,34.24,0,0,0-34,31.52L82,288.35l-26.51,26.5a33.87,33.87,0,0,0-10,24.11v83.88A62.48,62.48,0,0,0,56.82,545.18v.27H329.55A62.59,62.59,0,0,0,389.66,500h26A35.62,35.62,0,0,0,441,523.75l85.46,21.37a11.7,11.7,0,0,0,2.76.33h16.23V522.73ZM368.91,477.27H290.18a39.77,39.77,0,0,1,78.73,0Zm-164.36,0V500h64.88a62.38,62.38,0,0,0,11.94,22.73H110.68a62.4,62.4,0,0,0,0-79.55H281.37a62.14,62.14,0,0,0-14.05,34.09Zm3.2-295.45,46,136.36H220.62l-24.11-24.1a33.87,33.87,0,0,0-24.11-10H159.09V181.82Zm-84.41,0h13V284.09h-31.3l7-91.77A11.42,11.42,0,0,1,123.34,181.82ZM71.51,330.92l24.11-24.1H172.4a11.28,11.28,0,0,1,8,3.33l27.43,27.43a11.39,11.39,0,0,0,8,3.33H375a11.37,11.37,0,0,1,11.36,11.36v68.18H68.18V375h34.09V352.27H68.18V339A11.28,11.28,0,0,1,71.51,330.92ZM22.73,483A39.77,39.77,0,1,1,62.5,522.73,39.81,39.81,0,0,1,22.73,483Zm306.82,39.78A39.82,39.82,0,0,1,293.62,500h71.85A39.82,39.82,0,0,1,329.55,522.73Zm107.51-30.49A12.78,12.78,0,0,1,441,479.45l35.68-32.12,32.3,70L446.51,501.7A12.78,12.78,0,0,1,437.06,492.24Z"/><rect class="cls-3" x="51.14" y="471.59" width="22.73" height="22.73" transform="translate(-323.19 185.65) rotate(-45)"/></g></g></svg>