<svg xmlns="http://www.w3.org/2000/svg" xmlns:xlink="http://www.w3.org/1999/xlink" viewBox="0 0 545.45 545.45"><defs><style>.cls-1{fill:none;}.cls-2{fill:url(#New_Gradient_Swatch_1);}</style><linearGradient id="New_Gradient_Swatch_1" y1="278.41" x2="545.45" y2="278.41" gradientUnits="userSpaceOnUse"><stop offset="0" stop-color="#285180"/><stop offset="1" stop-color="#85b9f4"/></linearGradient></defs><g id="Layer_2" data-name="Layer 2"><g id="Upscaped_Icons" data-name="Upscaped Icons"><rect class="cls-1" width="545.45" height="545.45"/><path class="cls-2" d="M540.39,365.54,509,344.62,459.58,235.89a34.15,34.15,0,0,0-31-20H340.91a11.36,11.36,0,0,0-11.36,11.36V397.73H170.45V375h22.73a11.37,11.37,0,0,0,11.37-11.36V306.82a11.37,11.37,0,0,0-6.89-10.45l-35.54-15.23L500,80.47v62c0,15.86,6.79,30.92,19.11,42.42a11.36,11.36,0,1,1-15.78,16.35l-6.66-6.66a11.36,11.36,0,1,0-16.07,16.07l6.66,6.66a34,34,0,0,0,24.11,10,35.35,35.35,0,0,0,8.31-1,34.09,34.09,0,0,0,14.93-58c-7.66-7.15-11.88-16.31-11.88-25.8V68.18a11.51,11.51,0,0,0-.06-1.18l9.62-5.71a26.84,26.84,0,0,0,.2-46.06A26.85,26.85,0,0,0,508,13.57l-.13.06L29.44,228.27h0a10.86,10.86,0,0,0-1.61.87,11.36,11.36,0,0,0-5.11,9.49v125A11.36,11.36,0,0,0,34.09,375H79.55v22.73H11.36A11.36,11.36,0,0,0,0,409.09v79.55A11.37,11.37,0,0,0,11.36,500H80.69A56.83,56.83,0,0,0,192,500h184.1a56.83,56.83,0,0,0,111.35,0h46.6a11.36,11.36,0,0,0,11.36-11.36V375A11.35,11.35,0,0,0,540.39,365.54Zm-58-24.63h-61.9V284.09h36.08Zm34.7-306.5a4.11,4.11,0,0,1,3.69.27,4,4,0,0,1,2,3.56,4,4,0,0,1-2,3.49L136.27,270.06,62.38,238.4ZM45.45,255.87l136.37,58.44v38H45.45ZM102.27,375h45.46v22.73H102.27Zm34.09,147.73a34.1,34.1,0,1,1,34.09-34.09A34.14,34.14,0,0,1,136.36,522.73Zm0-90.91a56.91,56.91,0,0,0-55.67,45.45h-58V420.45H329.55v56.82H192A56.92,56.92,0,0,0,136.36,431.82Zm295.46,90.91a34.1,34.1,0,1,1,34.09-34.09A34.13,34.13,0,0,1,431.82,522.73Zm55.67-45.46a56.83,56.83,0,0,0-111.35,0H352.27V238.64h76.28a11.38,11.38,0,0,1,10.34,6.66l7.31,16.06H409.09a11.36,11.36,0,0,0-11.36,11.37v79.54a11.36,11.36,0,0,0,11.36,11.37h87.47l26.17,17.44v16.65H488.64v22.72h34.09v56.82Z"/></g></g></svg>