<svg xmlns="http://www.w3.org/2000/svg" xmlns:xlink="http://www.w3.org/1999/xlink" viewBox="0 0 545.47 545.45"><defs><style>.cls-1{fill:none;}.cls-2{fill:url(#New_Gradient_Swatch_1);}.cls-3{fill:url(#New_Gradient_Swatch_1-2);}.cls-4{fill:url(#New_Gradient_Swatch_1-3);}.cls-5{fill:url(#New_Gradient_Swatch_1-4);}.cls-6{fill:url(#New_Gradient_Swatch_1-5);}.cls-7{fill:url(#New_Gradient_Swatch_1-6);}.cls-8{fill:url(#New_Gradient_Swatch_1-7);}</style><linearGradient id="New_Gradient_Swatch_1" x1="381.66" y1="488.64" x2="413.8" y2="488.64" gradientTransform="translate(461.97 -138.12) rotate(45)" gradientUnits="userSpaceOnUse"><stop offset="0" stop-color="#285180"/><stop offset="1" stop-color="#85b9f4"/></linearGradient><linearGradient id="New_Gradient_Swatch_1-2" x1="40.75" y1="488.64" x2="72.89" y2="488.64" gradientTransform="translate(362.14 102.92) rotate(45)" xlink:href="#New_Gradient_Swatch_1"/><linearGradient id="New_Gradient_Swatch_1-3" x1="108.93" y1="488.64" x2="141.07" y2="488.64" gradientTransform="translate(382.13 54.73) rotate(45)" xlink:href="#New_Gradient_Swatch_1"/><linearGradient id="New_Gradient_Swatch_1-4" x1="177.11" y1="488.64" x2="209.25" y2="488.64" gradientTransform="translate(402.1 6.52) rotate(45)" xlink:href="#New_Gradient_Swatch_1"/><linearGradient id="New_Gradient_Swatch_1-5" x1="245.29" y1="488.64" x2="277.44" y2="488.64" gradientTransform="translate(422.07 -41.69) rotate(45)" xlink:href="#New_Gradient_Swatch_1"/><linearGradient id="New_Gradient_Swatch_1-6" x1="313.48" y1="488.64" x2="345.62" y2="488.64" gradientTransform="translate(442.04 -89.91) rotate(45)" xlink:href="#New_Gradient_Swatch_1"/><linearGradient id="New_Gradient_Swatch_1-7" x1="0" y1="272.73" x2="545.47" y2="272.73" gradientTransform="matrix(1, 0, 0, 1, 0, 0)" xlink:href="#New_Gradient_Swatch_1"/></defs><g id="Layer_2" data-name="Layer 2"><g id="Upscaped_Icons" data-name="Upscaped Icons"><rect class="cls-1" width="545.45" height="545.45"/><rect class="cls-2" x="386.36" y="477.27" width="22.73" height="22.73" transform="translate(-229.02 424.32) rotate(-45)"/><rect class="cls-3" x="45.46" y="477.27" width="22.73" height="22.73" transform="translate(-328.86 183.27) rotate(-45)"/><rect class="cls-4" x="113.64" y="477.27" width="22.73" height="22.73" transform="translate(-308.91 231.51) rotate(-45)"/><rect class="cls-5" x="181.82" y="477.27" width="22.73" height="22.73" transform="translate(-288.94 279.72) rotate(-45)"/><rect class="cls-6" x="250" y="477.27" width="22.73" height="22.73" transform="translate(-268.97 327.93) rotate(-45)"/><rect class="cls-7" x="318.18" y="477.27" width="22.73" height="22.73" transform="translate(-249 376.14) rotate(-45)"/><path class="cls-8" d="M534.61,236.43c-7.66-7.15-11.88-16.31-11.88-25.8V79.54a11.2,11.2,0,0,0-.38-2.85l19.88-37.17A26.83,26.83,0,0,0,518.58,0a26.87,26.87,0,0,0-21.84,11.26l-.1.15-195.79,284H274L223.18,144.11a11.37,11.37,0,0,0-10.77-7.75H127.79A34.23,34.23,0,0,0,94,165.85L80.17,267.4,55.44,292.13a33.87,33.87,0,0,0-10,24.1v81.5a11.37,11.37,0,0,0,11.37,11.36h79.54v22.73H56.82a56.82,56.82,0,1,0,0,113.63H397.73a56.82,56.82,0,1,0,0-113.63H340.91V409.09h45.45a11.37,11.37,0,0,0,11.37-11.36V309.67L500,118.47v92.16c0,15.86,6.79,30.92,19.11,42.42a11.36,11.36,0,1,1-15.78,16.35l-6.66-6.66a11.36,11.36,0,1,0-16.07,16.07l6.66,6.66a34,34,0,0,0,24.11,10,35.87,35.87,0,0,0,8.31-1,34.1,34.1,0,0,0,14.93-58Zm-19.32-212a4.08,4.08,0,0,1,3.29-1.67,4,4,0,0,1,3.55,2,4,4,0,0,1,.08,4L379.55,295.46h-51.1ZM250,295.46H214.93l-24.1-24.11a33.87,33.87,0,0,0-24.11-10h-7.63V159.09h45.15ZM127.79,159.09h8.57V261.36H103.93l12.6-92.44A11.42,11.42,0,0,1,127.79,159.09Zm304,329.55a34.13,34.13,0,0,1-34.09,34.09H56.82a34.1,34.1,0,0,1,0-68.19H397.73A34.13,34.13,0,0,1,431.82,488.64ZM318.18,431.82H159.09V409.09H318.18ZM375,386.36H68.18V352.27h34.09V329.55H68.18V316.23a11.26,11.26,0,0,1,3.33-8l24.11-24.11h71.1a11.28,11.28,0,0,1,8,3.33l27.43,27.43a11.37,11.37,0,0,0,8,3.33H375Z"/></g></g></svg>