<svg xmlns="http://www.w3.org/2000/svg" xmlns:xlink="http://www.w3.org/1999/xlink" viewBox="0 0 545.46 545.45"><defs><style>.cls-1{fill:none;}.cls-2{fill:url(#New_Gradient_Swatch_1);}.cls-3{fill:url(#New_Gradient_Swatch_1-2);}.cls-4{fill:url(#New_Gradient_Swatch_1-3);}.cls-5{fill:url(#New_Gradient_Swatch_1-4);}.cls-6{fill:url(#New_Gradient_Swatch_1-5);}.cls-7{fill:url(#New_Gradient_Swatch_1-6);}.cls-8{fill:url(#New_Gradient_Swatch_1-7);}.cls-9{fill:url(#New_Gradient_Swatch_1-8);}</style><linearGradient id="New_Gradient_Swatch_1" y1="375" x2="545.45" y2="375" gradientUnits="userSpaceOnUse"><stop offset="0" stop-color="#285180"/><stop offset="1" stop-color="#85b9f4"/></linearGradient><linearGradient id="New_Gradient_Swatch_1-2" x1="397.73" y1="465.91" x2="465.91" y2="465.91" xlink:href="#New_Gradient_Swatch_1"/><linearGradient id="New_Gradient_Swatch_1-3" x1="0" y1="306.82" x2="488.64" y2="306.82" xlink:href="#New_Gradient_Swatch_1"/><linearGradient id="New_Gradient_Swatch_1-4" x1="231.84" y1="329.01" x2="274.49" y2="329.01" gradientTransform="translate(547.58 36.34) rotate(82.75)" xlink:href="#New_Gradient_Swatch_1"/><linearGradient id="New_Gradient_Swatch_1-5" x1="174.12" y1="310.25" x2="212" y2="310.25" gradientTransform="translate(476.46 79.57) rotate(82.75)" xlink:href="#New_Gradient_Swatch_1"/><linearGradient id="New_Gradient_Swatch_1-6" x1="116.41" y1="291.49" x2="149.51" y2="291.49" gradientTransform="translate(405.34 122.8) rotate(82.75)" xlink:href="#New_Gradient_Swatch_1"/><linearGradient id="New_Gradient_Swatch_1-7" x1="58.69" y1="272.74" x2="87.02" y2="272.74" gradientTransform="translate(334.21 166.04) rotate(82.75)" xlink:href="#New_Gradient_Swatch_1"/><linearGradient id="New_Gradient_Swatch_1-8" x1="45.45" y1="465.91" x2="113.64" y2="465.91" xlink:href="#New_Gradient_Swatch_1"/></defs><g id="Layer_2" data-name="Layer 2"><g id="Upscaped_Icons" data-name="Upscaped Icons"><rect class="cls-1" width="545.45" height="545.45"/><path class="cls-2" d="M544.77,337,504.86,227.27h17.87V204.55H381a11.36,11.36,0,0,0-11.27,9.92L346.58,396.29l22.55,2.87,6-46.89H522.73V454.55H510.54a79.54,79.54,0,0,0-158.27,11.36,78.8,78.8,0,0,0,.83,11.36H158.27a79.52,79.52,0,0,0-78.72-90.91A79.55,79.55,0,1,0,151.4,500H360a79.53,79.53,0,0,0,150.58-22.73h23.55a11.35,11.35,0,0,0,11.36-11.36v-125A11.46,11.46,0,0,0,544.77,337ZM79.55,522.73a56.82,56.82,0,1,1,56.81-56.82A56.89,56.89,0,0,1,79.55,522.73Zm352.27,0a56.82,56.82,0,1,1,56.82-56.82A56.89,56.89,0,0,1,431.82,522.73ZM378,329.55l13-102.28h18.09V329.55Zm53.84-102.28h48.86l37.19,102.28H431.82Z"/><path class="cls-3" d="M431.82,431.82a34.09,34.09,0,1,0,34.09,34.09A34.13,34.13,0,0,0,431.82,431.82Zm0,45.45a11.37,11.37,0,1,1,11.36-11.36A11.38,11.38,0,0,1,431.82,477.27Z"/><path class="cls-4" d="M5.17,305,232.44,452.71a11.38,11.38,0,0,0,6.2,1.83h68.18a11.37,11.37,0,0,0,11.28-10l32.84-262.77h137.7V159.09H340.91A11.37,11.37,0,0,0,329.63,169l-4.43,35.51H21.49a11.37,11.37,0,0,0-11.28,9.92L.09,294A11.35,11.35,0,0,0,5.17,305ZM31.5,227.27H322.35L296.79,431.82H242l-218.47-142Z"/><rect class="cls-5" x="173.52" y="317.65" width="159.3" height="22.73" transform="translate(-105.17 538.62) rotate(-82.75)"/><rect class="cls-6" x="132.32" y="298.89" width="121.48" height="22.73" transform="translate(-139.08 462.6) rotate(-82.75)"/><rect class="cls-7" x="91.13" y="280.13" width="83.66" height="22.73" transform="translate(-172.99 386.59) rotate(-82.75)"/><rect class="cls-8" x="49.93" y="261.37" width="45.84" height="22.73" transform="translate(-206.9 310.58) rotate(-82.75)"/><path class="cls-9" d="M79.55,431.82a34.09,34.09,0,1,0,34.09,34.09A34.13,34.13,0,0,0,79.55,431.82Zm0,45.45a11.37,11.37,0,1,1,11.36-11.36A11.38,11.38,0,0,1,79.55,477.27Z"/></g></g></svg>