<svg xmlns="http://www.w3.org/2000/svg" xmlns:xlink="http://www.w3.org/1999/xlink" viewBox="0 0 545.45 545.45"><defs><style>.cls-1{fill:none;}.cls-2{fill:url(#New_Gradient_Swatch_1);}.cls-3{fill:url(#New_Gradient_Swatch_1-2);}.cls-4{fill:url(#New_Gradient_Swatch_1-3);}</style><linearGradient id="New_Gradient_Swatch_1" x1="461.2" y1="488.64" x2="493.34" y2="488.64" gradientTransform="translate(485.31 -194.36) rotate(45)" gradientUnits="userSpaceOnUse"><stop offset="0" stop-color="#285180"/><stop offset="1" stop-color="#85b9f4"/></linearGradient><linearGradient id="New_Gradient_Swatch_1-2" x1="120.29" y1="488.64" x2="152.43" y2="488.64" gradientTransform="translate(385.46 46.69) rotate(45)" xlink:href="#New_Gradient_Swatch_1"/><linearGradient id="New_Gradient_Swatch_1-3" x1="34.09" y1="272.79" x2="545.45" y2="272.79" gradientTransform="matrix(1, 0, 0, 1, 0, 0)" xlink:href="#New_Gradient_Swatch_1"/></defs><g id="Layer_2" data-name="Layer 2"><g id="Upscaped_Icons" data-name="Upscaped Icons"><rect class="cls-1" width="545.45" height="545.45"/><rect class="cls-2" x="465.91" y="477.27" width="22.73" height="22.73" transform="translate(-205.73 480.6) rotate(-45)"/><rect class="cls-3" x="125" y="477.27" width="22.73" height="22.73" transform="translate(-305.58 239.54) rotate(-45)"/><path class="cls-4" d="M407.16,256.21l-27.37-12.72-9.58,20.61,32.41,15.06,56.06,32a57.33,57.33,0,0,0,58-.39,59,59,0,0,0,28.78-51.27V193.18a11.35,11.35,0,0,0-1.05-4.73h0L467.89,21.69a34.08,34.08,0,0,0-55.82-11.6L264.72,157.48l.09.09a34.46,34.46,0,0,0-7.77,35l53.64,159.67H266.47L211.82,189.56A11.38,11.38,0,0,0,201,181.82H116.43A34.22,34.22,0,0,0,82.65,211.3L68.8,312.85,44.07,337.58a33.9,33.9,0,0,0-10,24.11v81.49a11.36,11.36,0,0,0,11.36,11.36H90.94a56.79,56.79,0,0,0,45.42,90.91H477.27a56.82,56.82,0,1,0,0-113.63H56.82V397.73H90.91V375H56.82V361.69a11.28,11.28,0,0,1,3.33-8l24.1-24.11h80.52a11.4,11.4,0,0,1,9.09,4.55l27.28,36.36a11.33,11.33,0,0,0,9.09,4.55h187.5a11.38,11.38,0,0,1,11.36,11.36v34.09h22.73V386.36a34.13,34.13,0,0,0-34.09-34.09h-3.62L329.93,188.68,430.23,88.36,496.1,202.75ZM102.27,488.64a34.09,34.09,0,1,1,34.09,34.09A34.14,34.14,0,0,1,102.27,488.64Zm79.52-34.1H431.85a56.69,56.69,0,0,0,0,68.19H181.79a56.73,56.73,0,0,0,0-68.19Zm329.57,34.1a34.09,34.09,0,1,1-34.09-34.1A34.13,34.13,0,0,1,511.36,488.64Zm11.37-229.11c.07,12.91-6.82,25.32-17.54,31.6a34.85,34.85,0,0,1-35.25.25L430.33,268.8l92.4-55.53ZM428.14,26.16a11.39,11.39,0,0,1,16.08,0,11.52,11.52,0,0,1,2,2.78h0l.66,1.44a11.37,11.37,0,0,1-2.65,11.84L320.75,165.73A34.44,34.44,0,0,0,304.36,150ZM116.43,204.54H125V306.82H92.56l12.61-92.44A11.41,11.41,0,0,1,116.43,204.54Zm75.62,115.91a34.29,34.29,0,0,0-27.28-13.63h-17V204.54h45.14L242.5,352.27H215.91Zm142.6,31.82L278.59,185.36a11.86,11.86,0,0,1,7.23-15A12,12,0,0,1,301,177.2L369.7,352.27ZM446.87,71.72l13-13,59.65,130-3.94,2.37Z"/></g></g></svg>