<svg width="80" height="80" fill="none" xmlns="http://www.w3.org/2000/svg"><path d="M40 80c22.091 0 40-17.909 40-40S62.091 0 40 0 0 17.909 0 40s17.909 40 40 40z" fill="#4477B3"/><path d="M80 40c0 22.092-17.909 40-40 40V0c22.092 0 40 17.909 40 40z" fill="#285180"/><path d="M69.986 40S56.668 56.42 40.238 56.42 10.49 40 10.49 40s13.32-16.42 29.748-16.42C56.668 23.58 69.986 40 69.986 40z" fill="#EEF4FF"/><path d="M69.986 40S56.668 56.42 40.238 56.42V23.58C56.668 23.58 69.986 40 69.986 40z" fill="#D6E9F8"/><path d="M40.238 55.431c8.523 0 15.433-6.91 15.433-15.432 0-8.524-6.91-15.433-15.433-15.433s-15.432 6.91-15.432 15.433 6.91 15.432 15.432 15.432z" fill="#4477B2"/><path d="M55.67 39.999c0 8.523-6.909 15.432-15.432 15.432V24.566c8.523 0 15.433 6.91 15.433 15.433z" fill="#285180"/><path d="M49.942 39.999c0 5.359-4.344 9.703-9.704 9.703a9.708 9.708 0 01-9.23-6.7l-.026-5.926c1.24-3.931 4.916-6.781 9.256-6.781a9.703 9.703 0 019.704 9.704z" fill="#FF3F5C"/><path d="M30.983 37.076a9.696 9.696 0 00-.448 2.923c0 1.048.168 2.057.475 3.003l5.912-2.956-5.939-2.97z" fill="#EEF4FF"/><path d="M49.942 39.999a9.703 9.703 0 00-9.704-9.704v19.407c5.36 0 9.704-4.344 9.704-9.703z" fill="#C2132C"/></svg>