<svg xmlns="http://www.w3.org/2000/svg" xmlns:xlink="http://www.w3.org/1999/xlink" viewBox="0 0 545.45 545.45"><defs><style>.cls-1{fill:none;}.cls-2{fill:url(#New_Gradient_Swatch_1);}.cls-3{fill:url(#New_Gradient_Swatch_1-2);}.cls-4{fill:url(#New_Gradient_Swatch_1-3);}.cls-5{fill:url(#New_Gradient_Swatch_1-4);}</style><linearGradient id="New_Gradient_Swatch_1" x1="74.84" y1="488.64" x2="106.98" y2="488.64" gradientTransform="translate(372.13 78.83) rotate(45)" gradientUnits="userSpaceOnUse"><stop offset="0" stop-color="#285180"/><stop offset="1" stop-color="#85b9f4"/></linearGradient><linearGradient id="New_Gradient_Swatch_1-2" x1="0" y1="357.95" x2="545.45" y2="357.95" gradientTransform="matrix(1, 0, 0, 1, 0, 0)" xlink:href="#New_Gradient_Swatch_1"/><linearGradient id="New_Gradient_Swatch_1-3" x1="472.57" y1="488.64" x2="504.71" y2="488.64" gradientTransform="translate(488.64 -202.4) rotate(45)" xlink:href="#New_Gradient_Swatch_1"/><linearGradient id="New_Gradient_Swatch_1-4" x1="188.47" y1="488.64" x2="220.62" y2="488.64" gradientTransform="translate(405.43 -1.52) rotate(45)" xlink:href="#New_Gradient_Swatch_1"/></defs><g id="Layer_2" data-name="Layer 2"><g id="Upscaped_Icons" data-name="Upscaped Icons"><rect class="cls-1" width="545.45" height="545.45"/><rect class="cls-2" x="79.55" y="477.27" width="22.73" height="22.73" transform="translate(-318.88 207.39) rotate(-45)"/><path class="cls-3" d="M522.73,443.21V409.09a11.37,11.37,0,0,0-4.55-9.09l-45.45-34.09a11.34,11.34,0,0,0-6.82-2.27H295.45V340.91a11.35,11.35,0,0,0-11.36-11.36h-12.5L231.13,193.18H250V170.45H127.79A34.23,34.23,0,0,0,94,199.94l0,.18L82.58,295.45H45.45A11.39,11.39,0,0,0,36.36,300L2.27,345.45A11.4,11.4,0,0,0,0,352.27v125a11.37,11.37,0,0,0,11.36,11.37H34.09a56.86,56.86,0,1,0,4.76-22.73H22.73V386.36H90.91V363.64H22.73v-7.58l28.41-37.88H165.75l30.76,30.76a11.33,11.33,0,0,0,8,3.33h68.18V465.91H256.61a56.8,56.8,0,1,0,4.75,22.73h22.73a11.36,11.36,0,0,0,11.36-11.37V386.36H462.12L500,414.77V433a56.87,56.87,0,0,0-67,44.31H352.27V443.18H329.55V500a11.36,11.36,0,0,0,1.2,5.08l20.16,40.33,20.33-10.16L353.61,500H433a56.82,56.82,0,1,0,89.77-56.79ZM90.91,454.55a34.09,34.09,0,1,1-34.09,34.09A34.13,34.13,0,0,1,90.91,454.55Zm113.64,68.18a34.09,34.09,0,1,1,34.09-34.13v0h0A34.14,34.14,0,0,1,204.55,522.73Zm-88-319.79a11.41,11.41,0,0,1,11.25-9.76h8.57V295.45H105.47Zm62,95.84a11.37,11.37,0,0,0-8-3.33H159.09V193.18h48.34l40.45,136.37H209.25Zm310.15,224a34.09,34.09,0,1,1,34.09-34.09A34.13,34.13,0,0,1,488.64,522.73Z"/><rect class="cls-4" x="477.27" y="477.27" width="22.73" height="22.73" transform="translate(-202.4 488.64) rotate(-45)"/><rect class="cls-5" x="193.18" y="477.27" width="22.73" height="22.73" transform="translate(-285.61 287.75) rotate(-45)"/></g></g></svg>