<svg width="55" height="69" viewBox="0 0 55 69" fill="none" xmlns="http://www.w3.org/2000/svg">
<rect width="55" height="68.88" fill="white"/>
<path d="M55 68.1014C55 45.6604 55 23.2193 55 0.908019C55 0.648585 55 0.389151 55 0.129717C54.7406 0.129717 54.4811 0.129717 54.2217 0.129717C36.4505 0 18.5495 0 0.778302 0C0.518868 0 0.259434 0 0 0C0 22.9599 0 45.9198 0 68.8797C18.2901 68.8797 36.7099 68.8797 55 68.8797C55 68.6203 55 68.3608 55 68.1014ZM52.5354 66.4151C35.8019 66.4151 19.1981 66.4151 2.46462 66.4151C2.46462 45.1415 2.46462 23.8679 2.46462 2.46462C19.1981 2.46462 35.8019 2.46462 52.5354 2.46462C52.5354 23.7382 52.5354 45.0118 52.5354 66.4151Z" fill="#134074"/>
<path d="M13.6203 32.2995C14.5283 32.2995 15.3066 32.2995 16.3443 32.2995C16.3443 38.5259 16.3443 44.7523 16.3443 50.9788C19.3278 50.9788 22.3113 50.9788 25.2948 50.9788C25.2948 36.0613 25.2948 21.2736 25.2948 6.48584C22.3113 6.48584 19.3278 6.48584 16.3443 6.48584C16.3443 11.8042 16.3443 16.9929 16.3443 22.3113C15.4363 22.3113 14.658 22.3113 13.6203 22.3113C13.6203 16.9929 13.6203 11.6745 13.6203 6.48584C10.5071 6.48584 7.52359 6.48584 4.5401 6.48584C4.5401 21.4033 4.5401 36.191 4.5401 50.9788C7.52359 50.9788 10.5071 50.9788 13.6203 50.9788C13.6203 44.7523 13.6203 38.5259 13.6203 32.2995Z" fill="#134074"/>
<path d="M49.5519 6.48584C46.5684 6.48584 43.5849 6.48584 40.7311 6.48584C40.7311 21.4033 40.7311 36.191 40.7311 50.9788C43.7146 50.9788 46.6981 50.9788 49.5519 50.9788C49.5519 36.0613 49.5519 21.2736 49.5519 6.48584Z" fill="#134074"/>
<path d="M37.4882 14.5283C34.5047 14.5283 31.6509 14.5283 28.6674 14.5283C28.6674 26.7217 28.6674 38.9151 28.6674 51.1085C31.6509 51.1085 34.6344 51.1085 37.4882 51.1085C37.4882 38.7854 37.4882 26.592 37.4882 14.5283Z" fill="#134074"/>
<path d="M37.4882 6.48584C37.4882 7.26414 37.4882 7.91273 37.4882 8.56131C37.4882 9.59905 37.4882 10.6368 37.4882 11.6745C37.4882 11.934 37.3585 12.1934 37.099 12.1934C34.375 12.1934 31.6509 12.1934 28.9269 12.1934C28.9269 12.1934 28.7971 12.1934 28.6674 12.1934C28.6674 10.3773 28.6674 8.43159 28.6674 6.48584C31.6509 6.48584 34.5047 6.48584 37.4882 6.48584Z" fill="#E3000F"/>
<path d="M27.2405 53.8325C28.0188 53.8325 28.7971 53.8325 29.5754 53.8325C29.5754 54.092 29.5754 54.2217 29.5754 54.4811C29.5754 56.5566 29.5754 58.632 29.5754 60.8372C29.5754 61.0967 29.8349 61.6155 29.8349 61.6155C30.3537 61.6155 30.224 61.0967 30.224 60.8372C30.224 58.7618 30.224 56.6863 30.224 54.6108C30.224 54.3514 30.224 54.092 30.224 53.8325C31.0023 53.8325 31.7806 53.8325 32.5589 53.8325C32.5589 53.9622 32.5589 54.092 32.5589 54.2217C32.5589 56.2971 32.5589 58.5023 32.5589 60.5778C32.5589 62.0047 32.0401 62.783 30.8726 63.0424C30.0943 63.3019 29.316 63.1721 28.5377 62.783C27.8891 62.5236 27.5 62.0047 27.3703 61.2264C27.3703 60.3184 27.2405 59.2806 27.2405 58.3726C27.2405 56.9457 27.2405 55.3891 27.2405 53.8325Z" fill="black"/>
<path d="M13.8797 53.8325C14.658 53.8325 15.4363 53.8325 16.2146 53.8325C16.2146 53.9622 16.2146 54.2217 16.2146 54.3514C16.2146 56.4269 16.2146 58.5023 16.2146 60.5778C16.2146 61.6155 15.9552 62.5236 14.9174 62.9127C13.75 63.4316 12.7123 63.3019 11.6745 62.5236C11.4151 62.2641 11.0259 61.875 11.0259 61.4858C11.0259 58.8915 11.0259 56.4269 11.0259 53.8325C11.6745 53.8325 12.4528 53.8325 13.2311 53.8325C13.2311 54.092 13.2311 54.3514 13.2311 54.4811C13.2311 56.4269 13.2311 58.2429 13.2311 60.1887C13.2311 60.3184 13.2311 60.4481 13.2311 60.4481C13.3608 60.8372 12.9717 61.3561 13.6203 61.6155C13.75 61.2264 13.8797 60.8372 13.8797 60.4481C13.8797 58.5023 13.8797 56.4269 13.8797 54.4811C13.8797 54.2217 13.8797 54.092 13.8797 53.8325Z" fill="black"/>
<path d="M20.1062 63.0423C20.1062 61.8748 20.1062 60.7074 20.1062 59.6696C20.1062 59.2805 20.1062 58.8913 19.4576 58.8913C19.4576 60.1885 19.4576 61.6154 19.4576 63.0423C18.6793 63.0423 17.901 63.0423 17.1227 63.0423C17.1227 59.929 17.1227 56.9456 17.1227 53.7026C18.4199 53.8324 19.717 53.8323 21.0142 53.9621C21.6628 54.0918 22.0519 54.6107 22.1816 55.2592C22.3114 55.9078 22.3114 56.6861 22.1816 57.3347C22.0519 57.7239 21.6628 57.9833 21.4033 58.3724C21.9222 58.5022 22.3114 59.021 22.3114 59.7993C22.3114 60.7073 22.3114 61.7451 22.3114 62.6531C22.3114 62.9125 22.1816 63.0423 21.9222 63.0423C21.2736 63.0423 20.7548 63.0423 20.1062 63.0423ZM19.4576 57.3347C20.1062 57.4644 20.1062 57.0753 20.1062 56.6861C20.1062 55.6484 20.1062 55.5187 19.4576 55.5187C19.4576 56.0375 19.4576 56.6861 19.4576 57.3347Z" fill="black"/>
<path d="M46.8278 63.0423C46.0495 63.0423 45.2712 63.0423 44.4929 63.0423C44.4929 59.929 44.4929 56.9456 44.4929 53.8324C45.2712 53.8324 45.9198 53.8324 46.6981 53.8324C46.6981 54.8701 46.6981 55.9078 46.6981 56.9456H46.8278C47.0873 56.0375 47.3467 55.2592 47.6061 54.3512C47.7358 53.9621 47.8656 53.7026 48.3844 53.7026C48.9033 53.7026 49.4222 53.7026 49.941 53.7026C49.5519 54.8701 49.2924 55.9078 48.9033 56.9456C48.6439 57.5941 48.6439 58.113 48.9033 58.7616C49.2924 59.929 49.5519 61.2262 49.941 62.3937C49.941 62.5234 49.941 62.6531 50.0707 62.9125C49.2924 62.9125 48.6439 62.9125 47.9953 62.9125C47.8656 62.9125 47.7358 62.6531 47.6061 62.5234C47.3467 61.4857 47.0873 60.5776 46.8278 59.5399C46.8278 60.8371 46.8278 61.8748 46.8278 63.0423Z" fill="black"/>
<path d="M7.78301 59.5403C6.87499 59.2808 7.52357 58.6323 7.26414 58.1134C8.17216 58.1134 9.08018 58.1134 9.9882 58.1134C9.9882 59.7997 9.9882 61.3563 9.9882 63.0426C8.95046 63.3021 8.69103 63.1724 8.30188 62.5238C7.78301 63.1724 7.00471 63.4318 6.2264 63.1724C5.57782 62.9129 5.05895 62.5238 4.79952 61.7455C4.6698 61.486 4.6698 61.2266 4.6698 61.0969C4.6698 59.1511 4.6698 57.3351 4.79952 55.3893C4.79952 55.2596 4.92923 55.0002 4.92923 54.8705C5.4481 53.9624 6.48584 53.4436 7.91272 53.703C8.95046 53.8327 9.72876 54.4813 9.9882 55.519C10.1179 55.9082 10.1179 56.1676 10.1179 56.5568C10.1179 56.8162 10.1179 56.9459 10.1179 57.2054C9.33961 57.2054 8.56131 57.2054 7.78301 57.2054C7.78301 56.6865 7.78301 56.1676 7.78301 55.7785C7.78301 55.6488 7.52357 55.3893 7.39386 55.2596C7.26414 55.3893 7.13442 55.519 7.13442 55.7785C7.13442 57.5945 7.13442 59.4106 7.13442 61.2266C7.13442 61.3563 7.39386 61.6157 7.52357 61.7455C7.52357 61.486 7.78301 61.3563 7.78301 61.0969C7.78301 60.578 7.78301 60.0591 7.78301 59.5403Z" fill="black"/>
<path d="M35.5425 64.2099C35.6722 63.9505 35.9316 63.6911 36.191 63.4316C36.0613 63.3019 35.8019 63.3019 35.6722 63.1722C34.1156 63.0425 33.467 62.2642 33.3373 60.7076C33.3373 60.4481 33.3373 60.059 33.3373 59.6698C33.7264 59.6698 34.1156 59.6698 34.375 59.6698C34.7642 59.6698 35.0236 59.6698 35.5425 59.6698C35.5425 60.1887 35.5425 60.7076 35.5425 61.0967C35.5425 61.2264 35.8019 61.3562 35.8019 61.6156C35.9316 61.4859 36.191 61.3562 36.191 61.2264C36.4505 60.5779 36.191 59.9293 35.6722 59.5401C35.1533 59.151 34.6344 58.7618 34.1156 58.3727C33.0778 57.5944 32.8184 55.5189 33.5967 54.4812C33.8561 54.2217 34.1156 53.9623 34.5047 53.8326C35.4127 53.4434 36.4505 53.4434 37.3585 53.9623C38.0071 54.2217 38.2665 54.7406 38.3962 55.3892C38.3962 55.7783 38.3962 56.1675 38.3962 56.5566C37.7476 56.5566 36.9693 56.5566 36.3208 56.5566C36.3208 56.1675 36.3208 55.908 36.3208 55.5189C36.3208 55.3892 36.191 55.2595 36.0613 55.1297C35.9316 55.2595 35.8019 55.2595 35.6722 55.3892C35.4127 55.908 35.6722 56.5566 36.0613 56.8161C36.5802 57.2052 37.0991 57.4646 37.4882 57.8538C38.5259 58.7618 39.0448 60.8373 38.3962 62.0047C37.8774 62.783 37.0991 63.3019 36.4505 63.9505C36.3208 64.0802 36.0613 64.0802 35.8019 64.2099C35.6722 64.3396 35.5425 64.3396 35.5425 64.2099Z" fill="black"/>
<path d="M38.7854 53.8325C39.5637 53.8325 40.2123 53.8325 40.8609 53.8325C40.9906 54.8703 41.25 55.908 41.3797 57.0754C41.6392 56.0377 41.7689 55.1297 41.8986 54.2217C41.8986 54.092 42.158 53.8325 42.2878 53.8325C42.8066 53.8325 43.4552 53.8325 44.1038 53.8325C43.7146 55 43.4552 56.1674 43.1958 57.2052C42.6769 58.8915 42.4175 60.5778 42.5472 62.2641C42.5472 63.0424 42.5472 63.0424 41.7689 63.0424C41.3797 63.0424 40.9906 63.0424 40.6014 63.0424C40.6014 63.0424 40.4717 63.0424 40.342 62.9127C40.8609 59.7995 39.434 56.9457 38.7854 53.8325Z" fill="black"/>
<path d="M23.0896 63.0424C23.0896 59.9292 23.0896 56.9457 23.0896 53.8325C23.8679 53.8325 24.5165 53.8325 25.4245 53.8325C25.4245 56.2971 25.4245 58.632 25.4245 61.2264C25.9434 61.2264 26.3325 61.2264 26.8514 61.2264C26.8514 61.875 26.8514 62.3938 26.8514 63.0424C25.5542 63.0424 24.3868 63.0424 23.0896 63.0424Z" fill="black"/>
</svg>
