<svg xmlns="http://www.w3.org/2000/svg" xmlns:xlink="http://www.w3.org/1999/xlink" viewBox="0 0 545.45 545.45"><defs><style>.cls-1{fill:none;}.cls-2{fill:url(#New_Gradient_Swatch_1);}.cls-3{fill:url(#New_Gradient_Swatch_1-2);}.cls-4{fill:url(#New_Gradient_Swatch_1-3);}</style><linearGradient id="New_Gradient_Swatch_1" x1="284.09" y1="465.91" x2="352.27" y2="465.91" gradientUnits="userSpaceOnUse"><stop offset="0" stop-color="#285180"/><stop offset="1" stop-color="#85b9f4"/></linearGradient><linearGradient id="New_Gradient_Swatch_1-2" x1="51.14" y1="454.55" x2="130.68" y2="454.55" xlink:href="#New_Gradient_Swatch_1"/><linearGradient id="New_Gradient_Swatch_1-3" x1="0" y1="352.27" x2="545.45" y2="352.27" xlink:href="#New_Gradient_Swatch_1"/></defs><g id="Layer_2" data-name="Layer 2"><g id="Upscaped_Icons" data-name="Upscaped Icons"><rect class="cls-1" width="545.45" height="545.45"/><path class="cls-2" d="M318.18,431.82a34.09,34.09,0,1,0,34.09,34.09A34.13,34.13,0,0,0,318.18,431.82Zm0,45.45a11.36,11.36,0,1,1,11.37-11.36A11.37,11.37,0,0,1,318.18,477.27Z"/><path class="cls-3" d="M90.91,414.77a39.78,39.78,0,1,0,39.77,39.78A39.82,39.82,0,0,0,90.91,414.77Zm0,56.82a17,17,0,1,1,17-17A17.07,17.07,0,0,1,90.91,471.59Z"/><path class="cls-4" d="M536.49,522.73l-41-88.92,6.38-3.19-10.16-20.33-16.23,8.11a11.46,11.46,0,0,0-2.52,1.72l-47.15,42.44a35.74,35.74,0,0,0-9.8,14.71H396.9A79.16,79.16,0,0,0,375,410.32V340.91a34.13,34.13,0,0,0-34.09-34.09H306.82v-63.1l14.66-29.64L301.1,204l-15.83,32a11.31,11.31,0,0,0-1.18,5v65.76H247l-38.46-125h18.7V159.09H94.43a34.09,34.09,0,0,0-33.87,30.19l-10.4,90.13L27,297.94a11.4,11.4,0,0,0-4.26,8.88v87.67a90.89,90.89,0,1,0,156.21,82.78h60.52A79.53,79.53,0,0,0,390,500h25.61A35.65,35.65,0,0,0,441,523.75l85.46,21.37a11.7,11.7,0,0,0,2.76.33h16.23V522.73ZM223.25,306.82H197.89l-24.11-24.11a33.86,33.86,0,0,0-24.1-10H125V181.82h59.79Zm-128.82-125h7.84v90.91H73.81l9.33-80.85A11.35,11.35,0,0,1,94.43,181.82ZM90.91,522.73a68.19,68.19,0,1,1,68.18-68.18A68.26,68.26,0,0,1,90.91,522.73Zm0-159.09a90.33,90.33,0,0,0-45.46,12.2V312.28l21-16.83h83.19a11.3,11.3,0,0,1,8,3.33l27.44,27.44a11.36,11.36,0,0,0,8,3.33H340.91a11.37,11.37,0,0,1,11.36,11.36v53.14a79.51,79.51,0,0,0-112.81,60.5H181.82A91,91,0,0,0,90.91,363.64ZM318.18,522.73A56.82,56.82,0,1,1,375,465.91,56.89,56.89,0,0,1,318.18,522.73Zm118.88-30.49A12.8,12.8,0,0,1,441,479.45l35.69-32.12,32.3,70L446.51,501.7A12.78,12.78,0,0,1,437.06,492.24Z"/></g></g></svg>