<svg width="40" height="40" viewBox="0 0 40 40" fill="none" xmlns="http://www.w3.org/2000/svg">
<g id="Icon - Anchor">
<circle id="Icon Bg" cx="20" cy="20" r="20" fill="#F9F7F7"/>
<g id="Union">
<path d="M21 20.188C21 20.7403 20.5523 21.188 20 21.188C19.4477 21.188 19 20.7403 19 20.188C19 19.6357 19.4477 19.188 20 19.188C20.5523 19.188 21 19.6357 21 20.188Z" fill="#285180"/>
<path fill-rule="evenodd" clip-rule="evenodd" d="M29.027 19.4139H29.6816C30.0055 19.4139 30.2676 19.676 30.2676 19.9999C30.2676 20.3237 30.0055 20.5858 29.6816 20.5858H29.027C28.7362 24.9644 25.2321 28.4685 20.8535 28.7593V29.4139C20.8535 29.7378 20.5914 29.9999 20.2676 29.9999C19.9437 29.9999 19.6816 29.7378 19.6816 29.4139V28.7593C15.303 28.4685 11.7989 24.9644 11.5082 20.5858H10.8535C10.5296 20.5858 10.2676 20.3237 10.2676 19.9999C10.2676 19.676 10.5296 19.4139 10.8535 19.4139H11.5082C11.7989 15.0353 15.303 11.5312 19.6816 11.2405V10.5858C19.6816 10.2619 19.9437 9.99988 20.2676 9.99988C20.5914 9.99988 20.8535 10.2619 20.8535 10.5858V11.2405C25.2321 11.5312 28.7362 15.0353 29.027 19.4139ZM27.8551 20.5854H27.2988C26.975 20.5854 26.7129 20.3237 26.7129 19.9999C26.7129 19.676 26.975 19.4139 27.2988 19.4139H27.8551C27.5688 15.6816 24.5859 12.6986 20.8535 12.4124V12.9686C20.8535 13.2925 20.5914 13.5546 20.2676 13.5546C19.9437 13.5546 19.6816 13.2925 19.6816 12.9686V12.4124C15.9493 12.6986 12.9663 15.6816 12.6801 19.4139H13.2363C13.5602 19.4139 13.8223 19.676 13.8223 19.9999C13.8223 20.3237 13.5602 20.5858 13.2363 20.5858H12.6801C12.9663 24.3182 15.9493 27.3011 19.6816 27.5874V27.0311C19.6816 26.7073 19.9437 26.4452 20.2676 26.4452C20.5914 26.4452 20.8535 26.7073 20.8535 27.0311V27.5874C24.5859 27.3011 27.5688 24.3178 27.8551 20.5854Z" fill="#285180"/>
</g>
</g>
</svg>
