<svg width="31" height="44" viewBox="0 0 31 44" fill="none" xmlns="http://www.w3.org/2000/svg">
<path fill-rule="evenodd" clip-rule="evenodd" d="M4.73242 14.7273C4.73242 8.80276 9.53518 4 15.4597 4C21.3842 4 26.187 8.80276 26.187 14.7273C26.187 18.4451 24.2956 21.7212 21.4226 23.6459C21.3149 23.7023 21.2134 23.7681 21.119 23.842C19.4762 24.8641 17.5369 25.4545 15.4597 25.4545C9.53518 25.4545 4.73242 20.6518 4.73242 14.7273ZM20.7393 28.4799C19.1003 29.1095 17.3203 29.4545 15.4597 29.4545C13.5998 29.4545 11.8204 29.1098 10.182 28.4807L8.89767 38.1503L14.4307 34.8305C15.0641 34.4505 15.8553 34.4505 16.4887 34.8305L22.0224 38.1507L20.7393 28.4799ZM6.42838 26.3612C2.96239 23.6667 0.732422 19.4574 0.732422 14.7273C0.732422 6.59362 7.32605 0 15.4597 0C23.5933 0 30.187 6.59362 30.187 14.7273C30.187 19.4565 27.9579 23.6651 24.493 26.3596L26.5332 41.737C26.6342 42.4982 26.2904 43.2501 25.6486 43.6717C25.0067 44.0933 24.1801 44.1101 23.5216 43.715L15.4597 38.8779L7.39777 43.715C6.73922 44.1101 5.91259 44.0933 5.2707 43.6716C4.62882 43.25 4.28507 42.498 4.38619 41.7367L6.42838 26.3612Z" fill="white"/>
</svg>
