<svg width="40" height="40" viewBox="0 0 40 40" fill="none" xmlns="http://www.w3.org/2000/svg">
<g id="Icon - Anchor">
<circle id="Icon Bg" cx="20" cy="20" r="20" fill="#F9F7F7"/>
<path id="Union" fill-rule="evenodd" clip-rule="evenodd" d="M20.4004 9.99988C23.7661 9.99988 26.5073 12.7251 26.533 16.0848C26.5339 16.1006 26.5345 16.1165 26.5345 16.1325C26.535 18.5949 25.072 20.8107 22.8072 21.7777C21.8197 22.1993 21.1816 23.1813 21.1816 24.2796V26.0936C21.1816 26.5251 20.8319 26.8749 20.4004 26.8749C19.9689 26.8749 19.6191 26.5251 19.6191 26.0936V24.2796C19.6191 22.5545 20.6297 21.0084 22.1937 20.3406C23.8692 19.6253 24.956 17.993 24.9718 16.1742C24.9711 16.1604 24.9707 16.1466 24.9707 16.1327C24.9707 13.6126 22.9205 11.5624 20.4004 11.5624C17.8803 11.5624 15.8301 13.6126 15.8301 16.1327C15.8301 16.5642 15.4803 16.9139 15.0488 16.9139C14.6173 16.9139 14.2676 16.5642 14.2676 16.1327C14.2676 12.751 17.0187 9.99988 20.4004 9.99988ZM21.1816 29.2186C21.1816 29.6501 20.8319 29.9999 20.4004 29.9999C19.9689 29.9999 19.6191 29.6501 19.6191 29.2186C19.6191 28.7872 19.9689 28.4374 20.4004 28.4374C20.8319 28.4374 21.1816 28.7872 21.1816 29.2186Z" fill="#285180"/>
</g>
</svg>
