<svg width="40" height="40" viewBox="0 0 40 40" fill="none" xmlns="http://www.w3.org/2000/svg">
<g id="Icon - Mail">
<circle id="Icon Bg" cx="20" cy="20" r="20" fill="#F9F7F7"/>
<path id="Vector" d="M29.4391 17.4884C29.2105 17.2318 28.8982 17.065 28.5578 17.0176V17.0169L23.2425 16.2826L21.1391 11.2565C20.8319 10.5208 19.9866 10.1734 19.2509 10.4806C18.9002 10.627 18.6214 10.9058 18.475 11.2565L16.3716 16.2826L11.0562 17.0169C10.2643 17.1271 9.71163 17.8585 9.82186 18.6504C9.86924 18.9908 10.0361 19.3031 10.2926 19.5317L14.2974 23.1029L13.4745 28.7068C13.3854 29.2758 13.6467 29.8428 14.1373 30.1445C14.6211 30.4539 15.2432 30.4423 15.7151 30.1152L19.807 27.3326L23.8989 30.1181C24.5591 30.5662 25.4577 30.3943 25.9059 29.734C26.1095 29.4339 26.1929 29.0683 26.1395 28.7096L25.3166 23.1036L29.3214 19.5324C29.9183 19.0005 29.9711 18.0853 29.4391 17.4884ZM24.0781 22.2965C23.899 22.4566 23.8123 22.696 23.8474 22.9336L24.7045 28.9332L20.2105 25.8777C19.9683 25.7131 19.65 25.7131 19.4077 25.8777L14.8873 28.9147L15.7665 22.9308C15.8007 22.6941 15.714 22.456 15.5358 22.2965L11.2504 18.4339L16.97 17.6447C17.2204 17.6101 17.4339 17.4458 17.5314 17.2126L19.8155 11.7972C19.8181 11.8004 19.82 11.804 19.8212 11.8079L22.0818 17.2097C22.1793 17.4429 22.3928 17.6073 22.6432 17.6418L28.37 18.4661L24.0781 22.2965Z" fill="#285180"/>
</g>
</svg>
