<svg xmlns="http://www.w3.org/2000/svg" xmlns:xlink="http://www.w3.org/1999/xlink" viewBox="0 0 545.45 545.45"><defs><style>.cls-1{fill:none;}.cls-2{fill:url(#New_Gradient_Swatch_1);}.cls-3{fill:url(#New_Gradient_Swatch_1-2);}.cls-4{fill:url(#New_Gradient_Swatch_1-3);}.cls-5{fill:url(#New_Gradient_Swatch_1-4);}.cls-6{fill:url(#New_Gradient_Swatch_1-5);}</style><linearGradient id="New_Gradient_Swatch_1" y1="363.64" x2="545.45" y2="363.64" gradientUnits="userSpaceOnUse"><stop offset="0" stop-color="#285180"/><stop offset="1" stop-color="#85b9f4"/></linearGradient><linearGradient id="New_Gradient_Swatch_1-2" x1="232.88" y1="346.59" x2="282.24" y2="346.59" gradientTransform="translate(525.68 8.1) rotate(75)" xlink:href="#New_Gradient_Swatch_1"/><linearGradient id="New_Gradient_Swatch_1-3" x1="176.07" y1="346.59" x2="225.42" y2="346.59" gradientTransform="translate(483.57 62.98) rotate(75)" xlink:href="#New_Gradient_Swatch_1"/><linearGradient id="New_Gradient_Swatch_1-4" x1="119.25" y1="346.59" x2="168.6" y2="346.59" gradientTransform="translate(441.46 117.86) rotate(75)" xlink:href="#New_Gradient_Swatch_1"/><linearGradient id="New_Gradient_Swatch_1-5" x1="62.43" y1="346.59" x2="111.79" y2="346.59" gradientTransform="translate(399.34 172.74) rotate(75)" xlink:href="#New_Gradient_Swatch_1"/></defs><g id="Layer_2" data-name="Layer 2"><g id="Upscaped_Icons" data-name="Upscaped Icons"><rect class="cls-1" width="545.45" height="545.45"/><path class="cls-2" d="M545,383,504.43,251.34a33.91,33.91,0,0,0-32.58-24.07H375a11.36,11.36,0,0,0-11.36,11.37V420.45H306.35l57.86-215.9h101.7V181.82H355.49a11.36,11.36,0,0,0-11,8.42L328.5,250H56.82a11.36,11.36,0,0,0-11,8.44L.38,428.89a11.36,11.36,0,0,0,11,14.29H34.09v45.46A11.37,11.37,0,0,0,45.46,500H85.55a51.13,51.13,0,0,0,101.63,0h12a51.13,51.13,0,0,0,101.62,0h97.24a51.13,51.13,0,0,0,101.63,0h34.41a11.36,11.36,0,0,0,11.36-11.36V386.36A11.13,11.13,0,0,0,545,383ZM516.74,368.6l-73.56-24.52V295.45h51.05ZM363.64,477.27H298.2A51.22,51.22,0,0,0,250,443.18H363.64Zm-161.84,0H184.57a51.23,51.23,0,0,0-48.19-34.09H250A51.22,51.22,0,0,0,201.8,477.27ZM65.55,272.73H322.41L282.83,420.45H26.15ZM56.82,443.18h79.52a51.22,51.22,0,0,0-48.18,34.09H56.82Zm79.54,79.55a28.41,28.41,0,1,1,28.41-28.41A28.44,28.44,0,0,1,136.36,522.73Zm113.64,0a28.41,28.41,0,1,1,28.41-28.41A28.45,28.45,0,0,1,250,522.73Zm198.86,0a28.41,28.41,0,1,1,28.41-28.41A28.45,28.45,0,0,1,448.86,522.73Zm48.21-45.46a51.13,51.13,0,0,0-96.41,0h-14.3V250h85.49a11.3,11.3,0,0,1,10.86,8l4.53,14.71H431.82a11.35,11.35,0,0,0-11.36,11.36v68.18a11.35,11.35,0,0,0,7.76,10.78l94.51,31.5v14.54H500v22.73h22.73v45.45Z"/><rect class="cls-3" x="204.62" y="335.23" width="105.88" height="22.73" transform="translate(-143.88 505.67) rotate(-75)"/><rect class="cls-4" x="147.8" y="335.23" width="105.88" height="22.73" transform="translate(-185.99 450.79) rotate(-75)"/><rect class="cls-5" x="90.99" y="335.23" width="105.88" height="22.73" transform="translate(-228.11 395.91) rotate(-75)"/><rect class="cls-6" x="34.17" y="335.23" width="105.88" height="22.73" transform="translate(-270.22 341.02) rotate(-75)"/></g></g></svg>