<svg width="1152" height="631" fill="none" xmlns="http://www.w3.org/2000/svg"><path d="M104.474 136.274c2.435 0 2.435.913 4.565 0 1.826-.912 7.608-4.562 9.739-5.17 1.826-.608 3.347.304.304 1.825-3.043 1.52-8.826 5.17-7.608 4.866.913-.304 3.956-1.521 8.217-3.346 4.26-1.824 3.652-1.216 4.869-3.041 1.217-2.129 1.522-3.041 1.522-3.041s6.695 6.691 7.304 6.995c.608.304.913 0 1.217-.913.304-.912.913-2.129 1.826-1.52.913.304 0 2.129.609 2.129.609.304 1.522 0 3.348-.609 1.826-.608.913-1.824.913-1.824s-.305 0 1.826-.305c2.13-.304 8.217 2.129 10.043 2.738 1.826.608 7.608 1.216 9.13 1.824 1.521.609 2.13-.912 4.26.305 2.131 1.216 3.957 2.737 2.131 3.649-1.522.913-5.783 1.521-3.652 1.825 2.13.608 5.174 1.217 8.217 1.217s8.521-1.217 10.043-1.217c1.826 0 2.739.912 4.261 3.65 1.521 2.737 2.739 3.649 3.347 3.953.609.305-.608-1.216-.304-2.433.304-1.216-.304-3.953-.609-4.866-.304-.912 0-1.216-.608-2.433-.609-1.216-1.826-.912.304-2.129 2.13-1.216 3.652-2.737 6.391-2.433 2.739.304 3.348 3.65 5.783 3.954 2.434.304 2.739 1.216 6.695 1.521 3.956.304 2.435 0 6.695.304 4.565.304 2.739-.609 3.652-2.738.913-2.433 1.826-2.737 3.044-2.737 1.217 0 4.869.608 4.869 1.217 0 .608-1.522 3.041-.913 4.258.913 1.216 3.956 3.345 3.956 3.345s-.608-2.737-.608-3.041c0-.304-.305-2.433.304-2.737.609-.305 3.044.304 4.87-3.042 1.521-3.345-1.218-3.041-1.218-3.041s-.913 0-.608-1.217c.608-1.216 3.652-2.129 3.652-2.129s.304.609-.305-.608c-.304-1.216-2.434-.912-4.565-.912-2.13 0-3.652-.304-3.956-2.129-.305-1.825-.609-5.475-.609-8.212 0-2.433 2.13-1.521 2.435-3.041.304-1.521 0-8.516-.609-9.733-.609-1.52.609-4.562.913-6.69.304-2.13 2.435-1.217 2.435-1.217-.305-.608.609-2.737 3.348-3.346 2.739-.912 8.217 0 8.217 0s-.609 0-1.826 1.825c-1.218 1.825-.609 4.562-2.435 6.691-1.826 2.129-7 1.521-7 1.521s1.522 3.649.913 4.562c-.609 1.216-1.217 3.345-1.217 3.345s4.261 1.217 4.565 3.954c.304 2.737 2.435 3.346 3.043 5.779.609 2.433-2.13 4.562-1.521 5.17.608.304.608.608 2.434.608 1.522 0 3.652.304 3.652.304s-.913 1.217 0 2.738c.913 1.52.305 2.129.305 3.649 0 1.521.913 2.737 1.217 2.433.304-.304 2.13-3.953 2.435-5.778.304-1.825.608-2.737 1.521-2.737.609 0 3.348 2.433 3.652 3.041.305.912.609 1.825-.913 4.258-1.521 2.129-1.217 3.345 0 4.258 1.218.912 1.218.608 3.348 1.52 2.13.913 1.826.913 3.043.609 1.218-.304-.608-3.954-.304-3.954 0 0 3.348-.304 2.435-2.129-.609-1.825-1.522-2.737 0-3.346a67.158 67.158 0 002.434-1.52c-.608-1.217-.913-1.217-1.826-3.954-.913-3.041.913-2.129 4.87-1.825 3.956.304 4.261 1.825 6.391 2.737 2.13 1.217.913 1.521 1.522 3.346.608 1.825-1.826 2.129-1.826 2.129s-1.522.304-1.218 1.521c.305 1.216 1.218 3.041 2.435 5.17s-.304 3.649-2.13 5.17c-1.826 1.825-3.957 2.129-6.087 2.129-2.131 0-3.044.913-3.348.304 0-.608-1.217-1.216-2.435-.912-1.217.304-3.956 1.216-3.043 1.521.913.304 3.348.304 2.435 2.128-.913 1.825-1.826 1.825-3.957 1.825-2.13-.304-3.956-.304-5.173-.304-1.218 0-7.609-.608-7.609-.608s4.261 2.737 7.913 3.65c3.348 1.216 7 .304 7 .304l-3.044 5.474c-1.521 2.737-3.347 1.521-4.565 1.825-1.521.304-2.13 1.216-4.869 1.521-2.739.304-8.217-.609-7.304-.305.913.305 1.217 1.217 2.739 1.217 1.522.304 2.435.608 3.652 1.521 1.217 1.216-.913 1.216-2.435 1.52-1.826.305-2.13.609-3.043 1.825-.913 1.217-3.652 5.17-4.565 6.691-.913 1.217-1.826 3.346-2.131 6.083-.304 2.433-2.434 5.778-1.521 6.387.913.608 4.565.608 6.087 1.825 1.521.912 3.347 5.778 4.565 7.299 1.217 1.825 2.13 3.041 3.347 1.825 1.218-1.521 3.957-.913 6.391-.304 2.435.912 7.304 4.257 8.826 5.778 1.522 1.521 4.261 1.217 7.304 1.825 3.044.304 3.348 1.521 3.348 1.521s3.043.304 1.826 1.52c-1.217 1.217-1.826 0-.304 2.433 1.217 2.129 1.217 5.171.913 6.691-.305 1.521 4.26.609 6.086 1.825 1.826 1.217 2.131 5.779 3.044 5.17.913-.608 2.739-1.52 2.739-2.737.304-1.216 0-2.737-.305-4.866-.304-2.129-.608-5.779-1.826-7.299-.913-1.521 1.826-2.129 1.522-2.737-.609-.609-.304-1.825 1.522-2.433 1.826-.609 2.13-.001 3.043-.913 1.217-.912 1.217-4.562 1.522-6.083.304-1.52-.305-4.258-.913-5.474-.609-1.217-2.435-4.866-3.044-5.475-.608-.912-1.521-.912.305-3.345 1.826-2.433.913-1.825.608-2.737-.304-.609-.608-2.433-1.217-4.258-.304-1.521.913-3.346 0-5.779-.609-2.433-1.522-1.825-1.217-2.433 0-.608 4.565-.304 7.912 0 3.348.304 4.566-.304 5.479-.304.913 0 2.739.912 4.565 2.129 1.826 1.217 2.434.912 3.347 2.433.913 1.521 1.522 2.129 3.348 2.129 1.826 0 3.956.912 3.956.912s-1.217.913-1.217 3.346c.304 2.433-.304 4.562-.304 5.474 0 .913.608 1.217 1.521 1.217.913 0 3.348 2.129 5.783 3.041 2.434.913 3.043.609 3.956-1.52.913-2.129.913-1.825 1.826-1.825s1.217.304 1.826-.304c.304-.304-.609-1.217-.609-2.738.305-1.52 1.522-3.345 2.739-4.257 1.218-.913 1.827.912 3.044 3.041.913 1.825 4.261 8.212 5.478 10.036.913 2.129 2.13 2.129 1.217 3.954-1.217 1.825-1.826 2.737 0 3.65 1.826.912 3.348 2.433 3.348 3.954 0 1.52-.609 1.52 0 1.824.609.304 2.739-.912 4.261 0 1.521.609 3.347 1.217 4.565 2.433 1.217 1.217.913 1.521-.609 2.129-1.522.609-3.043 1.217-3.956 1.521-.913.608-2.131 1.521-2.131 2.129 0 .608-.304 1.825.913.912 1.218-.912 3.348-1.824 4.87-2.433 1.521-.304.304 0 1.826-.304 1.217-.304 2.739.608 4.565 1.217 1.826.608 1.217 1.825.913 2.737-.609 1.217-.913 2.129 0 3.345.608 1.217-.305 2.434-1.826 3.65-1.522 1.521-2.739 1.825-5.478 2.129-2.739.304-3.957 1.825-5.783 3.65-1.826 1.825-2.739 1.216-5.478 1.52-2.739 0-1.521-1.216-2.434-.912-.913.304-1.826 1.217-3.652 1.521-1.826.304-7.609.304-9.739.912-2.131.608-1.522 2.129-2.131 3.346-.608 1.216-1.521.608-3.043 1.216-1.826.608-3.652 3.041-5.782 6.387-1.826 3.345-4.565 5.474-4.565 5.474.608 0 3.347-1.824 4.565-3.345 1.217-1.521 6.999-5.475 8.825-6.691 1.826-1.217 5.478-3.041 6.392-2.737.913.304 3.043 1.825 3.043 2.737 0 .912-.609 1.521-2.131 3.041-1.521 1.521-3.652 0-3.652.609 0 .608 1.218 2.129 2.435 2.433 1.217.304 1.217 1.824 1.217 2.433 0 .608-.608 1.825 2.131 3.953 2.739 2.434 4.869 2.434 6.695 2.434 2.131 0 .913.608 1.826.608s.913-1.825 1.218-3.042c.304-1.216.608-2.433 1.521-3.041.609-.608 1.218-1.521 1.522.304.304 2.129-.913 4.866-1.826 5.475-1.217.608-.913 1.52-.913 2.129 0 .608-1.217.608-3.956 2.129-2.739 1.52-3.957 2.129-4.261 1.824-.609-.304-1.522.305-3.044 1.521-1.521 1.217-2.739 3.041-3.956 3.041-.913 0-1.826-.608-.609-1.824 1.522-1.521 1.826-3.346 3.348-4.258 1.522-.609 2.13-.609 3.348-.609 1.217 0 .609-.608 1.522-1.52.913-.608-.609-.608-2.435-.608-1.522-.305-.304-1.521-.304-1.521l-1.522.912-3.044 1.521c-.608 0-.608.608-.608.912-.305.304-2.435.304-2.435.304s-1.217 2.434-3.043 2.738c-1.826.304-.609.304-1.826.912-1.218.608-1.218-.608-1.218-.304l-1.826 1.825c-1.521 1.216-2.434 1.52-3.347 5.474-.913 3.954.304 5.475 0 6.083 0 .608-1.826-.304-2.435 0-.609.608-1.826 1.825-3.348 2.433-1.521.304-4.565 1.217-5.173 1.825-.609.608-.609 1.825-1.218 3.345-.304 1.521-2.13 5.171-2.13 5.171s.304-1.521-.913-2.433c-1.218-.913-1.218-2.129-1.218-2.129s-.304 1.52.305 3.041c.608 1.521 1.521 3.041.913 4.562-.305 1.521-1.218 3.65-2.131 4.258-.913.608.305-1.217.305-2.433 0-1.217-.609-1.521-1.218-2.129-.304-.608-.304-2.433.305-4.562.608-2.129-.609-.913-1.522.608s-1.522 4.258 0 6.083c1.217 1.825-.913 1.521 0 4.258.913 2.433-1.217 3.954-.609 4.258.305.304 1.522-.304 1.826 1.216.609 1.217-.913.608-1.521.913-.609.304-.305.912 0 1.52.304.609.913.304.608.609-.304.304-.913 1.216-2.13 1.52-1.217.304-1.217-.304-2.13.609-.609.912-1.218 1.52-2.131 2.737-.913.912-1.217.608-2.13 1.216-.913.609-1.217 1.217-2.13 2.129-.913.913-3.348 2.129-4.565 3.954-1.218 1.825-.913 2.129-1.522 4.866-.609 2.737 1.522 7.604 3.043 12.166 1.218 4.562 1.826 3.345 1.826 4.562-.304 1.52-.913 3.041-1.826 4.258-.913.912-1.521-.609-2.739-1.825-1.217-.913-.304-1.825-1.521-3.65-1.218-2.129-1.218-2.737-1.218-4.258 0-1.52-.304-3.649-1.217-5.474-.609-1.521-2.13-3.65-4.565-3.042-2.131.913-1.522.305-2.739 0-1.218-.304-4.565-1.52-6.087-.912-1.522.912-6.695-.304-7.913 0-1.217.304-1.826.304-1.826 1.217 0 .912-.608.912 1.522 1.52 1.826.608 1.522 1.217 1.522 1.825 0 .912-1.522-.304-2.435-.608-.609-.304-1.522.608-2.739.608-1.217 0-1.522-1.217-2.739-1.521-1.217-.304-1.522 0-2.739-.304-1.217-.304-2.739-1.216-3.956-1.216-1.218 0-6.392 3.345-8.826 5.17-2.435 1.825-4.261 3.65-4.87 4.866-.608 1.521-.608 1.521 1.218 3.65s.913 1.825.608 3.041c-.304 1.217-1.521 2.737-2.739 5.779-1.217 3.041-.608 4.562 1.218 7.603 1.521 3.041 3.043 5.17 4.26 6.387 1.218 1.217 2.131 2.737 3.348 3.041 1.217.609 1.218.609 1.826 1.217.609.608.305.608 2.131.304 1.826-.608 3.043-1.217 4.26-1.217 1.218 0 2.435.001 3.044.609.608.608.913.304.913 0s.608-1.521.608-2.129c.305-.304 1.826-2.737 2.131-3.954.304-1.216.304-3.954 1.826-3.954 1.521-.304 5.173-.912 8.217-.912 3.043.304 1.826 1.825.913 3.345-.913 1.521-1.218 1.825-1.218 3.042 0 1.216.305 1.216-.608 2.129-.913.608-.305-.304-.913.304-.305.608-1.826 1.825-1.826 1.52.304-.304.608 1.217.608 1.825v2.738c0 1.824-3.347 3.345-3.347 3.345s1.217.608 3.043.608 3.956 0 5.782.913c1.826.912 5.479-.609 7.913.608 2.739 1.217 1.826 2.129 1.826 3.345.305 1.217.609 5.475.305 6.387-.305.913-1.522 3.65-2.131 5.475-.608 1.825 1.826 3.345 4.261 4.866 2.435 1.521 4.261 2.129 5.478 2.737 1.217.304 3.348-1.825 7.608-1.521 3.957.305 5.478 3.65 5.478 3.65s.609-2.129 2.435-5.17c1.826-3.042 1.826-3.954 4.565-4.866 2.435-.913 3.348-1.217 7.609-2.433 3.956-1.217 3.347-.305 5.478-.305 2.13.305 6.999.609 12.173 2.129 4.869 1.521 12.478 1.825 15.521 3.042 3.044 1.216 4.261 4.562 7.304 7.299 3.044 2.737 6.696 5.17 8.217 6.691 1.522 1.217 10.348 2.433 12.478 3.345 1.826.913 4.565 3.954 4.87 5.779.304 1.825 2.13 2.737 4.869 3.954 2.739 1.216 3.652 2.433 5.174 5.778 1.826 3.346 1.217 4.562 3.652 5.171 2.434.912 19.173 5.474 23.434 6.995 4.26 1.521 9.434 6.083 10.956 6.691 1.521.608 3.956-.304 5.173.304 1.218.608-.608 3.954.609 6.387 1.522 2.433 1.522 2.433.609 4.258-.913 1.825-4.261 5.778-5.478 7.907-1.218 2.129-3.957 3.346-5.783 4.258-1.521.913-3.043 0-1.521 1.825 1.521 1.825 0 3.345-1.218 4.866-1.217 1.521 0 1.521-.304 6.387-.304 5.17 0 10.645-.609 12.774-.608 2.129-3.956-1.825-7.608 2.737-3.652 4.562-4.869 8.212-7 8.82-2.13.608-7.608 3.041-9.13 4.866-1.826 1.521-2.13 2.129-3.348 4.562-1.217 2.433-2.13 7.299-3.347 10.341-1.218 3.041-3.044 4.866-7.609 8.82-4.565 3.953-6.391 8.211-9.434 11.557-2.739 3.345-2.131 2.433-2.739 3.041-1.522 1.521-7.913-2.433-6.391-.304 1.217 1.521-.609 0 .304 1.521.913 1.52 1.826 2.129-.609 4.866-2.13 2.737-4.869 2.129-6.695 2.737-1.826.304-4.261-1.825-4.565-.608-.304 1.216-1.217 3.954-2.739 4.562-1.522.608-5.174 1.825-5.174 2.129 1.826 8.212 5.478 9.124 1.522 8.82-10.652-.913-3.043-3.65-10.348 11.861-1.217 2.433-2.13 1.217-2.13 3.954.304 2.737 0 4.866 1.522 6.691 1.521 1.825.608 1.521-2.131 3.954-2.434 2.433-2.739 2.129-5.173 5.474-2.435 3.65-4.565 3.346-3.652 6.083.913 2.737.913 6.691 2.434 10.645 1.522 3.953 4.261 3.345 8.826 6.082 4.565 2.738 5.174 1.217 7.304 2.129 2.131.609-1.521.913-5.478 1.521-3.956.608-6.695 1.521-9.434.912-2.739-.608-9.435-4.562-11.565-6.082-2.13-1.521-5.782-4.562-7.304-7.604-1.218-2.737-2.131-5.778-3.957-9.732-1.826-3.954-.608-6.387.305-14.903.608-8.516 1.217-15.207 2.434-19.769 1.218-4.562 4.87-24.939 6.087-30.413.913-5.171 5.783-26.764 6.087-30.11.304-3.345.609-6.082 1.522-9.428.608-3.345.304-10.341.304-10.645 0-.304-.304-.608-1.217-3.953-.913-3.346-2.739-4.562-5.174-5.779-2.435-1.521-4.869-3.041-6.695-4.562-1.827-1.217-3.957-3.041-6.087-5.475-1.826-2.433-3.652-6.995-4.565-9.124-.913-2.129-4.261-8.82-7.609-13.382-3.043-4.562-3.347-4.866-4.869-9.732-1.522-4.866 1.522-5.17 1.826-7.907.609-2.738 2.435-5.475 4.565-9.429 2.13-3.953 4.869-5.17 6.391-8.515 1.522-3.346.304-3.346-.304-6.996-.609-3.345.304-2.737-.913-4.562-.913-1.824-1.522-3.953-2.435-4.562-.913-.608-2.435-.912-3.043 0-.913.913-2.435 3.65-3.348 3.954-.913.304-1.217-.912-1.826-1.521-.609-.608-3.348-.608-3.956-1.216-.609-.608-1.826-.608-2.739-1.217-.913-.304-4.566-2.433-5.479-3.345-.913-.913-2.434-3.042-2.434-5.171 0-2.128-1.826-3.041-6.391-6.386-4.261-3.042-6.391-3.65-11.565-4.867-5.174-1.216-7.304-5.17-9.13-6.082-1.826-.913-1.522-2.129-5.478-1.825-3.957.304-8.522-1.825-11.565-3.041-3.043-1.217-8.217-2.129-10.652-3.65-2.13-1.521-6.087-2.129-7.913-5.475-1.826-3.649-1.521-2.128-.608-5.17.608-3.041-3.957-5.778-6.391-8.82-2.739-3.041-4.87-3.345-6.087-6.995-1.522-3.65-3.348-3.345-6.087-6.083-2.739-2.737-2.739-5.778-3.956-8.82-1.217-3.041-8.522-7.299-8.522-7.299s1.826 4.866 2.739 6.995c.914 2.129 2.74 6.691 5.174 10.341 2.131 3.65 4.261 4.562 6.391 7.907 2.131 3.65 0 5.779-.608 4.258-.609-1.52-3.652-2.129-3.652-3.649 0-1.521-.609-2.737-1.522-3.954-.609-1.217-3.652-2.737-6.391-5.17-2.739-2.129-4.87-3.346-3.044-3.346s4.261 1.521 3.957.608c-.609-.912-3.652-4.257-5.174-6.386-1.522-2.129-1.826-4.867-3.348-8.516-1.521-3.954-6.999-7.604-9.738-7.604-2.739-.304-3.348-1.52-4.261-4.258-.913-2.737-1.217-5.778-2.435-7.907-1.217-2.129-6.391-9.428-6.391-12.165 0-2.738-1.521-10.949.305-15.511 1.826-4.562 1.521-14.599 1.217-16.728-.304-2.129-3.652-5.778-3.652-7.299 0-1.521 1.826-.608 3.348-.304 1.521.304 4.565 1.824 4.565 1.824s-2.435-4.562-3.957-6.082c-1.521-1.521-5.782-3.65-7.913-3.954-1.826-.304-4.565-1.217-5.478-2.737-.913-1.521-2.13-3.954-3.043-5.171-.609-1.52-3.956-3.041-4.565-4.562-.609-1.52-.609-4.257-1.522-5.778s-2.434-2.433-4.26-1.825c-1.826.608-2.131-.912-3.652-3.041-1.218-2.129-4.261-3.346-5.174-3.346-.913-.304-3.652-3.954-3.957-5.17-.304-.913-4.869-6.083-6.39-6.995-1.522-.913-15.826-5.779-16.435-5.779-.304 0-4.565.608-5.782.304-1.218-.304-4.87-3.649-7-4.258-1.826-.608-3.348.913-4.26 3.042-.914 2.129-5.479 5.778-7.913 7.603-2.435 1.521-4.565 1.825-4.261.913.304-.913 0-2.129.913-4.258s1.217-2.738 3.956-3.954c2.74-1.217 2.435-1.521 1.522-1.217-.913 0-1.826-.304.304-1.52 2.13-1.217 2.74-1.521 2.74-2.433 0-.913-4.566 1.52-7.305 3.649s-4.565 3.954-7 7.908c-2.434 3.954.305 2.433-1.825 5.17s-9.13 7.908-10.957 10.037c-2.13 2.128-10.651 6.386-14 7.603-3.347.912-4.868 1.521-6.39 2.737-.304.304-4.26.913-3.044 0 1.522-.912 3.957-3.041 5.783-4.258 1.826-.912 6.39-3.041 7.913-3.345 1.521-.609 5.173-3.042 7.304-5.171 1.826-2.129 3.347-4.562 4.565-6.691 1.217-2.128 1.521-3.041-1.218-2.128-2.739.912-5.478.608-7 0-1.521-.609-5.173 1.52-6.39.608-1.218-.913 0-3.042-.61-3.954-.912-.912-3.651-.304-5.477-.608-1.826-.304-4.565-1.825-4.565-4.562 0-2.738-1.826-4.866-.913-6.995.913-2.129 2.434-2.434 4.26-3.65 1.827-1.217 6.392-2.737 7.305-2.737.913 0 2.13-.913 3.043-1.825.913-.913-1.826-3.954-1.826-3.954s.609-.304 1.522-.912c1.217-.609.304-2.129-1.826-1.825-1.826.304-6.087 2.129-8.826 3.041-2.74.609-6.087.304-6.087-.912 0-1.217.609-1.825-.304-2.737-.913-.913-1.826-1.825-.609-2.129.913-.304 6.696-3.65 6.696-3.65s2.13 2.129 4.26 2.433c2.13.304 7-3.954 7-3.954-3.043-1.824-2.435-2.433-2.435-2.433s-4.87 0-6.087-.912c-1.217-.608-1.521-2.129-1.825-3.346-.305-1.216-5.174-2.129-3.653-4.258 1.218-2.128 3.652-2.737 5.174-4.562 1.522-2.129 3.044-5.778 7.609-7.907 4.565-2.129 10.043-3.954 12.477-5.779 2.435-1.825 3.652 0 4.566.304.913.305 6.695-.304 8.825-.304 2.13 0 2.74 2.433 3.348 3.042.609.608 20.39 1.216 20.39 1.216s16.739.304 20.087 1.217c3.347.912 9.434 3.345 9.434 3.345 4.261 0 3.956-4.562 6.087-4.562zM328.77 35.605s-1.826 6.995-8.522 8.82c-6.695 1.825-19.173 7.3-19.477 7.604-.609.304.609 4.257 2.435 6.082 1.826 1.825 3.347 3.346 4.869 5.17 1.522 1.825 3.956 1.825 6.087 3.65 2.13 2.13 3.652 1.217 9.13 1.52 5.478 0 3.956.61 10.347.913 6.391.304 12.782.913 14.913 2.737 2.13 1.825 5.173 9.429 7.304 13.99 1.826 4.563 5.478 11.862 5.478 12.775 0 .608-2.131 6.082-2.131 6.995 0 .912 1.218 2.433 2.131 3.649.913 1.217.609 2.129.304 3.346-.304 1.216 1.218 3.954 1.218 4.258.304.304 3.043-2.738 4.869-3.346 1.826-.608 6.087 3.042 6.087 5.779 0 5.778 1.521 3.649-7.609 10.644-1.217.913-2.434 7.604-1.521 10.949.913 3.346 3.043 7.3 4.869 11.862 1.826 4.562 7 11.253 8.826 14.294 1.826 3.041 2.13 7.299 5.782 8.212 3.652.912 7.304 2.129 10.043 2.737 2.739.608 4.565 1.521 5.783-.912 1.217-2.434 3.956-12.166 6.086-18.857 2.131-6.995-.304-9.124 4.87-10.645 5.173-1.52 13.086-4.562 15.217-5.778 2.13-.913 1.826-7.908 6.391-10.037 4.869-2.129 5.478-2.129 10.043-3.649 4.565-1.521 11.26-4.562 15.825-7.604 4.565-3.345 6.087-1.52 7.609-4.562 1.826-3.041-1.826-7.603-2.131-11.861-.304-4.562 1.522-4.866 2.435-8.82.913-3.954 1.522-6.691 5.174-9.428 3.652-2.737 5.478-4.258 4.869-6.995-.609-2.738-2.435-6.387-2.435-9.429 0-2.737.609-1.216-.913-5.17-1.521-3.954-1.521-4.562 0-8.212 1.522-3.65 5.174-2.737 4.87-4.562-.305-1.52-6.087-4.257-6.087-8.82 0-4.562.913-6.082 1.826-6.995.913-1.216 10.347-8.82 10.956-9.428.609-.608-.304-2.737 4.565-4.866 4.565-2.129 6.391-3.65 7.913-4.562 1.826-.608 4.565-.608-.913-2.13-5.478-1.52-6.696-2.128-10.043-1.824-3.652.304-4.87 2.433-10.956 3.041-6.391.609-13.391 3.65-13.391 3.65s2.13-1.825.304-3.65c-1.826-1.824 4.87-7.907 6.087-8.515 1.217-.609-8.826-3.042-14-3.954-5.173-.912-15.216-3.954-20.999-3.65-5.782.304-14.304.304-17.043 1.217-3.043.912-2.434 4.562-5.782 4.866-3.348.304-9.434-1.825-13.999-1.217-4.566.609-12.174 3.954-13.087 3.954-.913.304 3.043 2.433 5.174 3.042 2.434.608 5.478 5.474 5.478 5.474s-6.391-2.129-13.087-3.954c-6.695-1.825-14.303 0-17.042.913-2.74.912-6.392 2.129-11.565 2.433-5.478.304-11.565 4.562-14.608 6.69-3.044 2.13-12.783 7.604-15.217 8.82-2.435 1.217-1.522 1.825 1.217 2.738 2.435.304 5.174.608 5.174.608zm-138.169 71.776c.609 3.042.609 7.604-.913 5.779-1.826-1.825-3.043-6.083-6.087-4.258-2.739 1.521-5.782 1.217-5.478.912.609-.304 0-2.129-1.521-2.737-1.522-.608-2.435.304-3.652 1.217-1.522.912-6.087 2.129-4.261.608 1.826-1.521 1.217-2.433.609-3.954-.609-1.825-5.479 1.217-8.218 3.042-2.739 1.824-4.26 4.562-5.782 6.691-1.522 1.824-.304 3.041 1.826 3.953 2.435.609 6.087 1.217 3.043 2.433-3.043 1.217-5.478 1.825-3.956 3.042 1.522.912 4.261 1.216 7.304.912 2.739-.304 5.174-1.216 9.739 0 4.565 1.217 7 1.217 7 1.217s-1.522.912-4.565 1.52c-3.044.609-8.522 0-11.261.609-2.739.608-7.304 1.216-6.087 2.433 1.218.912 2.131 2.737 5.783 3.954 3.956 1.216 4.565 0 6.695.608 2.435.608.913 3.041 1.826 3.649.609.305 4.87-.304 9.435-1.216 4.26-.913 2.739-1.521 6.086-2.433 3.348-.913 3.652-3.346 5.478-3.954 2.131-.608.609 1.217 3.044 1.825 2.434.608.913.608 3.652 1.216 2.435.305 2.13 1.521 4.565 1.217 2.435-.304 5.478-1.825 5.174-2.129-.305-.304-.609-.912-.609-2.129.304-1.216-2.435.304-3.348.912-.913.609-.913-1.52 1.218-2.737 2.13-.912 3.956 0 5.173 0 1.218 0 0-3.649-2.13-4.258-2.13-.608-3.348-1.825-6.695-3.953-3.348-1.825-1.522-2.738-2.739-5.171-.914-2.433-3.044-9.732-4.87-10.949-1.826-1.216-3.956-.912-5.782-2.129 0-.608-.305 1.217.304 4.258zm-51.433-4.866c.913 2.433.913.913-.608 3.346-1.522 2.433-.609 3.345-1.826 5.474-1.218 1.825-3.957 4.562-3.044 5.779.913 1.216 3.957 2.129 5.174 3.041 1.217.912 2.435 3.041 4.565 2.129 2.13-.608 3.043-1.217 4.565-2.129 1.522-.912 2.739-1.825 2.739-3.65 0-2.129 0-3.041.609-2.737.608.304 1.521 1.217 2.13-.304.609-1.217 1.217-3.041 2.435-4.258.913-.912 3.956-2.129 5.478-3.345 1.521-1.217 3.956-2.433 4.565-3.65.608-.912-1.218-1.825-2.435-2.433-1.217-.608-2.435-2.433-5.174-2.433-2.739 0-4.26 2.129-3.956 1.216 0-.912-1.826-1.52-3.043-1.825-1.218-.304-2.131-.912-5.783-.608-3.652.304-5.173.609-7.912 1.52-2.74.913.608 2.738 1.521 4.867zm80.954 27.676c-.305.609-2.131.913-3.044 2.129-.913 1.217 2.131.609 3.044.913.913.304 1.826 1.216 2.434 1.521.913.304 5.174.608 7-.305 1.826-.912 2.131-1.216 1.826-1.52-.304-.304-3.652-3.954-6.391-5.171-2.739-1.52-2.739-1.52-3.348-1.216-.304.304-1.217 3.345-1.521 3.649zm-11.869-27.068c-1.826.913-3.044 1.825 0 3.346 2.739 1.521 3.652 2.737 5.782 3.954 1.826 1.216 2.739 4.562 6.695 3.041 3.957-1.521 5.783-3.345 6.087-5.17.609-1.521-.609-1.825-1.522-3.346-.913-1.52-1.217-2.129-3.347-1.825-2.131.305-2.739.305-2.739.305s1.217-1.825 3.652-2.738c2.13-1.216.304-1.825 1.521-3.041.913-.912-2.739-1.52-4.26-1.217-1.522.305-1.826 0-4.261-.304-2.739 0-7 2.433-6.695 3.042.304.912 2.13.608 3.956 1.52 1.826.913 2.435.913.609 3.954-1.826 3.041-2.739-.608-3.348-1.216-.913-.305-.304-1.217-2.13-.305zm-11.87-5.17c-2.739.304-3.652 2.129-2.739 2.433.913.304 1.826-.304 3.348 1.521 1.826 1.825 3.043 2.737 3.957-.304.608-2.737-.305-4.258-4.566-3.65zm-45.041-22.506c-3.044 2.433-3.652 4.562-6.087 6.083-2.435 1.52-1.826 3.041-.913 3.65.913.912 3.348 0 4.261-.609 1.217-.608 2.13-2.129 2.739-1.216.608.912 3.652-3.042 4.565-4.258 1.217-1.217 2.739-2.738 3.043-2.433.304 0-1.217 1.52-.609 2.737.609 1.216 2.739 1.216 4.87-.913 2.13-2.129.304-3.953 1.826-5.474 1.521-1.52 2.739-1.52-.305-2.737-3.043-1.521-4.869.304-5.478.912-.608.608-1.826-.608-7.912 4.258zm18.869 3.954c-1.826 0-2.435.304-5.479 1.52-3.043 1.217-4.26 4.563-4.869 6.387-.609 1.825.304 1.825 3.043 2.737 2.739.913 6.392-.304 7.305-2.737.913-2.433 1.826.609 1.521 1.825-.608 1.217 1.826 0 3.044-.608 1.217-.608 4.565-.913 4.869-.913.304 0-2.739 2.13-5.782 3.346-3.044.912-5.174 1.52-6.087 1.52-.913 0 .608 1.217 4.261 2.13 3.347.608 5.478-2.13 10.347-3.954 4.869-1.825 4.565-2.13 6.391-1.825 1.522.608 3.348-.912 5.478-1.216 2.13-.609 2.739.304 3.652-2.738.913-3.041 2.435-5.778-.304-6.082-2.739-.305-3.044-.305-3.348 3.04-.304 3.042-.609 1.217-.609 1.217s-1.826-2.737-3.043-4.257c-1.217-1.521-1.826-3.65-3.043-4.867-1.218-1.216-1.826.609-3.652 2.738s-.305 3.04 1.521 3.953c1.826.913 3.348 3.346 2.435 3.954-.913.608-2.13 0-5.478.304-3.652.304-3.348-1.216-4.565-1.52-.913-.609 1.826-1.521-2.13-3.042-4.261-1.216-3.957-.912-5.478-.912zm-11.261 3.041c.304-.608-4.869 3.042-5.478 4.258-.913 1.217.913.912 2.435.912 1.217 0 1.521-3.04 3.043-5.17zm9.739-7.603c-1.217.608-1.218.912.913 1.216 2.13.304 3.348-.608 2.739-1.52-.304-.913-2.739-.304-3.652.304zm10.652-10.95c-1.218.305-5.478 1.521-5.783 2.434-.304.608 0 2.129.609 3.345.609 1.217.913 1.217 4.261.305 3.347-.913 5.782-2.738 4.869-3.042-1.217-.304-1.826-.912-2.739-.912-.913 0 .913-.609 3.348-1.52 2.13-.61 2.739-1.826-4.565-.61zm-11.87 1.826c-.913.304-1.217.608.609 1.216 2.131.913 4.261.609 3.957 0 0-.608-1.826-2.737-4.566-1.216zm7.913-5.779c-1.826.913-2.434 2.129-2.739 2.737-.304.609 2.131-.304 3.348-.608s1.522.304 2.739-.608c1.217-.913 3.652 0 5.782-.304 2.131-.609 2.435-1.825 2.131-3.042-.609-1.52-5.478-.304-11.261 1.825zm21.304 5.17c-.609.305-.305 1.217 0 2.13.608 1.216.608.912 1.521 1.216.913.304 2.131 1.216 2.435 1.52.305.305.304.305.913-.608.305-.912-.304-.912-1.522-2.129-.913-1.52-1.826-2.737-3.347-2.129zm7 9.125c-1.522-.305-2.435.608-3.044.912-.608.304.305.912.609 2.129.304 1.216 0 1.52 2.435 1.825 2.434.304 3.043-.304 3.347-1.825.305-1.52-1.826-2.737-3.347-3.041zm9.13 2.737c-1.522-1.217-2.131-1.825-3.652-1.217-1.522.608-.305 1.217-.305 1.825 0 .304 1.826 0 1.826.912 0 .913.609 1.521-1.521 1.521-2.131 0-2.739 0-3.652.608-.913.609 1.521 0 2.434.913.609.912 2.131 1.216 3.957.912 2.13-.304 4.869-.912 4.869-.912s-1.522 1.52-2.13 2.433c-.609.912-.913 2.433.304 3.041 1.217.608 1.217-.608 4.261-.912 3.043 0 3.956-1.52 3.956-1.52s-.609-.61-.609-2.13v-1.825s1.218.913 1.522 1.217c0 0-.304-.913-.609-2.433-.304-1.52 0-1.825-.608-3.954-.609-2.129-.305-2.737-2.739-2.737-2.131 0-3.957.912-5.783.912-1.826 0-2.739.304-1.217.913 1.217.608 1.522 1.52 2.13 2.433.609.912.609 2.737.609 2.433.304 0-3.043-2.433-3.043-2.433zm-11.261 8.211c-.913.609-1.217 1.521-1.522 2.433 0 .609 1.218.305 3.348-.304 2.131-.912 1.218-3.041-1.826-2.129zm29.521-3.953c-1.826.912-3.044 2.129-4.261 3.345-.913 1.217 0 1.217 2.435 2.433 2.435 1.217 5.478 1.52 6.695.304 1.218-1.216-.608-8.516-4.869-6.082zm11.869-10.037c-3.348.304-2.435.913-6.087-.304-3.956-1.52-8.521-1.52-10.043-1.52-1.217 0-.609.608.609 2.737 1.217 2.129 1.826 3.04 4.565 2.433 2.739-.609 5.174-1.217 7 1.824 2.13 3.042 3.043 3.954 1.521 4.867-1.826 1.216-.913 2.737 0 5.17.913 2.129 3.348 2.129 6.391 2.129 3.044 0 22.826-.304 25.869-.913 3.043-.608 5.782-3.04 7.608-4.257 1.522-1.217 2.435-3.042.305-4.258-2.131-1.217-5.478-2.738-7.913-2.738-2.435 0-4.565 1.217-8.521 1.825-3.957.304-3.044 2.13-6.392 2.433-3.347 0-1.826 1.521-6.086 0-4.261-1.825-7.304-3.953-5.478-4.258 2.13-.304 3.652-.608 2.434-1.52-.608-1.52-2.739-3.954-5.782-3.65zm-39.564-16.12c2.131.61 2.435 1.217.305 1.826-2.435.608-3.957 2.129-1.826 1.824 2.13-.304 4.26.305 7.304.609 3.043.608 2.739.304 3.956 1.825 1.217 1.52 2.739 1.52 4.565 1.216 2.13-.608 2.13-.608.913-2.129-1.217-1.52-2.739-3.954-4.565-5.17-1.826-.913-3.348-2.433-5.174-2.433-1.826.304-2.13.304-3.652-1.825-1.521-2.129-2.739-1.216-4.869-.608-2.131.608-3.044 2.129-3.957 2.737-1.217 1.825 4.87 1.216 7 2.129zm26.782-21.289c-2.435 3.042-4.261 5.475-1.522 5.779 2.739.304 3.957-.304 4.261.608.304.913-.609 1.52-4.565 1.52-3.957 0-2.739.913-.609 3.65 2.435 2.738 2.435 1.825 6.087 1.825 3.652 0 4.565-1.216 7.608-.608 2.739.608 3.652 1.52 1.218 2.129-2.739.913-8.826 2.129-7.304 3.65 1.521 1.216 5.782 4.562 7.608 4.866 1.826.304 2.435-1.217 6.695-.913 4.261.609 3.348.913 3.652-.304.609-1.216 2.739-4.258 3.348-5.17.609-1.217 1.522-1.825 3.956-2.433 2.435-.608 3.044-1.217.913-2.129-2.13-.913-4.565-1.217-4.565-1.825.305-.608 1.522-2.433.609-3.345-.913-.913-2.435-.913-3.652-1.217-1.217-.608-2.435-2.737-3.956-3.65-1.522-.912-2.739-.912-4.87-2.433-1.826-1.52-4.869-4.866-8.521-4.866-2.739.304-3.956 1.825-6.391 4.866zM225.6 59.024c-.913.608-3.348.608-1.522 2.129 1.826 1.52 1.217 1.52 3.348.608 2.13-.913 5.478-2.737 5.782-3.346.305-.608-2.13-1.824-3.956-2.433-1.522-.608-2.739-1.825-6.391-2.737-5.174-1.52 3.652 5.474 2.739 5.779zM339.726 14.01c-3.956-.912-17.652-3.65-22.217-2.737-4.565.913-4.26-2.433-10.347-1.52-6.087.912-15.826.304-18.869.912-3.043.608 1.522 1.825 3.043 2.737 1.522.913-7.608-1.216-14.912.913-7 1.824-11.565 3.041-3.956 5.778 7.608 3.042 8.521 3.65 8.521 3.65s-9.739-1.825-13.695-3.346c-4.261-1.52-1.826-1.52-9.435.609-7.608 2.129-15.216 3.345-14.912 5.778.304 2.433 6.087 5.475 10.043 6.387 3.956.913 11.869-1.216 12.478-1.52.609-.305-3.044 3.04-3.044 3.04s3.957-.912 8.522-1.824c4.565-1.217 7.913-2.433 12.173-3.954 4.261-1.52 4.87-1.825 4.87-1.825s-7.304 5.779-12.478 7.604c-5.174 1.825-11.565 3.345-14.913 3.345-3.043 0-2.739 2.13.609 3.65 3.044 1.52 5.478 5.17 7 6.387 1.522 1.216 1.826 3.041 1.826 3.041s-4.869-3.954-10.348 0c-5.478 3.954-4.565 5.779-3.347 6.387 1.217.608 6.086.912 6.999 2.433.914 1.52 7-1.52 7-1.52s-3.043 3.953-6.086 3.953c-3.044 0-2.74-2.433-7.305-2.129-4.26.608-3.956 1.52-2.13 3.042 1.826 1.52 3.348 1.824 0 3.345-3.348 1.52-4.869 1.825-4.869 3.954 0 1.825 4.26 1.825 6.999 1.825s5.478-.305 10.348-.305c4.869 0 4.261-1.824 6.087-1.824 1.826 0 3.652.608 3.043 2.433-.609 1.825.609.608 6.087-1.217 5.478-1.825 3.043-4.866 2.739-6.082-.305-.913-2.435-1.521-3.652-1.825-1.218-.609 3.652-5.779 3.043-7.3-.609-1.824 6.087-.304 9.13-4.258 3.044-3.953 2.131-6.995-.304-7.907-2.131-.608 3.956-.304 6.087-1.52 2.13-1.217 6.391-2.434 8.217-4.867 1.826-2.129 2.434-3.041-1.826-2.433-4.261.608 6.086-1.825 10.956-5.17 4.869-3.346 10.652-6.995 11.869-7.908 1.217-.912 2.435-.608-3.348 0-5.782.304-12.782-.608-8.826-.912 3.957-.608 15.217-1.825 18.261-3.954 3.347-2.737 4.869-3.345 4.869-3.345zm-69.693 80.292c-6.087-.608-15.217-2.129-17.043 3.346-1.826 5.474-4.869 17.032-4.869 19.465-.305 2.129 7.608 5.474 12.782 5.778 5.478.304 13.999.609 12.173-.608-1.826-1.217-.304-1.825 4.87-1.825 4.869.304 5.478-.912 5.478-2.129 0-.912.913 1.217 4.26 3.042 3.348 1.824 6.391 6.995 9.435 10.036 3.043 3.041 10.043 6.995 8.826 9.428-1.522 2.433 1.521 10.341-9.13 12.166-10.652 1.825-11.261.608-11.261 3.041s.609 3.346 4.869 3.346c4.261 0 10.044-3.346 12.174-.913 2.13 2.433 4.869 3.346 6.391 3.954 1.826.608-2.13 1.521-3.043 1.825-.913.304 2.13.608 8.217 3.649 6.086 3.042 13.391 3.346 9.738 1.217-3.652-2.129-5.478-5.779-6.999-7.299-1.522-1.217 0-.304 2.739.608 2.739.608 5.478 3.041 6.695 3.954 1.217.912 1.826-.304 2.739-4.258.913-3.954-.304-3.954-5.174-7.299-4.869-3.346-6.391-5.779-6.695-8.212-.609-2.433 2.435-2.737 3.652-4.258s4.869 3.041 7 5.474c2.434 2.738 4.261 7.3 6.087 3.954 1.826-3.345 3.652-10.949 3.652-12.469 0-1.825-1.826 0-9.739-3.954s-12.174-5.475-12.782-5.475c-.609 0 2.13-1.52 5.478-3.345 3.347-1.825 4.869-1.521-2.435-8.516-7.608-6.995-9.434-8.516-14.304-9.124-4.869-.608-6.086-5.474-9.739-7.299-3.347-1.825-11.564 2.129-13.999 2.737-2.435.608-1.522 1.521-4.565-2.737a185.482 185.482 0 00-5.478-7.3zm5.478 0c-3.043.305 1.826 6.083 5.782 6.387 3.957.304 7.304-1.825 8.217-1.825.913-.608-9.13-5.17-13.999-4.562zm-14 57.482c-.608 1.217-1.826 4.866-1.826 6.995-.304 2.433-.608 2.737-.913 4.258-.608 1.521 1.522-.304 2.739 1.825 1.218 2.129.609 2.737 3.044.304 2.435-2.433 4.869-3.345 8.217-2.433 3.348.912 5.782 1.521 4.565-.608-1.217-2.129-2.739-1.825-4.869-4.562-2.131-2.737-3.957-3.346-6.696-4.562-2.739-.609-3.043-3.954-4.261-1.217zm23.434 202.555c-.913-2.129-2.434-5.171-8.521-6.387-6.087-1.217-8.217 1.216-10.347 1.825-2.131.608 2.13 1.216 4.869 0 2.739-1.217 5.174-.304 5.478.304.304.608-.913.912-1.522.304-.608-.608-.608 1.216 2.739 2.433 3.348 1.217 3.957 1.825 4.261 3.041.304 1.521.304 2.129.913 3.346.609 1.216.913 1.521-.304 2.129-1.522.608-.913.304 0 .912.913.609 3.043 1.521 5.782 1.825 2.739.304 3.652.913 1.826-1.825-1.217-2.129-4.869-7.299-5.174-7.907zm9.13 12.773c1.522 1.521 1.218 3.346.913 4.258 0 .913-1.826.304-4.869-.608-3.043-.912-2.739-.304 0 .912 2.739 1.521 4.565 1.217 4.261 3.042 0 1.825 2.435.304 3.652-.913 1.217-1.216 1.217 0 5.782.609 4.87.608 5.783 1.52 5.174-.609-.913-2.129 2.13-1.824-2.13-3.953-3.957-1.825-14.609-4.562-12.783-2.738zm-13.695 1.217c-1.826-2.129-3.956-2.433-3.956-.608 0 1.825.609 1.52 2.435 2.129 1.521.608 2.739-.304 1.521-1.521zm34.999 8.82c-1.826-.608-2.435.912-1.217 2.129 1.217 1.216 3.347.912 5.173.608 2.435 0-.608-1.521-3.956-2.737zm-22.521-242.396c-2.739 1.216-4.261 1.824-1.826 4.866 2.435 3.041 3.652 4.866 4.565 2.737.609-2.129 1.522-9.428-2.739-7.603zm-20.999 32.238c-3.956.608-5.174.608-4.565 3.041.609 2.129 1.826 1.825 4.261.609 2.739-1.521 4.565-4.258.304-3.65zm8.217 3.345c-.609.305-.913 1.825 0 3.042.913 1.52 2.435-.608 3.348-2.129.608-1.521-.913-1.521-3.348-.913zM236.86 63.586c-3.652 0-9.434 1.52-6.087 1.52 3.044 0 5.783.609 10.652.305 5.174-.305 5.478-.609 5.783-3.042 0-2.433-3.348.913-10.348 1.217zm-23.129-20.377c-3.957 1.216-2.739 1.824 1.521 3.953 4.565 1.825 4.565.913 3.957-2.737-.305-3.65-3.348-2.129-5.478-1.216zm265.685 96.715c-4.565 1.216-6.391.608-7.304 3.041-.913 2.433-2.739 1.217-3.956 1.521-.913.304-2.435 6.995-3.348 6.083-.608-.913-.913-1.521-2.13-3.954-1.217-2.433.304-1.825-1.826-4.258-2.131-2.433-6.087-2.129-6.391-1.217-.305.913 2.739 1.825 1.826 3.042-1.218 1.216-3.652 2.433-4.565 3.345-.913.913 1.826.304 3.652 0s3.043 1.217 3.652 2.433c.609 1.217-.913 2.433-1.522 3.042-.608.608 2.435.304 3.957.608 1.521.304 2.13 1.217 1.217 2.737-.913 1.521 3.956.304 6.695 0 2.739-.304 3.348 1.825 7.609.608 3.956-1.216 6.086-1.216 9.738-3.953 3.653-2.738 3.348-2.129 5.783-3.954 2.435-1.825 1.826-2.433 1.826-4.258 0-1.825 1.522.608.913-2.433s-3.652-2.129-5.782-2.433c-2.131-.304-2.131-1.825-3.044-2.433-.913-.304-2.13 1.216-7 2.433zM794.1 394.79c-.304.608-.608 1.52-.608 3.041s-.305 3.346 0 4.866c0 1.521.304 2.738 1.217 3.042.913.304 1.522.608 3.043 0 1.522-.609 2.739-1.825 2.131-3.65-.609-1.825-2.131-4.258-2.739-5.474-1.218-1.217-2.435-3.042-3.044-1.825zm-.913-2.129c.305.608.305.608.609.912.304.609.609 0 .304-.608l-.304-.608s-.913 0-.609.304zM927.4 485.118c-2.739 2.737-5.174 2.129-9.435 3.346-4.565 1.52-12.173 5.778-12.782 7.907-.609 2.129 0 2.129-.609 2.129-.608-.304-1.521-1.52-1.521-1.52s-1.218 2.433-.913 4.562c.304 2.129 1.217 3.345 1.217 6.386 0 2.738-1.217 4.562-.913 6.387 0 1.825 3.348 5.475 3.956 7.908.913 2.129 1.522 1.52 1.826 5.778.609 3.954 2.739 6.387.609 8.516-2.13 2.129-3.652 1.825-1.217 3.954 2.739 2.129 4.869 3.65 8.826 2.129 4.26-1.521 3.043-2.737 6.391-3.346 3.347-.608 3.956-1.52 6.695-1.52 2.739-.304 4.869 0 5.782-1.825.913-2.129.305-1.825 3.044-3.346 2.739-1.52 2.434-1.824 4.261-2.129 1.826-.304 3.043.913 5.478-.912 2.434-2.129.608-2.129 6.391-2.129 5.478 0 7.912.913 10.043 1.521 2.13.608 5.478 2.433 6.391 3.954.913 1.216 1.826 2.737 2.434 2.737.305 0 .913 0 2.131-1.217 1.217-1.216 5.174-3.954 5.174-3.954s-.305 2.738-.913 3.954c-.913.913-.913 2.433-.913 3.042 0 .608 2.13-1.521 2.434-1.825.305 0 .609 3.954.913 4.258.305.304 1.218.304 1.826 1.216.913 1.217 1.826 2.129 2.739 4.258.913 2.129 4.261 4.258 6.696 4.562 2.13.304 4.26.304 5.782 0 1.827-.304 1.827-2.129 3.657-1.521 1.82.913 0 2.434 3.95 2.129 4.26-.304 5.18-1.824 7-2.737 1.52-1.216 1.83 1.521 3.96-1.52 2.13-3.042 2.43-2.129 2.74-5.779.3-3.65.3-4.258 2.43-7.603 2.13-3.346 2.44-1.825 3.96-6.691 1.52-4.867 3.04-9.733 3.04-13.687-.3-3.953 0-1.52-.91-6.082-.91-4.562-.31-3.954-3.35-6.083-3.04-1.825-3.65-1.521-4.56-3.954-.61-2.737.3-3.345-1.22-3.345s-2.74.608-3.35-1.217c-.91-1.825-.61-2.433-2.43-4.258-1.53-1.825-3.05-1.52-6.09-2.737-3.04-1.216-1.52-1.521-1.52-3.954 0-2.129.3-4.562-2.13-5.778-2.44-.913-.92.608-.92-3.042 0-3.649 0-3.041-1.82-3.953-1.828-.609-2.437-.609-3.654-2.738-1.218-2.129-2.739-6.082-3.348-7.603s-1.217.304-2.13 1.217c-.609 1.216-1.826 3.649-1.826 5.778 0 2.129.913 3.65.913 6.387 0 3.041-2.131 6.083-3.348 7.907-1.217 1.825-2.435.305-3.348-.304-1.217-.608-1.217-2.129-3.652-3.345-2.434-1.217-6.695-2.129-8.825-3.954-2.131-1.825-.609-1.825 0-3.65.608-1.824 1.521-3.345 3.043-4.562 1.522-1.216.913-1.824-.913-2.737-1.826-.912-4.565-1.216-7.609-1.216-3.043 0-5.173-.305-4.869 1.52.304 1.825 2.13 2.433-.609 1.825-2.739-.608-4.869-.608-6.086.608-1.218 1.217-1.522 2.129-2.131 4.867-.608 2.737.305 3.041-.913 3.041-1.217 0-5.478-2.129-6.999-2.737-1.522-.609-2.435-.609-3.957.912-1.826 1.521-7.913 6.995-10.043 8.212-1.826.912-1.826.608-3.956 7.603zm-83.084-78.163c-1.218-.304-2.131-.608-.305 1.521 1.522 2.129 2.131 2.433 3.653 3.954 1.521 1.52 2.13-.913 3.347 1.825 1.218 2.737.609 2.737 1.826 3.953 1.218.913 2.131 1.217 2.435 2.433.304.913.609 2.738 2.13 3.954 1.522 1.217 1.522.913 2.131 3.346.913 2.129 2.13 3.953 2.739 5.778.608 1.825 4.26 3.65 6.086 6.083 1.826 2.433 4.87 5.778 5.478 4.866.609-.912 1.826 0 2.739-.304.913-.304 1.218-1.825 1.826-4.866.609-3.346-.608-4.866-1.521-5.475-.913-.608-2.435-.912-3.044-1.52-.304-.609-1.217-3.042-2.13-3.954-.913-.608-1.217 0-1.217-1.825s1.217-1.825-.305-2.737c-1.521-.913-1.826-1.825-2.13-2.433-.609-.609-3.956-1.217-4.869-2.129-.913-.913-4.565-2.737-6.391-4.258-1.826-1.825-3.652-3.041-4.261-4.258-.609-2.129-2.435-3.345-8.217-3.954zm36.216 37.409c-1.522 0-2.13-.912-3.348.912-.913 1.825-.913 1.825.609 1.825 1.521 0 1.217.913 1.217.913 0 .304-.608-.305 2.435 1.216 3.043 1.217 5.478.608 6.391.304.913-.608 1.217 1.217 5.478 1.825 4.261.608 6.695-.304 9.434.304 2.739.608 2.131-.304 0-1.825-2.13-1.52-1.826-.608-3.652-2.129-1.826-1.52-4.869-1.52-6.086-1.824-1.218-.304 1.217 1.52-2.739.912-3.957-.608-2.435.304-4.565-.912-2.131-1.217-2.131-1.521-3.348-1.825-1.522-.304-1.826.304-1.826.304zm31.651 6.387c-1.217.304-3.348.912-2.435 1.52.913.609.305.609 3.652.609 3.348-.304 6.087-.608 6.696-1.521.304-.608-.609-.304-1.826-.608-1.218-.304-1.218.304-3.044.608-2.13 0-3.043-.608-3.043-.608zm11.565-.304c-2.131.304-1.826.608-.305 1.216 1.826.608 3.348.609 4.565.304 1.218-.304 1.522-.608 3.957-1.216 2.434-.304 3.347-.304 5.173-.608l1.826-.305s-.304-.304-1.521-.304h-3.652c-1.218 0-3.652 1.217-4.565 1.217-.913 0-2.739-.608-3.044-.304 0 .608 0-.304-2.434 0zm12.477 2.737c-1.521 1.216-1.826 1.521-1.521 2.129 0 .912-.305 1.216-.305 1.216s2.131 0 3.957-1.824c1.826-1.825 1.826-1.825 3.652-2.434 1.826-.608 3.652-2.433 3.652-2.433s-1.522.305-3.043.305c-1.522 0-3.044.912-3.653 1.216-.304.304.914.608-2.739 1.825zm-13.086.912c-1.522-1.216-3.043-.912-3.348-.304 0 .608-1.521.608.913 1.521 2.435.912 4.565 1.825 4.261.912 0-1.216-1.217-1.52-1.826-2.129zm-14.913-48.357c-.913 1.216.914.912-.608 2.129-1.218 1.216-2.435.608-3.652 2.433-1.218 1.825-3.348 3.041-4.261 3.649-.913.609-3.652 1.521-4.869 3.042-1.218 1.825.304 2.737.304 2.737s-.609.304-2.739-.304-2.13-1.825-2.13-1.825-1.522 0-2.131 2.129c-.913 2.129-1.217 2.433.305 3.65 1.521 1.216-.913 1.216-.609 2.129.304.912.304 2.433 1.217 2.737.913.304.913-.913 2.131.608.913 1.217.304 5.17 1.521 5.17 1.218.304 2.435-.304 3.652 0 1.218.609 2.131.913 3.652.609 1.522-.609 3.348 0 3.957.608.913.608 3.652 1.521 5.174 1.216 1.521 0 1.521.305 1.825-1.824.305-2.129 0-3.954 1.827-5.475 1.826-1.521 1.826-1.521 1.826-3.041 0-1.521 0-3.042 1.217-4.562.913-1.521 1.826.912 2.13-.304.609-1.217 1.218-1.217.913-1.825-.304-.608-1.826-.608-2.434-1.825-.609-1.217.304-1.825-.609-3.954-.609-2.129-1.217-1.52 0-2.737.913-1.217 1.826-1.521 2.13-2.433 0-.912.609-.912 1.826-1.825 1.218-.912-.304-.608-1.521-1.521-1.218-.912-3.652-4.257-4.87-4.257-1.217.304-4.26 3.649-5.174 4.866zM1092.05 528.61c-.61-.305-1.22 0 .3 1.52 1.22 1.521 1.52 1.217 2.43 1.217.92 0 1.53 3.345 2.14 3.954.6.912 1.52 1.824 1.52 1.824s.61 3.346 0 5.171c-.31 1.52-1.22 2.129-1.52 3.649-.31 1.521 1.52.913 2.43 1.521 1.22.608.91.608.61 1.825-.31 1.216-1.83 1.825-1.83 2.129 0 .304 2.44 1.825 3.96 0 1.22-1.521 3.35-3.954 3.96-5.475.6-1.824-.92-.912.91-2.129 1.82-1.216 1.52-.608 2.43-2.128.92-1.521 1.83-3.042.92-3.954-.92-.913-2.13.912-3.05 1.216-.91.304-1.52.304-3.04-.304-1.22-.608-1.52-.608-2.13-1.825-.61-1.216-1.22-1.824-1.22-1.824s-.3 1.824-1.22 1.216c-.91-.608-.6-1.217-1.52-2.433-.61-1.217-.61-1.521-1.21-2.129-.31-.912 0-2.433-2.14-2.737-2.43.304-2.13.304-2.73-.304zm.3 20.985s-1.83 1.521-3.35 3.65-1.82 3.041-2.43 4.258c-.61 1.216-2.44 2.433-5.18 4.257-3.04 1.521-3.95 2.129-5.17 3.65-.91 1.521-4.56 6.083-4.87 6.387-.3.608 1.52.912 3.96.912 2.13 0 5.48 1.825 7.3 0 1.83-2.129 3.65-6.691 4.87-8.515 1.22-1.825 2.44-2.434 4.26-3.954 1.83-1.825 4.87-4.866 4.87-6.083 0-1.217-.91-3.041-.91-3.041s-.61 1.216-2.44 1.216c-1.21-.608-.91-2.737-.91-2.737zm-14.61 22.506c-2.13-1.216-2.74.912-3.04 3.346-.31 2.129.91.304 2.74-.609 2.13-1.216 1.21-2.433.3-2.737zm-73.95-15.207c-2.44-.912-2.13 1.521-1.83 3.346.31 1.825.92 3.041 1.83 4.562.91 1.52 4.26 1.825 5.78 1.216 1.22-.608 2.44-2.737 3.65-4.866 1.52-2.129 2.13-4.258 1.83-5.474-.31-1.217-2.13 1.216-3.04 1.52-1.22.609-2.74 1.825-4.87 1.217-1.83-.608-2.44-1.217-3.35-1.521zm-31.044-124.391c-2.131.608-3.044-1.217-4.565-4.562-1.522-3.346-2.739-3.954-7-2.433-3.956 1.52-3.348 1.216-.609 2.128 2.739.913 3.044 1.521 3.348 1.521.304 0 4.261.608 3.348 1.217-.913.608-4.565 1.216-2.131 2.737 2.435 1.521 1.522.608 7.609 3.65 6.087 3.041 7.304.912 9.13 4.866 2.13 3.953 2.13 3.345.304 4.258-1.521.912-3.652 2.129-2.739 2.129.913 0 2.435.608 6.696.608 4.26.304.304 2.737 4.869 2.737 4.869 0 6.087-1.521 7.913-3.65 1.821-2.128 2.131-.912 6.091 0 3.95.913 5.47 4.258 10.34 5.779s7 3.346 3.96.304c-3.04-3.041-4.26-4.866-8.52-8.212-4.26-3.345-4.57-3.649-5.78-6.386-1.22-2.433-5.483-5.475-10.352-7.604-4.869-1.825-7.608-2.129-13.391-3.954-5.478-1.216-6.391 4.563-8.521 4.867zm-32.564-11.557c-1.826 1.216-2.131.608-3.348-.305-1.522-.912-.913 1.825-3.956.305-3.044-1.521-4.261-2.129-7.609.304-3.347 2.433-1.217 3.345-1.217 5.17 0 1.825-2.739 6.691-3.652 8.516-.913 1.825-.913 2.433-.304 3.649.913 1.217 1.826.609 2.434 1.217.609.608 0 5.17-.608 6.691-.609 1.521 1.217 1.825 3.347 1.216 1.826-.304.305-.608.305-2.129 0-1.52.913-2.433.913-5.17v-4.258s.608-.304 1.217.609c.609.912 1.826 3.953 2.435 5.17.913 1.521 1.826 2.433 3.043 1.521 1.217-.913 2.435-2.129 2.435-2.129s-2.435-.913-2.435-1.521c0-.912 1.217-1.521-.609-4.562-1.826-2.737-2.739-3.041-.608-3.041 2.13 0 2.13-2.434 3.347-3.042 1.218-.608 3.044-.304 3.044-.304s-1.218-1.521-3.348-.912c-2.13.608-3.652.912-5.478 1.824-1.826.913-3.043 1.521-3.348-.304-.304-1.825-.608-2.129-.304-4.562.304-2.433 3.043-.608 4.869-1.216 2.131-.609 2.131-.304 6.391 0 4.261.304 4.87-.609 6.087-2.433 1.218-1.825 2.131-3.954 2.131-3.954s-3.348 2.433-5.174 3.65zm10.347-6.387c.305-.609-3.347 2.433-3.956 3.041-.609.608 0 1.521.609 2.433.608.912.304 4.258.608 4.866.305.609 2.131 1.217 2.131 1.217s0-2.129.608-3.042c.609-.912 0-2.129 0-3.953-.304-1.521-1.217-2.433 0-4.562zm-7 19.16c-2.739-1.216-3.956-.304-3.956 1.217 0 1.52-.304 2.129 2.739 2.129 3.044 0 6.391-1.521 1.217-3.346zm5.479-.912c-.609.304-1.522 2.433-.913 3.649.304 1.217.913.305 2.434 0 1.522-.304 1.218-1.52 3.348-1.824 2.13 0 6.087 1.52 6.087 1.52s.913-.912-2.435-3.041c-3.043-1.825-4.565-1.521-8.521-.304zm-56.911-73.601h-3.348c-.304 0-1.522 1.216-2.13 1.521-.609.304-.609.912-.305 2.129.609 1.216 1.218 1.216 2.739 1.52 1.522.304.913-.608 1.826-.912.913-.304 1.218-1.217 1.522-2.129.304-.913.913-1.217 1.217-1.521.305-.304-.913-1.216-.913-1.216l-.608.608zm33.781 3.954c-1.217-.913-1.826 2.129-2.13 3.649-.305 1.521-.609 2.433 0 3.65.608 1.216.304 1.521.304 1.521l-1.522-1.217s-.304 1.521-.304 2.737c0 1.217-.609 1.825 1.217 2.738 1.826.912 2.435.304 2.739 1.824.305 1.217.305 1.825 1.522 2.129 1.217.304 2.739.609 3.043 1.521.609.912.305-2.129 1.218-1.825.913.304 1.826 1.217 2.434 2.129.609.913 1.522.913 1.522.913s-1.522-2.434-.913-2.738c.609-.304.913-.608-.913-1.52-1.522-.913-3.043-.609-4.261-.913-1.217-.304-1.217.913-2.13-1.52-.913-2.434-.304-3.954-.304-4.563 0-.608.608.913 1.521-.912.609-1.825.913-3.041.913-4.562 0-1.521 1.218-2.129.305-2.433-.913-.304-3.652-.304-4.261-.608zm14.912 31.022c.305 1.216-1.217-.305-1.521.304-.609.608-.609.608-1.522.912-.913.304-2.739 2.129-2.739 2.129v-1.521c0-.304-.609-1.52-1.217-.608-.609.912-1.218 1.521-2.435 2.129-1.217.608-2.13 1.521-2.13 2.737-.305 1.217.913 1.217.913 1.217s.608-.304 1.521-1.825c.913-1.217.913-1.217 2.435-1.521 1.522-.304 1.522-.304 1.826.609.609.912 0 2.129.304 3.041 0 .912 0 2.129 1.522 2.737 1.522.608.913 0 2.435 0 1.521 0 1.521 0 1.217-.912-.304-.609-.609-1.521-.609-2.129 0-.913.914-1.217 1.218-1.521.304-.304.608.913.913 1.825.304 1.216.609.912.913.304.304-.912.608-2.737.608-3.954-.304-.912-.304-1.825-.304-2.737 0-.912-.608-1.825-1.217-2.129-.305-.304-1.826-1.521-1.826-1.521s-.609 1.217-.305 2.434zm-7.304-6.996s0-.608-1.217-2.129c-1.217-1.216-1.522-1.824-3.348-2.128-2.13-.305-4.26.304-3.347 2.433.913 2.129 1.217 2.433 2.739 2.737 1.826.304 2.739-.608 2.739-.608s0 .304-1.522 1.52c-1.522.913-1.826 3.042-.609 3.65 1.218.912 1.218 1.825 2.131 1.216.608-.608 1.217-2.737 2.739-3.953 1.521-1.521 1.521-1.521 1.826-3.042.304-1.52 0-2.737 0-2.737l-2.131 3.041zm3.652-4.257c-.304.304-1.217 0 0 .912 1.218 1.216 2.131 1.216 2.131 2.129 0 .912 0 .912-.609.912s-.913-.304-1.217-.304c-.305 0-.305.608 0 .913.304.608 0 0 .608.912.609.912.305 1.216.609 2.129.304.912.609.608.609.608v-2.737c0-.608-.305-1.521.608-1.217.913.305.609 1.825.913.305.609-1.217.305-2.434 0-3.346-.304-.912-.913-1.216-2.13-1.216h-1.522zm-16.129 3.953c-.609 0-.609.609-.913 2.129-.305 1.521-1.218 2.433-2.131 3.346-.913.912-3.652 3.345-3.652 3.953 0 .609-.304.305 1.826-.608 1.826-.912 3.348-2.129 3.652-3.345.305-1.217-.304-.609 1.522-1.217 1.826-.912.913-.912.913-2.433-.304-1.216-.304-2.129-1.217-1.825zm102.861 47.445c-.3 1.521.61 2.129-.91 3.346s-3.04 1.217-4.87 1.521c-1.52.304-.3-.304-2.43-.304-1.83 0-2.44 0-1.52 1.216.91.912.6 1.825 3.65 1.825 3.04 0 5.17-1.825 7-2.129 1.82-.608 1.82-2.129 1.82-2.737.31-1.217-2.43-4.562-2.74-2.738zm8.22 3.346c.91 1.217.61.912 1.52 2.433.92 1.521 2.74 1.825 3.96 2.129 1.22.304 0-.304-.91-1.521-.92-1.216-.92-1.824-2.44-3.041-1.52-1.217-3.65-1.825-2.13 0zm-104.995-97.324c-3.956 2.434-5.782 2.434-4.26 5.475 1.521 3.345 2.434 4.562 2.739 5.17.304.608.913-.304 2.13-3.041 1.217-2.433 1.217-5.779 1.522-6.995.608-.609-.913-1.217-2.131-.609zm68.172-124.695c.304 1.825.913 4.258 0 4.562-.913.304-1.826 2.129-1.826 3.954-.305 1.824-.609 4.257.304 5.778 1.217 1.521.304 1.521.304 3.041 0 1.217.305 4.563-.304 6.387-.609 1.825-.913 2.433-.609 4.258.305 2.129 0 2.433 0 5.475 0 3.041-.304 5.17 0 6.387 0 1.216.609-.609 1.218-.913.304-.304 2.13-.608 3.043.304l.913.913s1.522.608-.609-3.65c-2.13-4.258-2.434-3.345-1.826-7.603.609-3.954.913-3.954 3.044-4.562 2.131-.305 3.351 2.433 3.351 2.737.3.304-.31-.913-.92-3.346-.61-2.129-1.518-3.041-1.823-5.778-.304-2.737-1.217-5.171-2.13-6.083-1.217-.912-.609-2.129 0-3.345.609-1.217.609-2.738.304-4.563-.304-1.824-.913-4.562-1.217-5.474-.304-.912-1.522.608-1.522.608l.305.913zm-1.826 44.404c0 1.216.304 2.433-.609 3.953-.913 1.521-.304 1.825-.609 3.954-.608 2.129-3.043 0-3.043.304s-.304 1.825-.913 2.433c-.609.609-2.739.609-2.13 2.738.608 2.129 1.826 4.257 1.826 4.257s1.217-1.216 1.521-1.216c.305 0 1.218-.304 1.218-.304s-.305-.609-1.522-1.217c-1.217-.608-1.217-1.825-.913-2.433.304-.304 1.826 0 3.043 0 1.218 0 2.131-.608 3.348.304 1.217 1.217 3.348 1.521 3.348 1.521s.304-1.521.913-2.737c.608-1.217 2.431-.609 4.261-1.217 1.83-.608 3.04-.912 2.43-1.52-.6-.609-.6-2.434-.91-3.65-.3-1.217-1.52 0-2.43.304-.92.608-2.13 0-3.351-.608-1.218-.913-3.348-3.954-4.261-5.171-.304-.304-1.522-1.216-1.217.305zm-5.783 18.856c-.608.304-1.217 1.825-1.217 3.65 0 1.824 1.522 0-.304 5.17s-2.739 6.387-4.565 7.603c-1.826 1.217-3.348 1.217-4.261.913-.609-.304.304-1.521.608-1.825.609-.304-1.521-.608-2.434-.304-.913 0 0 1.216 0 1.825 0 .912-1.826 3.041-1.522 3.953.304.913.305 1.217-.913 1.521-1.217.304-1.826-.912-2.13-.912-.305-.304-2.131.304-4.261.608-2.13.304-2.739.912-3.652 2.737-.913 1.521-3.043 1.825-4.565 2.433-1.522.609-.913 2.737-2.739 3.65-1.826.912-1.826 2.129-1.826 3.345 0 1.217 1.217.305 1.217.305.305 0 .305-1.521 1.218-1.521 1.217.304 1.217.304.608 1.521-.608 1.216-.913 1.824-1.521 2.737-.609.912.304 1.52.913 2.433.913.912 1.521-.304 3.347-2.129s1.826-2.433 1.826-4.562c0-2.129-.913-2.129-2.13-2.737-1.217-.609-1.522 0 0-1.521s2.13 0 3.043-.912c.913-.609 3.348-.609 5.783-1.217 2.435-.608 4.565-1.217 4.565-.608 0 .608.913 3.345.913 3.649 0 .609 1.522-.608 3.043-1.216 1.522-.608 0-.913 0-1.825 0-.912.609-1.521.609-1.521s.913 1.521 3.348.609c2.434-1.217 2.739-1.521 3.347-1.521.609.304 1.218.912 2.131.304.913-.608 1.217 0 .913.608-.305.609 3.043-.912 3.652-1.52.608-.609.304 0 0-1.825-.305-1.825-1.218-1.825-.609-4.258s.304-2.433.609-3.954c0-1.521.608-1.825 1.217-1.825.304 0 .304-2.129 1.217-3.041.913-.912.609-1.521.609-3.954 0-2.433-1.217-1.825-1.522-3.649 0-1.825.305-3.346.305-3.346s-2.739.912-3.044 1.521l-.304.608s-.609-.304-1.522 0zm-17.347 26.156c-2.739.608-4.565.608-6.391 1.216-1.522.609-2.13 1.217-1.826 2.737.304 1.521.913 3.346 1.217 4.258.305.913 1.218 0 2.739-.912 1.522-.912 1.522-3.346 3.044-3.346 1.521 0 .913 1.825 3.043-.608s.609-2.433.609-3.649c-.305-1.217-2.435.304-2.435.304zM1144.7 176.42c-3.05-.608-3.96-1.216-3.96 0-.3 1.217-.61 1.521 1.22 2.129 1.82.608 2.74-.608 4.56.913 1.83 1.216 2.13 1.216 3.65 1.216 1.22-.304 1.83-.912 1.83-.912s-5.17-2.738-7.3-3.346zm-33.79-46.229c-1.21.305-1.82-.608-1.82 1.825.3 2.738.91 3.042 4.26 2.433 3.35-.608.91 0 5.48-.608 4.56-.304 5.78-.912 5.78-.912s-.61-1.217-2.13-2.433c-1.52-1.217-3.65.912-7.3.304-3.66-.609-4.27-.609-4.27-.609zm-104.99-39.233c0 .912 4.56 3.954 6.39 4.562 1.83.912 3.04.608 6.39 0 3.65-.304 3.96-1.825 4.26-2.737.31-.913-1.82-.609-3.96-.913-2.43-.608-4.26.304-5.17 0-.91-.304 1.22-.912-.91-1.52-2.13-.913-2.74.304-3.05 0-.6-.304-.6-1.217-1.52-1.217-1.21 0-2.43.913-2.43 1.825zm-18.262 6.083c-1.521.608-1.521 1.216.305 2.737 1.826 1.521 1.217 1.216.304 2.129-.913 1.216 0 0 2.739 1.216 2.739 1.217 3.652 3.346 5.174 3.65 1.521.608 2.739 0 2.739 0s-.609-1.825-2.131-3.954c-1.521-2.129-4.869-2.737-5.478-4.562-.608-1.825-1.521-2.129-3.652-1.216zm16.432-8.516s-2.43-1.52-6.084-3.65c-3.652-2.129-4.87-2.737-6.087-3.041-1.217-.304-.913 1.216-1.522 2.433-.608 1.217-.913.912-2.739 0-1.826-.912-3.652-2.433-5.782-2.737-1.826-.304-3.043 1.216-5.174 3.345-2.13 2.13-.913 2.737 1.826 6.083 2.739 3.345 3.957 3.345 6.087 2.129 2.13-1.217 1.522-2.13 3.043-1.52 1.522.608 7-.61 7-.61.304 0-.304 3.042 2.13 2.13 2.435-.913 4.562-1.217 5.482-2.433 1.21-1.217 1.82-2.13 1.82-2.13zM842.794 26.48c-.609.608-4.565.304-6.695 3.346-2.131 3.345-3.348.912-4.565 3.041-.913 1.825-1.826 4.258-1.826 4.258s1.826 2.129 3.956 2.129c2.13-.304 5.478.608 7.304 3.345 1.826 2.737 3.348 2.737 7.913 3.346 4.565.608 2.435 1.52 4.869 1.216 2.435-.304 5.783.305 5.174-.912s-1.217-1.825-.913-4.258c.304-2.433 2.435-2.129 0-3.954-2.435-1.52-4.261-.304-4.261-.608s2.435-1.216 1.522-1.216-5.174-.305-5.782-2.738c-.609-2.433 1.217-2.737 2.13-2.737.913-.304.609-.608-1.826-2.129-2.435-1.825-5.783-3.65-5.783-3.65-1.826.913-.608.913-1.217 1.521zm23.434 17.64c-1.826.304-3.348 2.129-4.261 3.65-.913 1.52-3.043 3.953-4.565 4.866-1.217.912-.913 1.216 1.218 2.129 2.13.608 5.782-1.217 6.999-1.52.913 0 1.826 1.52 5.174 1.216 3.348-.305 8.522-.913 6.087-2.738-2.435-1.824-1.522-.912-4.261-3.041s-6.087-2.433-6.087-2.433 5.783-1.825 4.261-2.129h-4.565zM722.277 15.532c-3.348 1.217-2.13 1.825-4.261 3.346-2.13 1.825-.608 2.129 3.957.912 4.565-1.216 4.869-1.52 7.608-3.041 3.043-.913-2.435-3.042-7.304-1.217zm7.304 8.212c-3.043 1.216-2.13 2.737-1.522 3.954.913 1.216 3.044-.609 3.652.608.609 1.216.913.608 3.652-1.217 2.739-1.824 1.826-1.216.609-3.345-.913-2.13-1.217-2.433-6.391 0zm-17.043-.913c-1.826.913-1.826.913 0 1.825 1.826.913 6.391 1.521 8.826 0 2.435-1.52 2.13-1.216-.913-1.52-3.043-.609-5.783-1.521-7.913-.305zm-28.912 3.346c3.044-.304 5.783-.304 8.217 0 2.435.304 1.522 2.433-3.043 2.737-4.565.608.304 1.217 3.652.913 3.043 0 1.217-2.738 3.652-3.65 2.739-.912 4.261-.304 7.608-1.52 3.044-1.217-1.826-2.13-5.478-2.13-3.652 0-4.869.304-7.912 0-3.044-.304-5.783 1.217-8.826 1.825-6.696 1.52-.609 2.13 2.13 1.825zm24.043.912c-2.739 0-9.13 1.521-3.652 2.13 5.478.608 4.869.912 7.304 0 2.13-.913-.913-2.13-3.652-2.13zm18.869 1.217c-3.652-1.217-3.957-.608-6.696-.608-3.043 0-3.956 1.825-2.13 2.737 1.826.912 3.348.608 4.869.304 1.522-.304 1.522-.608.609-1.216-1.522-.305 5.478-.609 3.348-1.217zm15.825-4.866c-3.043.304-3.043.912-3.348 1.825-.304.912.305.608 3.652.304 3.044-.304 4.566-.913 6.392-1.825 2.13-1.217-.305-3.65-.305-4.258 0-.608-2.739 1.52-3.652 2.129-.913.912.609 1.52-2.739 1.825zM514.111 190.106c-1.522 3.954-3.957 5.779-.913 4.866 2.739-1.216 5.782-4.562 5.478-1.52 0 3.041-3.044 2.433-2.131 5.474.913 3.042.305 2.737 4.87 3.65 4.869.912.913.608 2.13 3.345 1.218 2.738 1.826 3.65.609 4.562-1.218.913-4.87-2.433-5.174-1.216-.304 1.521.609 2.433 1.522 4.562.913 2.129-.609 3.041-3.348 4.562-2.739 1.216-.304 2.129 1.826 2.129s7.609-1.217 6.696.608c-.913 1.825-3.348-.304-5.174 2.737-1.826 3.042-8.522 5.779-5.174 5.475 3.652-.304 3.043-1.217 13.391-2.737 10.347-1.521 3.348 0 10.043-2.129 7-2.129 4.565-2.738.913-2.129-3.956.608 2.435-3.65 1.522-7.908-.913-3.954-3.348-.304-4.87-2.737-1.521-2.433-1.521-3.346 1.826-2.433 3.044.912 2.739-.608-3.043-4.562-6.087-3.65-2.13-3.042-4.869-6.083-2.739-3.041-7.304-2.737-7.304-2.737s1.826-1.217 3.043-3.346c1.217-2.433 1.522-2.129 2.739-4.866 1.217-2.737-1.217-2.433-4.261-1.825-3.043.609-4.26.913-3.652-.304.609-1.216 1.217-1.825 2.435-3.345 1.522-1.521 1.826-2.433-.913-1.825-2.739.608-3.044.608-5.478 1.521-3.957 1.824-1.522 4.258-2.739 8.211zm-7.609 9.429c-4.869 1.824-3.347 3.041-2.739 3.649.913.608 2.131-.608-2.13 1.825-4.565 2.433-4.565 5.474-2.13 5.779 2.434.608 2.13-1.521-.305 3.345-2.434 4.562-4.26 7.908.913 6.691 5.174-1.217 6.391-3.65 8.826-4.258 2.435-.304 2.739-2.129 2.739-5.17 0-3.042-1.522-3.042.304-5.475s2.131-4.866-1.826-6.082c-3.652-.609-.608-1.521-3.652-.304zm60.259 65.389c-.304.608.304 2.433-1.522 3.649-1.826 1.217.913 2.433 1.522 3.346.609 1.216 1.522-3.954 1.217-6.387-.304-2.433-.304-2.737-1.217-.608zm-.913 9.732c-3.043 1.521-3.348 2.737-3.652 4.866-.304 2.433 2.435.609 1.826 2.433-.609 2.129 0 3.042 3.348 1.217 3.347-1.825 1.521-3.65 1.826-6.387.304-2.129.913-4.258-3.348-2.129zm48.694 25.548c-2.739-.305-3.957 1.52.608 2.128 4.87.609 7 .609 8.826.305 1.826-.305.305 0-2.13-1.521-2.13-2.129-3.652-.608-7.304-.912zm26.477 1.52c-3.956-.912-2.739 3.954 1.217 3.042 3.957-.609 2.435.304 4.261-2.738 1.826-2.737-1.522.304-5.478-.304zm-95.257-21.593c-3.044.304-3.348 1.52-.913 2.129 2.434.608 2.13-.001 3.347-1.217 1.522-.912-.913-1.217-2.434-.912zm-188.385-56.874c-1.826 1.521-3.956 3.65-6.695 8.516-2.739 4.866-2.435 4.258-5.174 6.995-2.739 2.737-1.217 2.129 6.696 3.65 8.217 1.52 7.608 2.737 9.434 2.129 1.826-.609 2.131.912 2.131 2.737 0 1.521 1.826.608 2.739-1.825.913-2.737-.913-7.299-2.435-10.036-1.826-2.738-2.13-2.738-4.565-2.129-2.739.608-1.826-.609-2.739-2.738-.913-2.129-2.435-.304-.305-3.649 2.435-2.433 2.739-4.866.913-3.65zm-248.034-5.474c0 2.433 2.739 6.995 4.87 8.515 2.13 1.521 1.521.609.608-2.433-.913-3.041-.304-3.041-.608-5.17-.609-1.825-4.87-1.825-4.87-.912zm13.391 14.294c.609.608 2.13 3.041 5.174 4.866 2.739 1.825 3.652 2.129 6.695 3.042 3.044.912 4.261-.305 2.435-2.129-1.826-1.825-.304-1.521-3.652-2.433-3.348-.913-4.261-.609-6.087-1.521-1.826-1.217-5.478-3.041-4.565-1.825zm-75.78-28.893c-2.13-.608-3.043-.608-4.565.608-1.522 1.217-1.826 2.129-1.217 3.65.913 1.217.304.608 2.13-.608 1.826-1.217.913-1.521 3.652-2.129 2.435-.608 1.826-1.521 1.826-1.521s-.304.304-1.826 0zm-.608-3.041c-1.522.912-2.13 1.52-.305 1.216 1.826-.304 1.522-1.216 2.435-1.216 1.217.304 1.522-.304 1.522-.304s-2.13-.609-3.652.304zM3.13 193.148c-2.13.912-3.957-.304-2.74.608 1.218.912 3.044 1.521 4.261 1.216 1.218 0 2.13-.304 1.826-.912-.608-.608-.608-.912-.608-1.521 0-.608-.609-.304-2.74.609zm688.409 282.846c-2.435 5.17-7.304 2.737-11.261 6.387-3.956 3.954-3.347 2.737-.304 7.907 3.044 5.475-2.435 4.867-3.956 10.949-1.522 6.387 1.521 5.171 3.348 10.341 1.521 5.474 2.434 3.65 5.478 3.041 3.043-.608 5.173-2.129 5.173-2.129s.609-4.562 2.435-11.557c2.13-6.691 3.348-11.861 3.652-16.423.304-4.562.609-7.603 1.826-6.387.913 1.521 1.217 1.521 1.217-.912 0-2.129-1.217-8.516-3.043-9.733-3.956-1.825-2.13 3.346-4.565 8.516zm3.348-355.839c-3.348.608-4.87 2.737-2.435 3.65 2.435.912 2.13.304 6.087-.913 3.956-1.825-.305-3.649-3.652-2.737zm61.171-59.306c-1.217-1.825-2.13.608-13.695 5.474-11.565 4.866-11.26.608-21.912 9.124s-8.217 7.3-8.826 12.47c-.609 5.17-3.043 2.737-3.956 7.603-.913 4.562-6.391 4.866-3.652 8.82 2.739 3.954 6.391 6.083 12.173 7.603 5.783 1.521 7.304 0 6.087-.608-1.217-.608-5.478-7.299-4.869-15.207.913-7.603 3.652-6.69 6.086-9.428 2.435-3.041 8.826-10.34 13.087-13.078 3.956-2.433 14.912-6.082 20.695-7.907.304 0 .304 0 .304-.305 4.261-4.561-.609-2.737-1.522-4.561zm-31.042 52.007c-1.217.304-2.13.304.609 2.737 2.434 2.433 4.565 4.258 3.956.912-.913-3.041-3.348-3.649-4.565-3.649zm40.781-23.419c-1.826-.912-2.739-1.825-3.348-.304-.304 1.52 2.131 3.346 4.565 3.65 2.739.608.609-2.433-1.217-3.346zM337.9 235.118c-2.739-1.52-5.478-2.433-7.304-2.433-1.826 0 .304 1.825 3.348 3.346 2.739 1.521 5.478 0 3.956-.913zm-6.695 11.558c0-2.433-1.522 2.737.608 3.649 2.131 1.217 3.044 1.521 4.565 0 1.218-1.216.305-.608-1.521-.912-2.131 0-3.652-.913-3.652-2.737zm814.705-79.684c-3.34.304-5.78-.608-5.78-.608s-.3 2.737-1.22 3.953c-.91 1.217-.3 2.738-.3 2.738s-3.35-1.521-5.17-2.129c-1.83-.609-3.66 0-4.87-3.042-1.22-3.041-4.57-2.433-7-2.433-2.74 0-1.83-3.345-1.83-3.345h-1.52c-1.52 0-1.22 3.954-3.35 5.17-2.13 1.217-8.52 2.129-8.52 2.129s3.96 3.041 4.87 5.474c.91 2.434 2.43 4.867 2.43 4.867s-.3 1.216-5.17.304c-4.87-.913-4.57.912-10.04 3.041-5.18 2.129-11.26 5.475-12.79 6.691-1.52 1.217-1.52.608-6.39-.608-4.56-1.217-5.47 1.216-6.69 1.825-1.22.608-.61-2.738-.61-2.738s-1.83 0-3.65.913c-21.31 10.645-6.7 10.341-7.31 12.469l-2.13 8.516c-3.04 9.428-5.17 4.562-7.91 11.862-8.52 23.418-13.39-3.65-13.39-9.733 0-3.954-.91-8.82 1.52-10.036 21-9.733 1.83-1.217 21.61-14.903 6.39-4.258 3.04-6.995 4.26-8.212 1.52-1.216 3.65-1.52 3.65-1.52l-3.35-.304c-3.34-.305-3.65.304-6.39 3.345-2.74 3.041-4.87 3.346-4.26 1.217.61-2.129.61-4.562-1.52-3.346-2.13 1.217-3.04.913-6.69 1.825-3.96.912-7.92 2.737-11.27 6.995-3.34 4.258-1.52 3.954-.3 4.866 1.22.913-5.48.913-8.83.609-3.04-.305-1.52-.913.31-1.521 1.83-.608-2.74-1.217-7-2.129-3.96-.913-2.44.608-4.87 1.521-2.43.912-2.43-.913-3.65-1.217-1.22-.304-6.7-.608-10.35-.912-3.956-.305-3.652.304-4.565 1.52-.913 1.217-8.217 7.604-11.26 11.253-3.043 3.65-7 4.258-10.347 7.604-3.348 3.345-3.957 3.041-1.218 3.649 2.739.609 3.044.304 3.652 2.738.609 2.737 1.826 3.345 4.87 3.345 3.043 0 2.13.912 2.739-1.521.608-2.129-.609-4.866 1.826-2.737 2.434 2.129 4.565 3.346 5.173 6.387.609 2.737-.304 4.866-1.521 9.732-1.218 4.867-1.826 11.558-3.652 15.207-1.826 3.346-3.044 6.083-5.174 10.037-1.826 3.953-11.565 13.382-13.695 14.294-2.131.912-3.652.912-4.565-.912-.913-1.825-1.826-1.521-4.261.608s-3.652 3.345-4.565 6.995c-.913 3.346-3.043 3.346-5.174 6.083-2.13 2.737-2.739 2.129-1.217 4.866 1.522 3.041 4.261 6.083 4.565 8.82.304 2.737-1.217 6.995-2.435 8.82-.913 1.825-5.782 2.737-5.782 1.825 0-.913.304-5.171 0-7.604s-2.13-2.433-1.522-3.345c.609-.913 3.348-2.129 1.522-3.954-1.826-1.825-3.348-.304-4.261-2.433-.913-2.129.305-3.954 0-4.562-.608-.913-1.826-1.521-4.869-1.825-2.739-.304-3.652 2.737-4.261 0-.609-2.433.304-2.737-.913-3.954-1.217-.912-2.435-.304-5.782 2.433-3.348 2.738-3.957 2.129-6.696 3.346-2.739 1.216-2.739 1.825-2.13 2.737.609.912 3.043 5.17 4.869 5.475 1.826.304 3.348-.913 6.391-.913 3.044 0 3.652.304 2.739 1.521-.608 1.216-2.739 2.129-6.391 5.778-3.652 3.65-2.434 3.042-1.217 4.562 1.217 1.521 3.043 3.346 4.261 6.083 1.217 2.737 0 3.954-.305 5.475-.304 1.52-.608 4.258 1.826 6.691 2.435 2.737.609 1.824.609 2.737-.304.912-4.261 8.516-6.391 12.165-1.826 3.65-1.826 3.954-7.913 8.212-6.086 4.258-8.826 4.562-12.173 5.17-3.348.608-6.087 1.521-7.609 2.129-1.826.608-.913 2.129-1.217 3.042-.304.912-1.826 0-1.522-1.217.305-1.217 0-2.129-.608-2.737-.913-.304-3.348-1.521-6.087 1.216-2.739 2.738-6.087 2.738-7 6.083-1.217 3.346-.913 2.129.304 3.65 1.218 1.52 7 6.995 8.522 10.036 1.522 3.042 1.826 5.17 1.826 8.516 0 3.345-6.695 9.428-9.739 11.253-3.043 2.129-3.652 3.954-3.043.912.608-3.041-1.218-4.866-3.348-7.299-2.13-2.433-8.521-4.258-9.739-4.562-1.217-.304.609-2.129-.304-2.129s-2.739-.304-2.435 2.737c.305 3.042-1.826 2.129-2.434 5.171-.609 3.041-.913 6.082.913 5.778 1.826-.304 1.521 2.737 3.043 6.083 1.522 3.345.913 1.521 4.565 4.562 3.652 3.041 2.739 2.433 3.652 5.474.913 3.042.609 4.867 2.435 7.604s1.826 3.345-1.218 1.825c-3.043-1.521-5.478-3.346-6.695-5.475-1.217-1.825-1.826-6.691-2.739-9.124-.609-2.433-5.782-5.17-7.608-6.995-1.826-1.825-.609-3.041.304-6.995s-.304-7.908-.609-10.341c-.304-2.433-2.13-9.124-3.043-11.557-.913-2.433-.609-2.129-2.13 0-1.522 2.129-2.435 3.346-3.957 3.346-1.522 0-3.348-.305-3.348-1.217.305-.912 1.522-4.258 1.218-5.779-.305-1.216-1.826-5.474-3.652-6.995-1.826-1.52-4.261-3.649-5.478-6.995-1.218-3.345-1.522-2.433-3.957-.608-2.434 1.825-7.912 2.129-10.651 2.129-2.739.304-.609 1.521-1.218 2.737-.609 1.217-3.652 3.041-10.043 9.428-6.391 6.691-7.304 6.691-8.826 7.604-1.521.608-2.739.608-2.739 3.041 0 2.737.305 4.258 0 6.691-.304 2.433-.913 3.346-1.826 4.866-.608 1.521-1.521 4.258-1.521 5.779-.305 1.521-1.522 3.041-3.652 4.562-2.131 1.521-2.131 1.216-3.044-.913-.913-2.128-5.782-10.644-9.739-18.248-3.956-7.907-3.043-9.124-3.347-11.557-.305-2.129-.305-15.815-.305-16.727 0-.609-1.826 1.52-2.434 2.737-.609 1.216-.609 2.433-2.739 2.737-2.131.304-2.739.304-4.87-1.825-2.13-2.129-3.043-3.345-2.739-3.345.305 0 2.739-.304 4.261-.913 1.522-.608.913-1.52.913-1.52s-1.522.304-3.348.304c-1.826 0-.913-.304-3.347-1.217-2.435-.912-3.044-.912-3.348-2.129-.304-1.216-.913-2.433-1.217-3.345-.305-.913-.609-.913-.913-1.825-.305-.912-1.522.304-4.261.304-2.435 0-2.13.304-5.174 1.521-3.043 1.216-3.652.912-7 .608-3.652 0-6.086-1.521-7.608-2.129-1.826-.608-2.13-.304-4.565-.608-2.739-.304-2.13-1.825-2.739-2.737-.609-1.217-1.826-1.217-5.174-1.217-3.347.304-3.652 0-5.478-.304-1.826-.608-2.13-1.216-3.652-2.737-1.522-1.521-1.217-.304-2.13-1.217-.913-.912-2.131-2.129-3.044-4.258-.913-2.129-.608-2.737-1.521-3.649-.913-.913-.913-.913-3.957-.913-3.043 0-1.521.304-2.13.304-.304.305-1.217 1.521-2.13 2.434-.913.912.608 2.433 1.826 3.953 1.217 1.521.304 1.217 2.13 3.346 1.826 2.129 1.217 1.825 2.739 4.866 1.217 3.041 2.13 3.65 2.435 4.562.304.912.608-.304.913-1.217.304-.912 0-3.649 0-3.649s.608 1.216 1.217 3.345c.609 2.129.304 2.129.609 3.65.304 1.217 0 1.216 2.434 1.216 2.435 0 3.652.001 6.391-.608 2.435-.608 3.652-3.041 4.87-3.649 1.217-.609 1.217-3.042 2.13-2.738.913.305 0 2.738.913 4.562.609 1.825.913 1.217 2.739 1.825 1.826.609 2.435 1.217 4.261 1.825 1.826.608.609.912 1.522 2.737.913 1.825.913.913 1.826 1.521.913.608.608.304 0 2.433-.609 2.129-.913 2.129-2.435 3.954-1.522 1.825-1.522 1.216-1.826 1.216-.304 0-.609-1.216-.609-1.216s-.913 2.129-1.217 4.562c-.304 2.433.913 1.521-2.13 2.737-3.044 1.217-4.87 1.825-5.783 2.737-1.217.913-1.217 2.433-1.826 3.042-.609.608-1.522 0-3.652.608s-1.522.608-3.043 1.825c-1.522 1.216-.305 1.216-2.435 1.825-2.13.912-6.087 2.737-7.913 3.041-1.826.304-1.521.608-2.13 1.521-.609.608-.609 1.216-3.043 1.52-2.435.304-5.478.609-7 1.521-1.522.608-3.652 2.433-5.478 2.129-1.522-.304-1.218-.304-1.826-1.825-.609-1.521-.913-2.433-.913-4.866-.305-2.433-1.218-6.083-2.435-8.212-1.217-2.433-1.217-2.433-2.739-4.866-1.522-2.433-2.435-4.562-3.652-5.474-1.217-.913-1.826-.913-2.435-1.825-.608-.608-.304-3.042-.913-5.17-.608-2.129-1.217-3.954-2.13-5.171-.913-1.216-2.435-2.433-3.652-4.866s-1.522-2.737-3.348-6.387c-1.826-3.649-2.739-4.258-3.956-6.691s-.304-2.129-.913-3.345c-.609-1.521-1.826 2.433-2.739 3.041-.913.608-1.522.304-2.131-1.825-.913-2.129-1.521-4.258-2.13-3.345-.609.912-.913 1.825-.304 3.953.913 2.434 1.217 1.825 2.13 3.954.913 2.129 3.957 7.908 5.174 10.037 1.217 2.433.608 1.216 1.826 4.562 1.217 3.649 1.826 3.954 3.043 5.474 1.522 1.521 1.218.609 1.826 3.042.609 2.433.305 5.17.609 6.691 0 1.52.913 2.129 2.739 3.649 1.826 1.521.913.913 1.826 2.433.913 1.521 1.522 3.65 2.13 5.171.609 1.52.913 2.433 2.435 3.345 1.522.608 1.826.608 3.043 1.217 1.522.608.913.912 1.826 2.129.913 1.216 2.739 2.129 3.957 3.953 1.217 1.825.304 1.217.304 3.042 0 1.825-.609.912.304 1.825.913.912 2.131 1.824 4.566 3.345 2.434 1.521.608.608 2.434.304 2.131 0 2.435-.608 4.87-1.216 2.13-.609 5.173-1.217 7.912-2.129 2.739-.609 5.478-1.217 7-1.521 1.522-.608 1.522 1.217.304 3.65-1.217 2.433-1.521 4.562-2.434 6.386-.913 1.825-1.218 2.129-1.826 3.65-.609 1.521-5.174 8.212-6.391 10.037-.913 2.129-2.131 3.649-3.652 5.474-1.522 1.825-5.783 4.866-7.913 6.387-2.131 1.521-1.522 1.521-3.044 3.65-1.521 1.824-6.086 7.299-7.304 9.124-1.217 1.824-1.826 2.737-2.739 4.562-.913 1.824-3.652 4.562-3.652 5.778-.304 1.217-1.521 1.521-.608 2.737 1.217 1.217 1.826 1.521 2.13 3.042.304 1.52-1.217 3.345-.304 6.083.913 2.737.304.912 1.826 3.041 1.521 2.129 1.521 3.65 1.521 6.691.305 3.345.305 6.387-.304 8.516-.609 2.129-1.217 3.345-1.826 5.474-.609 1.825-4.565 3.042-7 4.258-2.434.912-2.13.608-3.347 1.825-.913 1.216-3.957 3.954-5.174 5.778-.913 1.825-1.826 1.825-1.522 3.042.305 1.216 1.217 2.737 2.435 5.17.913 2.433.304 2.129 0 4.258-.305 2.129-.304 1.825-.609 4.258-.304 2.433-3.043 2.433-6.391 3.65-3.348 1.216-2.13.608-2.435 2.433-.304 1.824 0 5.17-.304 7.299 0 2.129-1.217 1.216-3.043 3.954-1.826 2.433-2.435 3.649-4.261 6.995-1.826 3.041-1.826 2.737-4.261 4.562-2.434 1.825-4.26 2.433-5.478 4.562-.913 2.129-2.13.608-7.304 2.433-5.174 1.521-1.522.912-6.391 1.521-4.869.608-6.695.912-9.13 1.52-2.435.609-2.13 0-3.956-1.824-1.522-1.825-1.826-1.521-2.435-3.042-.609-1.52-.304-1.825-.304-4.258-.305-2.737-.305-2.737-1.522-4.258-.913-1.52-.913-1.824-1.826-4.562-.913-2.433-1.522-3.345-2.739-5.17-1.217-1.825-1.522-1.217-2.739-2.433-1.218-1.217-1.217-2.129-1.217-3.65-.305-1.52-.609-5.474-1.218-9.428-.609-3.954 0-1.825-.609-3.65-.608-1.824-1.217-3.649-2.434-5.778-.913-2.129-.609-1.521-2.435-4.258-1.522-2.737-1.522-2.433-2.435-4.866s-1.217-1.217-1.217-2.129c0-.913.609-2.737.609-4.258s.608-3.65.913-6.083c.304-2.433-.609-2.433.608-4.258.913-1.824 2.131-3.345 2.739-5.17.609-1.825.609-2.129.609-4.562 0-2.433-.304-2.129-.913-4.258s-.913-4.562-1.826-7.603c-.913-3.346-.913-3.042-.913-4.562 0-1.217-.609-4.258-1.217-5.779-.609-1.825-.913-.912-2.435-2.129-1.217-1.216-.609-.608-1.522-1.825-1.217-1.216-.913-1.52-2.13-3.041-1.217-1.217-1.217-1.521-2.13-3.041-.913-1.521-.305-.609-.305-3.042s.913-7.603 1.218-10.34c.608-2.738.608-2.738-.609-3.954-1.217-1.217-1.826-3.042-2.739-3.042-.913-.304-2.739.305-5.782.305-3.044 0-2.739-.609-3.957-2.129-1.217-1.521-3.043-3.65-3.652-3.954-.608-.608-1.522-.608-6.695 0-5.174.304-2.131.608-5.478.912-3.348.609-4.565 2.433-7.304 3.042-2.435.912-3.348.608-7.913-.305-4.565-.912-6.696.913-9.13 2.129-2.435.913-3.348.609-5.174-.608-1.826-1.216-2.739-2.129-5.174-3.345-2.434-1.217-2.13-1.825-4.565-3.346-2.434-1.216-1.826-1.216-3.956-3.345-2.13-2.129-2.13-3.954-3.652-6.083-1.522-2.129-2.739-4.866-4.565-7.299-1.826-2.129-3.957-6.691-4.87-7.908-.913-1.216-1.826-1.521-1.826-2.129 0-.608 1.826-4.258 2.739-6.387.913-1.824.913-1.824 1.218-3.041.304-1.217-.609-4.866-1.218-6.691-.608-1.825-1.521-6.083-2.13-7.908-.609-1.824.304-1.824.913-3.041.609-1.216 2.435-3.345 4.261-6.691 1.826-3.345 2.739-4.866 3.652-6.387.913-1.52 3.043-6.387 4.565-7.603 1.522-1.217 4.869-3.954 6.391-4.562 1.522-.913 2.739-1.217 3.043-1.825.305-.608.913-6.387 1.218-8.82.304-2.433 0-3.65 1.521-4.562 1.826-.912 4.565-2.737 6.087-3.345 1.522-.913 1.522-2.129 2.435-3.65.608-1.825.913-3.954 2.13-4.866 1.217-.609.913.304 2.13 1.216 1.522.913 1.827.913 2.435 1.217.609.304 1.218-.608 3.044-.608s1.826.304 3.043.608c.913.608.609.608 3.348-1.217 3.043-1.825 5.173-3.041 9.13-4.258 3.956-1.52 6.391-2.129 8.217-2.433 1.826-.304.913 0 2.739.913 2.13.912 2.13 1.216 2.435.608.304-.608 1.826-2.129 2.434-2.129.913 0 1.826.304 3.957.912 2.13.305 3.043.305 3.956-.304.913-.608 2.13-1.52 2.13-1.52.305 0 2.131.608 3.652 1.216 1.522.608 1.522.608 1.218.913-.305.304-.609.912-1.522 2.433-.609 1.52-.304.608.304 2.433.609 1.825 1.218 1.52.913 2.737-.304 1.216-1.826 2.433-2.739 3.65-.913 1.216-.913 1.52 1.826 2.737 2.435 1.52 1.826 1.216 4.87 2.433 2.739 1.216 3.043.912 6.391 1.825 3.348.912 3.043 1.216 3.956 2.433 1.218 1.216 1.218 2.737 3.348 3.345 2.13.609 3.956.609 5.174 1.521 1.217.608 2.13 1.825 3.652 2.129 1.521.304 1.521.608 2.434-.608.609-1.217 1.522-2.129 1.218-2.738-.305-.608-1.218-1.52-.913-2.129.304-.608 1.521-2.737 1.826-3.345.304-.608 1.521-.912 3.956-.912s4.261-.609 4.565.912c.304 1.521.304.912 2.13 1.521 1.826.912 2.131.912 3.652 1.52 1.522.609.914 1.521 1.522 1.521.913 0 2.131-.304 3.652.304 1.522.304 4.261 1.825 7 1.825 3.043 0 3.956-.608 4.565-.912.304-.305 2.435-2.738 3.652-.913s2.739 1.825 5.782 1.521c3.044-.304 3.044-.608 3.652-1.521.609-.912 2.435-3.65 3.044-5.778.609-2.129 2.13-6.387 2.739-8.516.304-2.129 0-3.65-.304-4.866-.305-1.217 0-2.129.608-3.346.609-1.216-1.521-.608-2.13-.304-.913.304-.913-.304-1.826-.608-.609-.304-1.522-.304-2.131.912-.608 1.217-.304 2.129-3.043 1.825-2.739 0-2.435-.304-3.348-1.217-.913-.912-2.434-1.216-3.652-1.52-1.217-.304-1.521-.304-1.521.608 0 .912 0 1.216-.913 1.825-.913.304-3.044 0-4.87-.913-1.826-.912-2.434-1.216-3.956-3.041-1.826-1.825-1.522-1.825-2.13-4.258-.609-2.737-.609-4.866-.305-5.778.305-.913.913-.913-.608-.609-1.218.304-2.131.609-1.218-1.216.913-2.129 1.826-2.129 2.739-2.433.913-.305 2.435-.305 4.261-.305s3.043-.912 3.652-1.216c.609-.304 1.826-.608 1.217-.912-.608-.305-2.739-.305-2.13-.913.304-.608.609-.608 1.522-.608s2.739-.304 3.956-.304c1.522 0 2.13.304 2.739-.609.609-.912.913-2.129 2.13-2.737 1.218-.608 2.131-.304 5.174-.304 2.739 0 2.435.608 3.348 1.217.913.608 1.522.304 2.739.608 1.217.304.609.912 1.522 1.216.913.305 2.739.609 4.869 1.521 2.13.608.609.304 3.348.304 2.434 0 2.434 0 4.565-.304 2.13-.304 2.739-1.216 4.26-2.129 1.522-.912.305-3.345 0-4.866-.608-1.825-2.739-2.737-3.652-3.65l-4.26-4.258c-1.218-.912-2.435-1.216-3.957-2.129-1.217-.608-3.652-1.824-3.956-2.737-.304-.912.609-.912 2.435-1.52 1.826-.609 1.217-.913 1.521-1.825.305-.913.609-.913 2.131-1.521 1.521-.608-1.826-1.825-2.435-2.433-.609-.608.913-.608 2.739-.912 1.522-.305 1.826-1.217 1.826-1.825.304-.609 0-.913-1.826-.913s-4.261.913-7.304 1.521c-3.043.912-1.826.912-3.652 2.433s-2.131.913-1.826 1.521c.304.912.304 1.52 2.435 2.737 1.826.912 1.217.912 1.521 1.217.609 0 1.826.304 1.218.608-.609.304-1.218 1.216-2.131 1.216-.913 0-1.217.913-2.739 1.825-1.521.913-2.13.913-3.347 1.217-1.218.304-1.827-.304-1.827-2.129.305-1.825-.608-.608-1.826-.913-1.217-.304-1.521-.912-1.521-.912s1.217-.304 2.434-1.217c1.218-.608 1.522-1.216 2.131-2.433.608-1.52-1.218-.608-2.435-.912-1.217-.304-.913-.304-2.13-.608-1.218-.304-1.826-1.217-1.826-1.217s.608.304 1.521 0c1.218 0 .913-.304 1.218-.608.304-.304.608-.608.304-.608h-2.435c-.913 0-1.521-.305-2.739 0-1.217.304-.913.608-1.826 1.216s-.913.913-1.521 1.825c-.609.912-.609.608-.913 1.216-.305.609-.305 2.129-.305 3.042 0 .912-.304 1.216-.913 2.129-.608.912-.608.608-1.521.912-.913.608-.305.913-.609 1.825 0 .912-.609 1.217-.609 2.737 0 1.217-.608 1.217-1.217 2.129-.913.913-1.217.913-1.217 1.825 0 .912-.305 1.217 0 3.041.304 1.825.608 1.217 2.13 3.042 1.522 1.825 2.13 1.216 1.522 2.129-.609.912-.305.608-2.131.304-1.826-.304-2.13 0-3.347 1.216-1.218 1.217-1.522 1.825-2.131 2.433-.608.305-.304-.912-.608-1.52-.305-.608-3.044-.913-5.174-1.521-1.826-.608-2.435-.912-3.044-.912-.608 0-1.217 0-3.347.912-2.131 1.217-1.522 1.825-1.522 3.346 0 1.52 1.826 1.824 1.217 5.17-.608 3.345 1.826 1.825 2.739 3.954.913 2.129 0 1.825-.608 2.129-.609.304-1.218 2.129-1.522 3.953-.304 1.825 0 1.825-.609 1.825-.608 0-1.217.304-2.13-1.216-.913-1.521-1.826 0-1.826-.913 0-.912-1.217-2.129-.913-4.258.609-1.824 1.217-2.129-.609-3.041-1.521-.912-1.217-1.217-2.13-3.041-.913-2.129-.913-2.433-2.435-4.258-1.521-1.825-1.521-1.217-.913-3.346.305-1.825.609-4.258-.304-5.474-.913-1.217-4.869-4.866-7.913-6.691-3.043-1.825-3.956-.304-5.173-3.042-1.522-2.737-2.131-5.474-4.261-7.299-2.435-1.521-1.218-1.825-3.348-.912-2.13.912-2.435 1.216-2.13 1.825.304.608.608 1.52.304 3.345-.304 1.825-.913 1.217 1.522 2.737 2.434 1.521 1.217 1.217 2.434 3.65 1.218 2.433 1.218 3.041 2.435 3.954.913.912 1.217 1.825 3.652 2.433 2.435.608 1.826 0 2.435.304.609.608-1.522.912-1.217.912.304.304.913.913 2.739 2.129 1.826 1.217 3.956 2.433 4.565 3.346.608.912 2.13 4.562-.305 1.825-2.434-2.738-2.434-1.521-3.347.304-.609 1.825.608 3.345.608 4.562 0 1.216-1.217.912-2.13 1.825-.913 1.216-1.217 2.433-2.13 3.041-.913.608-.609-.912-1.218-.912-.608 0-.609.608-1.217 1.824-.609 1.217 0 1.825.304 3.346.305 1.825.609 1.825-1.217 1.825s-1.522-1.825-3.044-3.042c-1.826-1.216-2.739-.608-3.956-1.52-1.522-.913.609-1.217 3.956-1.521 3.653-.304 3.957-.912 4.87-1.521 1.217-.912.609-.912 1.826-2.737 1.217-1.521 0-2.433-.913-4.258-.913-2.129-2.13-3.041-2.739-3.345-.609-.304-1.826-1.521-2.739-2.738-.913-1.216-2.131-1.216-3.957-1.824-1.826-.305-1.521-2.129-2.434-2.433-.913-.609-1.826-1.825-4.261-3.954-2.13-2.129-1.522-3.65-2.435-5.475-.913-1.825-2.13-3.345-4.26-3.345-2.131 0-3.957 1.52-6.087 3.649s-1.826 3.346-4.261 1.521c-2.739-1.521-3.652-1.521-5.478 0-1.826 1.521-2.13 3.041-2.13 6.387 0 3.041-2.131 1.825-3.957 2.737-1.826.913-3.347 3.042-6.086 8.212-2.739 5.17.304 2.737-.305 4.562-.608 1.825.305 3.041-2.434 5.474-2.435 2.129-1.522-.304-2.739 1.521-1.522 1.825-3.652 3.346-7 2.737-3.652-.304-2.435.913-4.87 1.521-2.13.608-3.347 1.216-3.043-1.217.609-2.433 0-2.129-4.261-2.129-4.26.305-5.782 1.217-5.478.609.305-.609.609-1.521.913-3.954.609-2.433 1.218-3.346.609-3.346s-2.13.305-.913-3.953c.913-4.258 1.522-5.171.913-7.604s.304-5.778-.304-7.299c-.609-1.521 1.217-3.041.304-3.65-.609-.912-1.522-1.824-.913-1.824s2.739 0 5.782.608c3.044.608 6.087-.304 7.913-.304l9.13 1.52c3.652.609 3.652-.608 3.348-6.082-.304-5.475.304-7.908-.913-9.124-1.217-1.217-2.435-.913-3.652-2.434-1.217-1.52-.304-3.649-2.739-4.562-2.739-.912-5.478-.304-4.261-.608 1.522-.608 1.826-.608.609-1.825-1.522-1.216-1.826-2.433-.609-2.433 1.218-.304 4.261-.304 4.261-.304s.304 1.521 1.826.913c1.826-.609 3.956-1.521 3.348-2.434-.609-1.216-1.218-2.433-.913-2.433.304 0 .913 1.521 4.565 1.521s3.347-.608 3.043-2.129c-.304-1.521 2.435-1.521 3.956-2.737 1.826-1.217-.608-2.737-.304-3.65.304-1.216 2.435-1.825 6.087-2.129 3.652-.304 3.043-.912 2.739-1.216-.305-.304 0-2.129.304-4.562.304-2.433-.304-3.042 1.522-4.258 1.826-1.217 1.217-.608 5.174-.913 3.956-.304 1.521-1.216 2.13-1.52.609-.304 5.174-1.217 6.087-1.521.913-.304.608-.304 0-1.825-.609-1.52-1.826-2.737-2.739-10.34-.913-7.604-.609-7.604 3.956-9.124 4.565-1.521 3.652-.913 3.348 3.345-.305 4.258-2.435 4.258-3.044 7.299-.608 3.042 0 5.171 1.826 8.212 1.826 3.345 1.826 1.521 6.087 1.521 4.261 0 3.348.912 6.087 2.129 2.739.912 1.826-1.825 4.565-2.738 2.739-.912 2.13.609 8.521-.304 2.435-.304 3.348-.304 3.348-.608-.304 0-.913 0-.304-.304 1.521-.913 1.826-2.433 3.956-2.737 2.13-.305 3.652.608 3.652-2.738 0-3.345-1.217-2.737-.913-5.17.304-2.433.609-1.521.609-3.345.304-2.129-.305-2.434 2.434-3.042 2.739-.608.913 2.433 3.957 3.042 3.347.608 2.739 1.216 3.347-1.217.609-2.433 2.435-5.779.609-5.779-1.522.305-1.826 0-3.652-2.433-1.522-2.433-2.435-2.737-1.522-2.737s4.565-.912 9.435-.912c4.869.304 6.391.608 6.695 0 .305-.609-.913-.913.913-2.129 1.826-.913 7.304.608 6.391-.304-.913-.913-5.782-2.129-8.825-1.825-3.348.608-11.261 1.52-12.478 1.52-1.218 0-3.348-.912-3.957-1.52-.608-.608-2.434-.913-2.434-3.954 0-2.737.913-3.954-.609-6.691-1.826-2.737 3.043-5.17 6.391-8.212 3.348-3.041 2.435-5.474 4.261-5.474 1.826-.304 2.739-1.217 1.826-2.129-.913-.912-4.261-4.258-6.087-4.562-1.826-.304-4.261-2.129-6.695 2.129-2.739 4.562.304 4.866.608 7.299.609 2.433-3.652 3.954-6.695 6.387-3.043 2.129-4.261 1.521-5.174 7.299-.913 5.475-1.826 5.779 1.522 7.604 3.348 1.824 4.261 2.737 2.435 4.562-1.522 1.52-4.87 1.52-7 5.474s-1.217 5.779-2.13 7.604c-.913 1.824-3.348 2.433-4.261 4.257-.609 1.825-.609 5.171-3.957 4.563-3.043-.609-1.521-4.867-2.739-6.996-1.521-2.129-2.434-3.953-4.26-6.691-1.826-2.737-.305-5.17-1.826-6.691-1.522-1.52-1.826-4.258-1.826-4.258l-.609 1.217c-.609 1.217-.304 2.129-3.348 6.083-3.043 3.954-7.912 4.258-10.347 3.345-2.435-.912-1.826-3.345-1.826-6.082 0-2.738-.609-6.691 0-11.254.609-4.562 1.826-4.257 6.695-6.995 4.87-3.041 5.174-2.737 6.391-4.562 1.218-1.824 4.87-4.562 6.696-6.387 2.13-1.824 5.478-8.211 7.608-13.077 1.826-4.562 5.174-7.604 8.522-12.47 3.347-5.17 9.434-9.428 17.042-12.774 7.609-3.345 6.391-3.649 8.217-6.082 1.826-2.433 2.435-.913 5.479-1.521 3.043-.608 2.434 0-.609 3.041-3.044 3.042-4.261 6.083-1.826 3.65 2.435-2.433 4.565-5.17 8.521-4.866 3.957.304 2.435 0 6.087 1.825 3.956 1.824 4.565 1.824 2.435 3.345-2.131 1.521-5.783.912-5.783.912s1.218 2.738 4.87 3.346c3.652.304 5.478-2.737 7.912-1.521 2.435 1.217 3.044 2.129-.304 1.825-3.043-.304-3.956 1.825-.304 3.041 3.956 1.521 4.261 1.521 9.434 2.129 5.174.609 7.304 4.562 11.261 6.083 3.956 1.521 8.521.304 7.304 3.954-1.218 3.65.913 6.995-5.783 8.82-6.695 1.521-6.695-.608-12.173-2.129-5.783-1.825-9.739-3.346-9.739-3.346s1.522 2.129 3.956 4.562c2.739 2.434 3.044 4.562 2.739 9.125-.304 4.562-1.521 5.778 3.044 7.907 4.565 2.129 3.956 1.521 5.174 1.217 1.521-.305 3.652-.913 3.043-1.521-.609-.608-.913-2.129-2.435-2.737-1.521-.609-1.521-2.433 0-3.042 1.522-.912 2.739.609 6.087.609 3.348-.305 0-1.217 1.522-2.738 1.521-1.52 1.826-4.562 5.478-5.778 3.956-1.521 7.912.608 8.825-.913.913-1.52 2.131-3.649 0-6.082-2.13-2.433-3.956-3.346-2.434-4.562 1.217-1.217 3.956-4.562 5.174-2.738 1.217 1.825 4.26 3.954.304 3.346-3.957-.304-1.218 5.778 2.435 5.474 3.652-.304 3.347-1.52 6.086-2.737 2.739-1.521 8.522-6.083 12.478-7.299 3.956-1.521 4.869-.913 6.391-.304 1.522.608 1.522 2.129 6.087 1.216 4.261-.912 5.782-1.825 9.739-2.737 3.956-.608-.305 1.521 1.521 2.129 1.826.608 2.131 1.217 3.348.304 1.522-.912 5.782-2.433 3.956-3.954a92.67 92.67 0 01-3.652-2.737s1.522-3.345 5.478-3.041c3.957.304 9.739 3.954 13.696 6.387 3.956 2.737 8.521 8.211 8.521 8.211s1.522-2.737.304-7.603c-1.521-4.866-4.869-3.65-4.869-8.212 0-4.562-3.348-3.345-2.13-6.387 1.217-3.345 4.26-4.562 5.173-8.515.913-3.954 1.522-7.604 4.565-7.604 2.739 0 9.13.913 9.13.913s0 3.65-2.434 9.428c-2.435 5.474 1.217 6.083.608 13.078-.608 6.691-.608 7.603.913 9.124 1.522 1.52 4.565 3.345 3.348 6.387-1.217 3.041-1.826 4.866-5.782 6.386-4.261 1.521-9.435.609-7.609 2.129 1.826 1.217 4.565 2.433 7.304 2.738 2.739.304 1.522-.305 3.652-2.129 2.131-1.825 7.304-5.475 7-7.3-.304-1.824-2.739-4.562-.913-5.778 1.826-1.217 2.739-3.346 5.478-1.521 3.044 1.521 5.783 7.908 5.783 7.604 0-.305-.609-6.083-3.957-9.429-3.348-3.345-9.13-.304-9.13-3.345 0-3.042 1.522-7.299 1.217-10.645-.304-3.345-1.521-6.691.609-9.428 2.13-2.737 2.131-5.17 2.131-5.17s.913 2.737.304 6.082c-.609 3.346.304 5.475 1.826 5.475 1.521 0 8.521 0 4.869-.913-3.956-1.216-4.869-2.129-1.217-4.258 3.956-2.129 3.652-.608 9.13.609 5.478 1.216 7 2.129 8.826 2.129 1.826 0 1.521-.305.913-1.825-.609-1.521-1.522-2.737-3.348-3.954-1.826-1.216-3.043.304-3.652-1.52-.609-1.825-1.522-6.083-2.13-7.604-.609-1.52 1.521-.304 4.26-.304 3.044 0 10.956-.304 17.347-.608 6.392-.305.001-6.692-.304-11.254-.608-4.561 11.565-4.866 17.347-5.778 5.783-.912 12.783-.608 23.739-3.346 10.956-2.737 3.956-2.129 5.478-5.17 1.521-3.041 4.26-3.65 7.608-3.65s6.391.609 5.174.913c-1.218.304-4.87 2.129.913 3.345 5.782 1.217 4.261 1.217 1.217 2.13-3.043.912-.609 3.04 5.174 3.04 5.782 0 2.435-.608 1.522-2.432-.913-1.825.913-1.217 5.478-.304 4.869.912 6.695 1.52 9.13 3.953 2.739 2.433 3.043 1.825 3.956 5.17.913 3.346 0 2.738-3.956 6.083-3.957 3.042-6.391 3.042-12.174 6.691-5.782 3.65-4.261 5.475-7.608 7.908-3.044 2.433-2.435 1.825 4.26 0 6.696-1.825 10.348-2.737 13.696-2.433 3.347.304 5.173 1.52 7.608 1.52 2.739 0-.304.305 7.913.305s7 0 3.956 2.433c-3.043 2.433.609 3.041 4.261 3.041s8.217.304 11.565-.304c3.347-.608.608-3.041 4.565-3.346 3.956-.304 5.174-.608 9.739-.608 4.26 0 3.043 1.825 4.565 3.346 1.521 1.52 3.652 2.737 2.13 5.778-1.522 3.042-2.13 3.346-1.217 7.604.913 4.257 3.043 4.866 5.478 5.778 2.739.913 2.739-3.954 5.173-5.474 2.435-1.521 3.044 3.041 6.087 2.433 3.043-.608 6.087-.304 8.522.304 2.434.912 4.565 1.216 8.217.304 3.652-.912 2.434-2.129 1.217-4.258s-1.217-2.129.913-4.258 3.652-1.216 10.956.913c7.303 1.824 4.873 1.824 9.133 3.041 3.95 1.217 2.74.912 9.13 3.65 6.39 2.737 5.17 6.387 7.91 8.211 2.74 1.825 3.04 0 8.83-.608 5.78-.608 5.78.608 12.17 2.433 6.39 1.521 4.56 3.65 4.56 5.475 0 1.824-1.82 3.345 2.13 3.953 3.96.913 5.48 1.521 8.83.913 3.35-.913.3.912 7.91.912 7.31 0 4.87-.912 7.31.608 2.13 1.521 2.74 4.562 6.39 4.258 3.65-.304 3.35-.304 1.82-3.345-1.52-3.346-2.43-3.65-.3-3.65 2.13 0 6.39.913 14.61 2.433 8.22 1.217 8.52 2.738 14.91 6.995 6.7 4.258 8.52 4.562 13.39 8.212 1.83 1.521 2.13 1.825 2.13 1.825s.61 0 2.44.912c5.17 2.433 4.26 1.521 8.82 3.954 4.57 2.129 8.22 5.17 8.22 5.17s1.52.913-1.83 1.217zm-435.198 88.199s-.609.609 2.13-1.52-1.217 0-2.739-.609c-1.521-.304-1.826-1.216-1.521-3.041.608-1.825-.305-1.825-1.826-4.562 0 0-.913-.608-2.739.608-1.826.913-2.739-.912-4.87-.304-2.13.913-4.565.304-5.782 3.65-1.217 3.345-2.739 1.216-3.348 3.649-.608 2.738-4.565 3.954-4.565 3.954s1.522 1.521 2.739 3.042c1.218 1.52.305.608 1.522 5.474 1.217 4.866 2.13 4.562 3.652 5.17 1.826.609 4.261 2.433 4.261 2.433s-1.522-.912-1.522 1.521c0 2.737-2.435 4.562-2.13 8.212.304 3.954-3.348 7.299-.609 7.603 3.043.304 2.13 1.521 5.174 2.433 3.347.913 5.173 1.521 9.738 1.521 4.87 0 2.131-1.825 1.522-4.562-.609-2.737-.913-4.562-1.217-7.299-.305-3.042-1.218-2.129-2.131-3.954-.608-1.825.305-2.737 2.739-2.737 2.131 0 2.435 0 1.218-2.129-1.218-2.129-.609-2.738-1.826-3.65-1.522-.912-2.131 2.737-2.131 2.737s-.913-.912-.608-4.562c.304-3.649.608-1.825-.609-2.737-1.217-.608-1.826.304-3.348-2.129-1.521-2.433-.304-1.825-1.826-4.866-1.826-3.041-.913-1.521 1.218-1.521 1.826 0 .913-.304 0-1.52-.913-.913-1.522-2.434.913-2.129 2.434.304 5.782.608 6.999.912 2.131.608 1.522.912 1.522.912zM362.856 121.372c-.914 1.52 1.521 3.345 3.043 2.737 1.826-.608 2.13 0 3.043-.608.913-.609.913-1.825 0-3.042-1.217-1.216-.608-1.825-.913-1.825-1.826-1.216-4.26 1.217-5.173 2.738zm461.069-95.5c-2.434 0-5.173.305-3.043.913 2.435.913 1.522 4.562 5.782 2.433 4.565-2.129 3.652-2.433 6.696-3.65 3.043-1.216 1.217-.608-2.435-1.52-2.13-.608-4.565 1.52-7 1.825z" fill="#F7F7F7"/></svg>