<svg width="34" height="31" fill="none" xmlns="http://www.w3.org/2000/svg"><path d="M29.177 30.494H4.823a4.823 4.823 0 01-4.314-6.98L12.686 2.666a4.823 4.823 0 018.627 0L33.49 23.514a4.822 4.822 0 01-4.314 6.98z" fill="#4477B2"/><path d="M29.18 30.493H17V0a4.777 4.777 0 014.316 2.668l12.173 20.847a4.82 4.82 0 01-4.31 6.978z" fill="#285180"/><path d="M19.346 25.216a2.346 2.346 0 11-4.692 0 2.346 2.346 0 014.692 0z" fill="#F0F0F0"/><path d="M19.346 25.216A2.346 2.346 0 0117 27.56v-4.69a2.345 2.345 0 012.346 2.345z" fill="#D6E9F8"/><path d="M17 4.691a2.346 2.346 0 012.346 2.346V18.18a2.346 2.346 0 01-4.692 0V7.037A2.346 2.346 0 0117 4.691z" fill="#F0F0F0"/><path d="M19.346 7.037V18.18A2.346 2.346 0 0117 20.524V4.691a2.343 2.343 0 012.346 2.346z" fill="#D6E9F8"/></svg>