<svg xmlns="http://www.w3.org/2000/svg" viewBox="0 0 545.45 545.45"><defs><linearGradient id="a" y1="278.41" x2="545.45" y2="278.41" gradientUnits="userSpaceOnUse"><stop offset="0" stop-color="#285180"/><stop offset="1" stop-color="#85b9f4"/></linearGradient></defs><g data-name="Layer 2"><g data-name="Upscaped Icons"><path fill="none" d="M0 0h545.45v545.45H0z"/><path d="M540.39 365.54L509 344.62l-49.42-108.73a34.15 34.15 0 00-31-20h-87.67a11.36 11.36 0 00-11.36 11.36v170.48h-159.1V375h22.73a11.37 11.37 0 0011.37-11.36v-56.82a11.37 11.37 0 00-6.89-10.45l-35.54-15.23L500 80.47v62c0 15.86 6.79 30.92 19.11 42.42a11.36 11.36 0 11-15.78 16.35l-6.66-6.66a11.36 11.36 0 10-16.07 16.07l6.66 6.66a34 34 0 0024.11 10 35.35 35.35 0 008.31-1 34.09 34.09 0 0014.93-58c-7.66-7.15-11.88-16.31-11.88-25.8V68.18a11.51 11.51 0 00-.06-1.18l9.62-5.71a26.84 26.84 0 00.2-46.06A26.85 26.85 0 00508 13.57l-.13.06L29.44 228.27a10.86 10.86 0 00-1.61.87 11.36 11.36 0 00-5.11 9.49v125A11.36 11.36 0 0034.09 375h45.46v22.73H11.36A11.36 11.36 0 000 409.09v79.55A11.37 11.37 0 0011.36 500h69.33A56.83 56.83 0 00192 500h184.1a56.83 56.83 0 00111.35 0h46.6a11.36 11.36 0 0011.36-11.36V375a11.35 11.35 0 00-5.02-9.46zm-58-24.63h-61.9v-56.82h36.08zm34.7-306.5a4.11 4.11 0 013.69.27 4 4 0 012 3.56 4 4 0 01-2 3.49L136.27 270.06 62.38 238.4zM45.45 255.87l136.37 58.44v38H45.45zM102.27 375h45.46v22.73h-45.46zm34.09 147.73a34.1 34.1 0 1134.09-34.09 34.14 34.14 0 01-34.09 34.09zm0-90.91a56.91 56.91 0 00-55.67 45.45h-58v-56.82h306.86v56.82H192a56.92 56.92 0 00-55.64-45.45zm295.46 90.91a34.1 34.1 0 1134.09-34.09 34.13 34.13 0 01-34.09 34.09zm55.67-45.46a56.83 56.83 0 00-111.35 0h-23.87V238.64h76.28a11.38 11.38 0 0110.34 6.66l7.31 16.06h-37.11a11.36 11.36 0 00-11.36 11.37v79.54a11.36 11.36 0 0011.36 11.37h87.47l26.17 17.44v16.65h-34.09v22.72h34.09v56.82z" fill="url(#a)"/></g></g></svg>