<svg xmlns="http://www.w3.org/2000/svg" xmlns:xlink="http://www.w3.org/1999/xlink" viewBox="0 0 545.47 545.45"><defs><linearGradient id="a" x1="381.66" y1="488.64" x2="413.8" y2="488.64" gradientTransform="rotate(45 397.71 488.587)" gradientUnits="userSpaceOnUse"><stop offset="0" stop-color="#285180"/><stop offset="1" stop-color="#85b9f4"/></linearGradient><linearGradient id="b" x1="40.75" y1="488.64" x2="72.89" y2="488.64" gradientTransform="rotate(45 56.835 488.602)" xlink:href="#a"/><linearGradient id="c" x1="108.93" y1="488.64" x2="141.07" y2="488.64" gradientTransform="rotate(45 125 488.637)" xlink:href="#a"/><linearGradient id="d" x1="177.11" y1="488.64" x2="209.25" y2="488.64" gradientTransform="rotate(45 193.18 488.638)" xlink:href="#a"/><linearGradient id="e" x1="245.29" y1="488.64" x2="277.44" y2="488.64" gradientTransform="rotate(45 261.36 488.639)" xlink:href="#a"/><linearGradient id="f" x1="313.48" y1="488.64" x2="345.62" y2="488.64" gradientTransform="rotate(45 329.551 488.634)" xlink:href="#a"/><linearGradient id="g" x1="0" y1="272.73" x2="545.47" y2="272.73" xlink:href="#a"/></defs><g data-name="Layer 2"><g data-name="Upscaped Icons"><path fill="none" d="M0 0h545.45v545.45H0z"/><path transform="rotate(-45 397.69 488.612)" fill="url(#a)" d="M386.36 477.27h22.73V500h-22.73z"/><path transform="rotate(-45 56.796 488.604)" fill="url(#b)" d="M45.46 477.27h22.73V500H45.46z"/><path transform="rotate(-45 125.002 488.642)" fill="url(#c)" d="M113.64 477.27h22.73V500h-22.73z"/><path transform="rotate(-45 193.182 488.641)" fill="url(#d)" d="M181.82 477.27h22.73V500h-22.73z"/><path transform="rotate(-45 261.362 488.64)" fill="url(#e)" d="M250 477.27h22.73V500H250z"/><path transform="rotate(-45 329.541 488.64)" fill="url(#f)" d="M318.18 477.27h22.73V500h-22.73z"/><path d="M534.61 236.43c-7.66-7.15-11.88-16.31-11.88-25.8V79.54a11.2 11.2 0 00-.38-2.85l19.88-37.17A26.83 26.83 0 00518.58 0a26.87 26.87 0 00-21.84 11.26l-.1.15-195.79 284H274l-50.82-151.3a11.37 11.37 0 00-10.77-7.75h-84.62A34.23 34.23 0 0094 165.85L80.17 267.4l-24.73 24.73a33.87 33.87 0 00-10 24.1v81.5a11.37 11.37 0 0011.37 11.36h79.54v22.73H56.82a56.82 56.82 0 100 113.63h340.91a56.82 56.82 0 100-113.63h-56.82v-22.73h45.45a11.37 11.37 0 0011.37-11.36v-88.06L500 118.47v92.16c0 15.86 6.79 30.92 19.11 42.42a11.36 11.36 0 11-15.78 16.35l-6.66-6.66a11.36 11.36 0 10-16.07 16.07l6.66 6.66a34 34 0 0024.11 10 35.87 35.87 0 008.31-1 34.1 34.1 0 0014.93-58zm-19.32-212a4.08 4.08 0 013.29-1.67 4 4 0 013.55 2 4 4 0 01.08 4l-142.66 266.7h-51.1zM250 295.46h-35.07l-24.1-24.11a33.87 33.87 0 00-24.11-10h-7.63V159.09h45.15zM127.79 159.09h8.57v102.27h-32.43l12.6-92.44a11.42 11.42 0 0111.26-9.83zm304 329.55a34.13 34.13 0 01-34.09 34.09H56.82a34.1 34.1 0 010-68.19h340.91a34.13 34.13 0 0134.09 34.1zm-113.61-56.82H159.09v-22.73h159.09zM375 386.36H68.18v-34.09h34.09v-22.72H68.18v-13.32a11.26 11.26 0 013.33-8l24.11-24.11h71.1a11.28 11.28 0 018 3.33l27.43 27.43a11.37 11.37 0 008 3.33H375z" fill="url(#g)"/></g></g></svg>