<svg xmlns="http://www.w3.org/2000/svg" xmlns:xlink="http://www.w3.org/1999/xlink" viewBox="0 0 545.45 545.45"><defs><linearGradient id="a" x1="74.84" y1="488.64" x2="106.98" y2="488.64" gradientTransform="rotate(45 90.909 488.616)" gradientUnits="userSpaceOnUse"><stop offset="0" stop-color="#285180"/><stop offset="1" stop-color="#85b9f4"/></linearGradient><linearGradient id="b" x1="0" y1="357.95" x2="545.45" y2="357.95" xlink:href="#a"/><linearGradient id="c" x1="472.57" y1="488.64" x2="504.71" y2="488.64" gradientTransform="rotate(45 488.638 488.64)" xlink:href="#a"/><linearGradient id="d" x1="188.47" y1="488.64" x2="220.62" y2="488.64" gradientTransform="rotate(45 204.55 488.637)" xlink:href="#a"/></defs><g data-name="Layer 2"><g data-name="Upscaped Icons"><path fill="none" d="M0 0h545.45v545.45H0z"/><path transform="rotate(-45 90.902 488.617)" fill="url(#a)" d="M79.55 477.27h22.73V500H79.55z"/><path d="M522.73 443.21v-34.12a11.37 11.37 0 00-4.55-9.09l-45.45-34.09a11.34 11.34 0 00-6.82-2.27H295.45v-22.73a11.35 11.35 0 00-11.36-11.36h-12.5l-40.46-136.37H250v-22.73H127.79A34.23 34.23 0 0094 199.94v.18l-11.42 95.33H45.45a11.39 11.39 0 00-9.09 4.55L2.27 345.45A11.4 11.4 0 000 352.27v125a11.37 11.37 0 0011.36 11.37h22.73a56.86 56.86 0 104.76-22.73H22.73v-79.55h68.18v-22.72H22.73v-7.58l28.41-37.88h114.61l30.76 30.76a11.33 11.33 0 008 3.33h68.18v113.64h-16.08a56.8 56.8 0 104.75 22.73h22.73a11.36 11.36 0 0011.36-11.37v-90.91h166.67L500 414.77V433a56.87 56.87 0 00-67 44.31h-80.73v-34.13h-22.72V500a11.36 11.36 0 001.2 5.08l20.16 40.33 20.33-10.16L353.61 500H433a56.82 56.82 0 1089.77-56.79zM90.91 454.55a34.09 34.09 0 11-34.09 34.09 34.13 34.13 0 0134.09-34.09zm113.64 68.18a34.09 34.09 0 1134.09-34.13 34.14 34.14 0 01-34.09 34.13zm-88-319.79a11.41 11.41 0 0111.25-9.76h8.57v102.27h-30.9zm62 95.84a11.37 11.37 0 00-8-3.33h-11.46V193.18h48.34l40.45 136.37h-38.63zm310.15 224a34.09 34.09 0 1134.09-34.09 34.13 34.13 0 01-34.15 34.04z" fill="url(#b)"/><path transform="rotate(-45 488.64 488.638)" fill="url(#c)" d="M477.27 477.27H500V500h-22.73z"/><path transform="rotate(-45 204.54 488.637)" fill="url(#d)" d="M193.18 477.27h22.73V500h-22.73z"/></g></g></svg>