<svg width="43" height="44" fill="none" xmlns="http://www.w3.org/2000/svg"><path d="M36.042 28.15a20.43 20.43 0 00-7.815-5.005 12.21 12.21 0 005.162-10.004C33.39 6.446 28.056 1 21.5 1 14.944 1 9.61 6.446 9.61 13.14a12.21 12.21 0 005.163 10.005 20.43 20.43 0 00-7.815 5.006C3.074 32.117.935 37.39.935 43h3.213c0-9.77 7.784-17.719 17.352-17.719 9.568 0 17.352 7.949 17.352 17.719h3.213c0-5.61-2.139-10.883-6.023-14.85zM21.5 22c-4.784 0-8.676-3.974-8.676-8.86 0-4.885 3.892-8.859 8.676-8.859 4.784 0 8.676 3.974 8.676 8.86 0 4.885-3.892 8.859-8.676 8.859z" fill="#fff"/><path fill-rule="evenodd" clip-rule="evenodd" d="M36.687 27.427C40.751 31.577 43 37.11 43 43v1h-5.083v-1c0-9.175-7.324-16.719-16.417-16.719-9.093 0-16.417 7.544-16.417 16.719v1H0v-1c0-5.89 2.249-11.423 6.313-15.573a21.467 21.467 0 016.548-4.584 13.255 13.255 0 01-4.185-9.702C8.676 5.85 14.469 0 21.5 0c7.03 0 12.824 5.85 12.824 13.14 0 3.851-1.623 7.306-4.185 9.703a21.467 21.467 0 016.548 4.584zm-7.382-3.867a20.08 20.08 0 00-1.078-.415 12.222 12.222 0 005.162-10.005C33.39 6.447 28.056 1 21.5 1 14.944 1 9.61 6.446 9.61 13.14a12.222 12.222 0 005.163 10.005 20.08 20.08 0 00-1.078.415 20.5 20.5 0 00-6.737 4.59c-3.652 3.73-5.762 8.616-6 13.85a21.95 21.95 0 00-.023 1h3.213c0-9.77 7.784-17.719 17.352-17.719 9.568 0 17.352 7.949 17.352 17.719h3.213c0-.335-.007-.668-.023-1-.238-5.234-2.348-10.12-6-13.85a20.502 20.502 0 00-6.737-4.59zM13.759 13.14c0 4.29 3.432 7.86 7.741 7.86 4.31 0 7.741-3.57 7.741-7.86 0-4.289-3.432-7.859-7.741-7.859-4.31 0-7.741 3.57-7.741 7.86zm-.935 0c0 4.886 3.892 8.86 8.676 8.86 4.784 0 8.676-3.974 8.676-8.86 0-4.885-3.892-8.859-8.676-8.859-4.784 0-8.676 3.974-8.676 8.86z" fill="#fff"/></svg>