<svg xmlns="http://www.w3.org/2000/svg" xmlns:xlink="http://www.w3.org/1999/xlink" viewBox="0 0 545.45 545.45"><defs><linearGradient id="a" x1="284.09" y1="465.91" x2="352.27" y2="465.91" gradientUnits="userSpaceOnUse"><stop offset="0" stop-color="#285180"/><stop offset="1" stop-color="#85b9f4"/></linearGradient><linearGradient id="b" x1="51.14" y1="454.55" x2="130.68" y2="454.55" xlink:href="#a"/><linearGradient id="c" x1="0" y1="352.27" x2="545.45" y2="352.27" xlink:href="#a"/></defs><g data-name="Layer 2"><g data-name="Upscaped Icons"><path fill="none" d="M0 0h545.45v545.45H0z"/><path d="M318.18 431.82a34.09 34.09 0 1034.09 34.09 34.13 34.13 0 00-34.09-34.09zm0 45.45a11.36 11.36 0 1111.37-11.36 11.37 11.37 0 01-11.37 11.36z" fill="url(#a)"/><path d="M90.91 414.77a39.78 39.78 0 1039.77 39.78 39.82 39.82 0 00-39.77-39.78zm0 56.82a17 17 0 1117-17 17.07 17.07 0 01-17 17z" fill="url(#b)"/><path d="M536.49 522.73l-41-88.92 6.38-3.19-10.16-20.33-16.23 8.11a11.46 11.46 0 00-2.52 1.72l-47.15 42.44a35.74 35.74 0 00-9.8 14.71H396.9a79.16 79.16 0 00-21.9-66.95v-69.41a34.13 34.13 0 00-34.09-34.09h-34.09v-63.1l14.66-29.64L301.1 204l-15.83 32a11.31 11.31 0 00-1.18 5v65.76H247l-38.46-125h18.7v-22.67H94.43a34.09 34.09 0 00-33.87 30.19l-10.4 90.13L27 297.94a11.4 11.4 0 00-4.26 8.88v87.67a90.89 90.89 0 10156.21 82.78h60.52A79.53 79.53 0 00390 500h25.61A35.65 35.65 0 00441 523.75l85.46 21.37a11.7 11.7 0 002.76.33h16.23v-22.72zM223.25 306.82h-25.36l-24.11-24.11a33.86 33.86 0 00-24.1-10H125v-90.89h59.79zm-128.82-125h7.84v90.91H73.81l9.33-80.85a11.35 11.35 0 0111.29-10.06zm-3.52 340.91a68.19 68.19 0 1168.18-68.18 68.26 68.26 0 01-68.18 68.18zm0-159.09a90.33 90.33 0 00-45.46 12.2v-63.56l21-16.83h83.19a11.3 11.3 0 018 3.33l27.44 27.44a11.36 11.36 0 008 3.33h147.83a11.37 11.37 0 0111.36 11.36v53.14a79.51 79.51 0 00-112.81 60.5h-57.64a91 91 0 00-90.91-90.91zm227.27 159.09A56.82 56.82 0 11375 465.91a56.89 56.89 0 01-56.82 56.82zm118.88-30.49a12.8 12.8 0 013.94-12.79l35.69-32.12 32.3 70-62.48-15.63a12.78 12.78 0 01-9.45-9.46z" fill="url(#c)"/></g></g></svg>