<svg width="40" height="40" fill="none" xmlns="http://www.w3.org/2000/svg"><circle cx="20" cy="20" r="20" fill="#F9F7F7"/><g fill="#285180"><path d="M21 20.188a1 1 0 11-2 0 1 1 0 012 0z"/><path fill-rule="evenodd" clip-rule="evenodd" d="M29.027 19.414h.655a.586.586 0 110 1.172h-.655a8.788 8.788 0 01-8.174 8.173v.655a.586.586 0 11-1.171 0v-.655a8.788 8.788 0 01-8.174-8.173h-.654a.586.586 0 110-1.172h.654a8.788 8.788 0 018.174-8.174v-.654a.586.586 0 111.172 0v.655a8.788 8.788 0 018.173 8.173zm-1.172 1.171H27.3a.585.585 0 110-1.171h.556a7.62 7.62 0 00-7.002-7.002v.557a.586.586 0 11-1.171 0v-.557a7.62 7.62 0 00-7.002 7.002h.556a.586.586 0 110 1.172h-.556a7.62 7.62 0 007.002 7.001v-.556a.586.586 0 111.172 0v.556a7.62 7.62 0 007.001-7.002z"/></g></svg>