<svg width="80" height="79" fill="none" xmlns="http://www.w3.org/2000/svg"><path d="M67.533 46.635C60.14 43.538 50.362 41.832 40 41.832c-10.362 0-20.14 1.706-27.533 4.803C4.427 50.003 0 54.733 0 59.952c0 5.22 4.428 9.949 12.467 13.317C19.86 76.366 29.638 78.072 40 78.072c10.362 0 20.14-1.706 27.533-4.803C75.573 69.901 80 65.171 80 59.952c0-5.22-4.428-9.949-12.467-13.317z" fill="#285180"/><path d="M40 41.832c-10.362 0-20.14 1.706-27.533 4.803C4.427 50.003 0 54.733 0 59.952c0 5.22 4.428 9.949 12.467 13.317C19.86 76.366 29.638 78.072 40 78.072v-36.24z" fill="#4477B2"/><path d="M69.267 20.066L77.59 9.848a2.344 2.344 0 00-2.241-3.786C68.744 7.278 63.584 5.7 58.595 4.171 52.998 2.456 47.222.688 40.408 3.559v28.118c.27-.03.54-.104.796-.232 5.71-2.855 10.258-1.461 16.018.303 3.938 1.206 8.267 2.533 13.43 2.532a30.52 30.52 0 005.547-.512 2.343 2.343 0 001.37-3.812l-8.302-9.89z" fill="#C2132C"/><path d="M57.85 3.943C52.483 2.309 46.92.816 40.407 3.559v28.118c.27-.03.54-.104.796-.232 5.71-2.855 10.258-1.461 16.018.303l.627.192V3.943z" fill="#FF3F5C"/><path d="M56.899 52.737C52.352 51.35 46.35 50.585 40 50.585c-6.35 0-12.352.764-16.899 2.152-6.922 2.113-8.375 5.078-8.375 7.192s1.453 5.078 8.375 7.192C27.648 68.509 33.65 69.273 40 69.273c6.35 0 12.352-.764 16.899-2.152 6.922-2.114 8.375-5.078 8.375-7.192s-1.453-5.078-8.375-7.192z" fill="#D6E9F8"/><path d="M40 50.585c-6.35 0-12.352.764-16.899 2.152-6.922 2.113-8.375 5.078-8.375 7.192s1.453 5.078 8.375 7.192C27.648 68.509 33.65 69.273 40 69.273V50.585z" fill="#F0F0F0"/><path d="M40 62.93c7.591 0 13.745-1.344 13.745-3.002 0-1.658-6.154-3.002-13.745-3.002-7.591 0-13.745 1.344-13.745 3.002 0 1.658 6.154 3.002 13.745 3.002z" fill="#C2132C"/><path d="M40 56.927c-7.591 0-13.745 1.344-13.745 3.002 0 1.658 6.154 3.002 13.745 3.002v-6.004z" fill="#FF3F5C"/><path d="M42.344 59.952V2.344a2.344 2.344 0 00-4.688 0v57.608h4.688z" fill="#D6E9F8"/></svg>