<svg width="80" height="80" fill="none" xmlns="http://www.w3.org/2000/svg"><path d="M74.286 19.393C77.564 25.607 80 32.463 80 40c0 22.091-17.909 40-40 40S0 62.091 0 40 17.909 0 40 0c7.675 0 15.156 2.349 21.245 6.096 0 0 9.443 6.477 13.04 13.297z" fill="#4477B2"/><path d="M80 40c0-7.538-2.436-14.393-5.714-20.607-3.599-6.82-13.04-13.297-13.04-13.297C55.155 2.349 47.674 0 40 0v80c22.091 0 40-17.909 40-40z" fill="#285180"/><path d="M63.227 28.472c1.707 3.64 2.697 7.23 2.697 11.528 0 14.317-11.607 25.924-25.924 25.924S14.076 54.317 14.076 40 25.683 14.076 40 14.076c4.522 0 8.417.964 12.118 3 0 0 7.875 4.499 11.11 11.396z" fill="#F0F0F0"/><path d="M65.924 40c0-4.297-.99-7.888-2.697-11.528-3.234-6.897-11.109-11.396-11.109-11.396-3.701-2.036-7.596-3-12.118-3v51.848c14.317 0 25.924-11.607 25.924-25.924z" fill="#D6E9F8"/><path d="M40 52.203c6.74 0 12.203-5.464 12.203-12.203 0-6.74-5.464-12.203-12.203-12.203-6.74 0-12.203 5.464-12.203 12.203 0 6.74 5.464 12.203 12.203 12.203z" fill="#FF3F5C"/><path d="M52.203 40c0-6.74-5.464-12.203-12.203-12.203v24.406c6.74 0 12.203-5.464 12.203-12.203z" fill="#C2132C"/><path d="M39.507 43.247a2.466 2.466 0 01-1.738-4.215L68.2 8.801a2.466 2.466 0 013.476 3.498L41.245 42.531a2.459 2.459 0 01-1.738.716z" fill="#F0F0F0"/><path d="M71.62 7.592l-2.246-6.488a1.538 1.538 0 00-2.54-.584L54.081 13.271c-.37.37-.526.903-.415 1.414l1.872 8.617a1.54 1.54 0 001.104 1.16l8.854 2.375c.53.143 1.097-.01 1.486-.398L79.55 13.873a1.538 1.538 0 00-.474-2.497L72.46 8.499a1.54 1.54 0 01-.84-.907z" fill="#FF3F5C"/><path d="M71.687 8.812c-.019-.019-.04-.035-.058-.053L37.816 42.572a2.457 2.457 0 003.428-.041L71.676 12.3c.966-.96.971-2.522.011-3.488z" fill="#A8D3D8"/><path d="M79.07 11.38l-6.614-2.877a1.534 1.534 0 01-.354-.217L56.153 24.235c.146.102.308.183.486.23l8.854 2.377c.53.142 1.097-.01 1.486-.398l12.566-12.566a1.538 1.538 0 00-.475-2.498z" fill="#C2132C"/></svg>