<svg width="40" height="40" fill="none" xmlns="http://www.w3.org/2000/svg"><circle cx="20" cy="20" r="20" fill="#F9F7F7"/><path d="M29.44 17.488a1.447 1.447 0 00-.882-.47v-.001l-5.316-.734-2.103-5.027a1.443 1.443 0 00-2.664 0l-2.103 5.027-5.316.734a1.448 1.448 0 00-.763 2.515l4.004 3.57-.822 5.605c-.09.569.172 1.136.662 1.438a1.425 1.425 0 001.578-.03l4.092-2.782 4.092 2.785a1.445 1.445 0 002.24-1.408l-.822-5.606 4.004-3.572c.597-.532.65-1.447.118-2.044zm-5.362 4.809a.711.711 0 00-.23.637l.857 6-4.494-3.056a.714.714 0 00-.803 0l-4.52 3.037.879-5.984a.714.714 0 00-.231-.634l-4.286-3.863 5.72-.79a.714.714 0 00.561-.431l2.285-5.416a.032.032 0 01.005.01l2.26 5.403a.714.714 0 00.562.432l5.727.824-4.292 3.83z" fill="#285180"/></svg>