<svg width="75" height="53" fill="none" xmlns="http://www.w3.org/2000/svg"><path d="M23.16 52H13V12.836L.871 16.598V8.336l21.2-7.594h1.09V52zm51.117-21.164c0 7.078-1.465 12.492-4.394 16.242-2.93 3.75-7.219 5.625-12.867 5.625-5.578 0-9.844-1.84-12.797-5.52-2.953-3.68-4.465-8.953-4.535-15.82v-9.422c0-7.148 1.476-12.574 4.43-16.277C47.09 1.961 51.366.11 56.944.11s9.844 1.84 12.797 5.52c2.953 3.656 4.465 8.918 4.535 15.785v9.422zM64.117 20.5c0-4.242-.586-7.324-1.758-9.246-1.148-1.945-2.953-2.918-5.414-2.918-2.39 0-4.16.926-5.308 2.777-1.125 1.828-1.723 4.7-1.793 8.614v12.445c0 4.172.562 7.277 1.687 9.316 1.149 2.016 2.977 3.024 5.485 3.024 2.484 0 4.277-.973 5.379-2.918 1.101-1.946 1.675-4.922 1.722-8.93V20.5z" fill="#D6E9F8" fill-opacity=".4"/></svg>