<svg width="37" height="52" fill="none" xmlns="http://www.w3.org/2000/svg"><path d="M36.566 52H1.48v-6.96l16.56-17.65c2.273-2.484 3.948-4.652 5.026-6.503 1.102-1.852 1.653-3.61 1.653-5.274 0-2.273-.575-4.054-1.723-5.343-1.148-1.313-2.789-1.97-4.922-1.97-2.297 0-4.113.798-5.449 2.391-1.313 1.57-1.969 3.645-1.969 6.223H.461c0-3.117.738-5.965 2.215-8.543 1.5-2.578 3.61-4.594 6.328-6.047C11.723.848 14.804.11 18.25.11c5.273 0 9.363 1.266 12.27 3.797 2.93 2.531 4.394 6.106 4.394 10.723 0 2.531-.656 5.11-1.969 7.734-1.312 2.625-3.562 5.684-6.75 9.176L14.56 43.81h22.007V52z" fill="#D6E9F8" fill-opacity=".4"/></svg>