<svg width="36" height="53" fill="none" xmlns="http://www.w3.org/2000/svg"><path d="M11.816 21.906h5.414c2.579 0 4.489-.644 5.73-1.933 1.243-1.29 1.864-3 1.864-5.133 0-2.063-.62-3.668-1.863-4.817-1.219-1.148-2.906-1.722-5.063-1.722-1.945 0-3.574.539-4.886 1.617-1.313 1.055-1.969 2.438-1.969 4.148H.883c0-2.671.715-5.062 2.144-7.171 1.453-2.133 3.47-3.797 6.047-4.993C11.676.707 14.535.11 17.652.11c5.414 0 9.657 1.301 12.727 3.903 3.07 2.578 4.605 6.14 4.605 10.687 0 2.344-.715 4.5-2.144 6.469-1.43 1.969-3.305 3.48-5.625 4.535 2.883 1.031 5.027 2.578 6.433 4.64 1.43 2.063 2.145 4.5 2.145 7.313 0 4.547-1.664 8.192-4.992 10.934-3.305 2.742-7.688 4.113-13.149 4.113-5.109 0-9.293-1.348-12.55-4.043C1.867 45.965.25 42.402.25 37.973h10.16c0 1.922.715 3.492 2.145 4.71 1.453 1.22 3.234 1.829 5.343 1.829 2.415 0 4.301-.633 5.66-1.899 1.383-1.289 2.075-2.988 2.075-5.097 0-5.11-2.813-7.664-8.438-7.664h-5.379v-7.946z" fill="#D6E9F8" fill-opacity=".4"/></svg>