<svg width="36" height="53" fill="none" xmlns="http://www.w3.org/2000/svg"><path d="M1.992 26.828L4.945.813h28.688v8.472H13.277L12.012 20.29a16.108 16.108 0 017.699-1.934c4.875 0 8.695 1.512 11.46 4.536 2.767 3.023 4.15 7.254 4.15 12.691 0 3.305-.704 6.27-2.11 8.895-1.383 2.601-3.375 4.629-5.977 6.082-2.601 1.43-5.672 2.144-9.21 2.144-3.094 0-5.965-.621-8.614-1.863-2.648-1.266-4.746-3.035-6.293-5.309-1.523-2.273-2.332-4.863-2.426-7.77h10.055c.211 2.133.95 3.798 2.215 4.993 1.289 1.172 2.965 1.758 5.027 1.758 2.297 0 4.067-.82 5.309-2.461 1.242-1.664 1.863-4.008 1.863-7.032 0-2.906-.715-5.132-2.144-6.68-1.43-1.546-3.457-2.32-6.082-2.32-2.415 0-4.372.633-5.872 1.899l-.984.914-8.086-2.004z" fill="#D6E9F8" fill-opacity=".4"/></svg>