<svg width="36" height="53" fill="none" xmlns="http://www.w3.org/2000/svg"><path d="M28.043.285v8.367h-.984c-4.594.07-8.297 1.266-11.11 3.586-2.789 2.32-4.465 5.543-5.027 9.668 2.719-2.765 6.152-4.148 10.3-4.148 4.454 0 7.993 1.594 10.618 4.781 2.625 3.188 3.937 7.383 3.937 12.586 0 3.328-.726 6.34-2.18 9.035-1.429 2.696-3.468 4.793-6.117 6.293-2.625 1.5-5.601 2.25-8.93 2.25-5.39 0-9.75-1.875-13.077-5.625C2.168 43.328.516 38.324.516 32.066V28.41c0-5.555 1.043-10.453 3.129-14.695 2.109-4.266 5.12-7.559 9.035-9.88C16.617 1.493 21.176.31 26.355.286h1.688zm-9.914 25.63c-1.64 0-3.129.433-4.465 1.3-1.336.844-2.32 1.969-2.953 3.375v3.094c0 3.398.668 6.058 2.004 7.98 1.336 1.898 3.21 2.848 5.625 2.848 2.18 0 3.937-.856 5.273-2.567 1.36-1.734 2.04-3.972 2.04-6.715 0-2.789-.68-5.039-2.04-6.75-1.36-1.71-3.187-2.566-5.484-2.566z" fill="#D6E9F8" fill-opacity=".4"/></svg>