<svg width="35" height="53" fill="none" xmlns="http://www.w3.org/2000/svg"><path d="M24.246 31.54c-2.648 2.6-5.742 3.901-9.281 3.901-4.524 0-8.145-1.547-10.863-4.64C1.382 27.684.023 23.488.023 18.215c0-3.352.727-6.422 2.18-9.211C3.68 6.19 5.73 4.012 8.355 2.464 10.98.895 13.934.11 17.215.11c3.375 0 6.375.844 9 2.532 2.625 1.687 4.664 4.113 6.117 7.277 1.453 3.164 2.191 6.785 2.215 10.863v3.762c0 8.531-2.121 15.234-6.363 20.11-4.243 4.874-10.254 7.476-18.036 7.804l-2.496.035V44.02l2.25-.036c8.836-.398 13.618-4.547 14.344-12.445zm-6.785-3.868c1.64 0 3.047-.422 4.219-1.266 1.195-.843 2.097-1.863 2.707-3.058v-4.184c0-3.445-.657-6.117-1.969-8.016-1.313-1.898-3.07-2.847-5.273-2.847-2.04 0-3.715.937-5.028 2.812-1.312 1.852-1.969 4.184-1.969 6.996 0 2.79.633 5.086 1.899 6.891 1.289 1.781 3.094 2.672 5.414 2.672z" fill="#D6E9F8" fill-opacity=".4"/></svg>