<svg xmlns="http://www.w3.org/2000/svg" xmlns:xlink="http://www.w3.org/1999/xlink" viewBox="0 0 545.45 545.45"><defs><linearGradient id="a" y1="352.27" x2="545.45" y2="352.27" gradientUnits="userSpaceOnUse"><stop offset="0" stop-color="#285180"/><stop offset="1" stop-color="#85b9f4"/></linearGradient><linearGradient id="b" x1="46.43" y1="482.95" x2="78.57" y2="482.95" gradientTransform="rotate(45 62.502 482.96)" xlink:href="#a"/></defs><g data-name="Layer 2"><g data-name="Upscaped Icons"><path fill="none" d="M0 0h545.45v545.45H0z"/><path d="M536.49 522.73l-41-88.92 6.38-3.19-10.16-20.33-16.23 8.11a11.7 11.7 0 00-2.52 1.72l-47.15 42.44a35.74 35.74 0 00-9.8 14.71h-24.23a62.23 62.23 0 00-14.06-34.09h20a11.37 11.37 0 0011.36-11.36v-79.55A34.13 34.13 0 00375 318.18h-34.09v-65.5l18.9-37.8-20.33-10.16-20.1 40.2a11.36 11.36 0 00-1.2 5.08v68.18h-40.46l-46-136.36H250v-22.73H123.34a34.24 34.24 0 00-34 31.52L82 288.35l-26.51 26.5a33.87 33.87 0 00-10 24.11v83.88a62.48 62.48 0 0011.33 122.34v.27h272.73A62.59 62.59 0 00389.66 500h26A35.62 35.62 0 00441 523.75l85.46 21.37a11.7 11.7 0 002.76.33h16.23v-22.72zm-167.58-45.46h-78.73a39.77 39.77 0 0178.73 0zm-164.36 0V500h64.88a62.38 62.38 0 0011.94 22.73H110.68a62.4 62.4 0 000-79.55h170.69a62.14 62.14 0 00-14.05 34.09zm3.2-295.45l46 136.36h-33.13l-24.11-24.1a33.87 33.87 0 00-24.11-10h-13.31V181.82zm-84.41 0h13v102.27h-31.3l7-91.77a11.42 11.42 0 0111.3-10.5zm-51.83 149.1l24.11-24.1h76.78a11.28 11.28 0 018 3.33l27.43 27.43a11.39 11.39 0 008 3.33H375a11.37 11.37 0 0111.36 11.36v68.18H68.18V375h34.09v-22.73H68.18V339a11.28 11.28 0 013.33-8.08zM22.73 483a39.77 39.77 0 1139.77 39.73A39.81 39.81 0 0122.73 483zm306.82 39.78A39.82 39.82 0 01293.62 500h71.85a39.82 39.82 0 01-35.92 22.73zm107.51-30.49a12.78 12.78 0 013.94-12.84l35.68-32.12 32.3 70-62.47-15.63a12.78 12.78 0 01-9.45-9.46z" fill="url(#a)"/><path transform="rotate(-45 62.504 482.95)" fill="url(#b)" d="M51.14 471.59h22.73v22.73H51.14z"/></g></g></svg>