<svg width="136" height="85" fill="none" xmlns="http://www.w3.org/2000/svg"><g clip-path="url(#clip0)" fill="#fff"><path d="M18.354 61.96c-.731-.755-1.61-1.287-2.575-1.69-1.505-.617-3.084-.861-4.684-.925-2.088-.085-4.154.127-6.21.468-.307.053-.434.201-.498.488-.583 2.402-1.155 4.815-1.738 7.217C1.833 70.929 1.007 74.34.18 77.752c-.032.138-.116.266-.18.404v.074c.19.075.37.192.562.224 1.303.265 2.628.414 3.952.488 1.547.085 3.095.139 4.642-.095 2.628-.404 5.001-1.392 7.025-3.125 2.946-2.53 4.451-5.696 4.049-9.65-.149-1.562-.753-2.965-1.876-4.113zM13.5 74.233c-1.43 1.137-3.083 1.775-4.874 2.062-1.463.234-2.935.213-4.398 0-.106-.021-.222-.053-.37-.085.328-1.35.646-2.646.964-3.943l2.384-9.724c.01-.053.032-.096.042-.149.085-.308.096-.33.414-.35.943-.064 1.886-.15 2.818-.15 1.039 0 2.056.16 3.042.521 2.066.766 3.21 2.253 3.338 4.464.18 3.04-1.007 5.484-3.36 7.354zm46.807-8.682c-.074-.032-.149-.053-.223-.085a18.466 18.466 0 00-4.599-1.02c-2.108-.17-4.122.149-6.019 1.116-2.013 1.03-3.486 2.572-4.228 4.75-.466 1.372-.593 2.774-.18 4.167.593 2.019 1.982 3.262 3.942 3.89 1.6.51 3.21.446 4.811-.022.106-.032.212-.053.382-.096-.191.596-.35 1.138-.541 1.648-.54 1.403-1.558 2.253-3.03 2.55-1.145.224-2.268.128-3.381-.127-.551-.128-1.092-.308-1.643-.468-.18-.053-.328-.074-.434.128-.297.563-.593 1.116-.88 1.69-.095.19-.042.276.138.372a.917.917 0 00.18.074c1.05.35 2.11.616 3.2.733.36.043.71.106 1.07.16h.774c.138-.032.276-.064.414-.075.996-.095 1.97-.255 2.903-.627 2.067-.818 3.423-2.253 3.942-4.453.848-3.528 1.717-7.046 2.575-10.564.265-1.094.477-2.2.954-3.241a.515.515 0 00.032-.075c.095-.244.063-.318-.16-.425zm-5.49 9.98c-.063.265-.19.393-.423.5-1.25.52-2.533.637-3.826.212-1.409-.468-2.161-1.499-2.331-2.955-.307-2.593 1.378-5.75 4.78-6.397 1.292-.245 2.564-.064 3.814.297-.668 2.806-1.346 5.569-2.013 8.343zm80.198-16.25c-.805-.01-1.6 0-2.406-.01-.212 0-.349.063-.381.286-.011.075-.042.15-.064.224-1.335 5.558-2.681 11.116-4.016 16.685-.148.627-.307 1.254-.445 1.892-.053.255.011.34.254.361.064.01.128 0 .191 0h2.172c.435 0 .435-.01.552-.436.01-.042.021-.074.021-.117l1.748-7.205c.88-3.624 1.749-7.248 2.628-10.861.043-.16.096-.309.138-.468v-.234c-.127-.032-.254-.117-.392-.117zM102.504 19.64c-.265-1.987-.71-3.922-1.41-5.803-1.303-3.507-3.317-6.525-6.241-8.884C91.154 1.987 86.894.457 82.21.074a21.254 21.254 0 00-6.136.394c-5.49 1.158-10.226 3.74-14.38 7.482a2.96 2.96 0 00-.403.414c-.053.064-.074.213-.031.266.042.053.18.085.264.064.212-.086.435-.192.657-.287 1.971-.798 3.985-1.276 6.126-.989 2.182.298 3.836 1.382 4.842 3.39.625 1.255.88 2.594.954 3.975a19.559 19.559 0 01-.498 5.441c-.498 2.147-1.303 4.177-2.247 6.154-1.653 3.496-3.677 6.791-5.902 9.947-1.992 2.817-4.101 5.537-6.528 8.003-.042.042-.106.085-.127.149-.021.064-.042.16-.01.212.031.053.127.096.19.085a.93.93 0 00.276-.127c3.804-2.7 7.418-5.643 10.639-9.034 2.374-2.497 4.493-5.186 6.167-8.215 1.823-3.294 3.02-6.78 3.169-10.585a17.824 17.824 0 00-.551-5.24c-.223-.892-.54-1.753-.9-2.603-.054-.128-.107-.245 0-.362.105-.116.232-.074.36-.02.328.127.646.244.974.392 3.974 1.743 6.464 4.708 7.429 8.96.54 2.39.54 4.803.265 7.226-.244 2.168-.7 4.294-1.293 6.388-.223.775-.456 1.54-.689 2.306-.032.117-.095.266.053.35.159.096.265-.02.36-.127.022-.021.032-.042.053-.064 1.918-2.36 3.508-4.9 4.568-7.769 1.24-3.358 1.62-6.79.837-10.308-.54-2.424-1.569-4.602-3.2-6.483-.721-.83-1.537-1.541-2.512-2.051-.233-.117-.477-.202-.71-.309-.138-.063-.212-.16-.159-.308.053-.16.18-.17.318-.117.37.117.742.234 1.102.362 4.896 1.732 8.658 4.825 11.137 9.426 1.929 3.582 2.787 7.45 3.052 11.478a35.176 35.176 0 01-.063 5.282c-.16 1.924-.445 3.837-.912 5.707-.137.563-.307 1.127-.466 1.68-.032.127-.042.233.096.297.127.064.222-.01.296-.106.064-.096.117-.202.17-.308 2.649-5.197 3.868-10.745 3.952-16.441-.031-1.552-.106-2.987-.296-4.411z"/><path d="M33.952 59.185c1.24-.563 2.533-.775 3.89-.68a8.8 8.8 0 012.447.553c1.007.372 2.035.468 3.084.244.911-.191 1.717-.627 2.459-1.2.741-.574 1.377-1.255 1.96-1.988 1.261-1.583 2.522-3.156 3.751-4.761 4.112-5.357 8.022-10.851 11.572-16.6 1.96-3.178 3.804-6.42 5.34-9.82.933-2.073 1.76-4.177 2.258-6.398.318-1.414.498-2.838.276-4.283-.308-2.009-1.42-3.348-3.36-3.964-1.229-.394-2.48-.34-3.72-.096-2.468.489-4.704 1.53-6.77 2.965-.075.053-.138.128-.223.149a.443.443 0 01-.286-.021c-.053-.032-.074-.16-.064-.234.01-.096.064-.191.106-.287a19.587 19.587 0 001.346-5.643c.17-1.871.042-3.73-.307-5.57-.085-.435-.191-.86-.286-1.285-.032-.15-.096-.245-.265-.224-.17.022-.191.15-.191.287v.043c-.01 1.53-.202 3.05-.456 4.56-.477 2.762-1.187 5.462-2.183 8.087-.583 1.551-1.356 2.976-2.437 4.262-.943 1.126-1.823 2.327-2.66 3.539-1.685 2.433-3.052 5.016-3.9 7.864-.074.255-.17.34-.328.298-.201-.053-.19-.213-.19-.372.031-.893.073-1.786.105-2.838.032-.701.074-1.552.117-2.412.01-.117.032-.245-.01-.351-.033-.075-.139-.149-.223-.17-.053-.01-.16.074-.202.138-.042.074-.053.17-.074.255a63.091 63.091 0 00-1.017 5.622 56.861 56.861 0 00-.551 8.492c.01.584.021 1.169.053 1.753.01.16-.032.362.159.447.212.095.318-.096.445-.213l.085-.085c1.027-1.127 2.077-2.242 3.083-3.39 1.494-1.722 3.01-3.422 4.737-4.92a4.256 4.256 0 001.028-1.308c.466-.903.466-1.817-.01-2.72-.244-.468-.584-.851-.976-1.202-.275-.244-.296-.287-.084-.574.975-1.339 1.928-2.699 2.946-4.006 1.133-1.456 2.416-2.774 3.889-3.89.741-.563 1.536-1.052 2.416-1.381 1.324-.51 2.66-.606 4.005-.043.647.266 1.018.733 1.155 1.403.16.723.085 1.445-.042 2.157-.233 1.307-.668 2.55-1.155 3.784-1.05 2.635-2.352 5.165-3.74 7.63-3.741 6.632-7.97 12.945-12.569 19.013-1.42 1.87-2.871 3.71-4.503 5.399-.35.361-.742.68-1.124 1.01-.265.233-.54.265-.89.117-1.26-.51-2.575-.766-3.942-.66-1.176.096-2.236.49-3.147 1.276-.583.5-1.039 1.084-1.293 1.807-.053.16-.17.35.01.51.16.149.308 0 .456-.075zm57.414-21.319c-1.356-.637-2.797-.924-4.27-1.01-1.971-.116-3.932.075-5.86.479a51.579 51.579 0 00-16.425 6.504c-4.907 2.986-9.156 6.749-13.12 10.872-.19.202-.222.34-.116.468.106.127.223.106.466-.085.7-.532 1.389-1.084 2.099-1.605 5.245-3.805 10.882-6.93 16.817-9.512 3.295-1.434 6.665-2.667 10.183-3.454 1.653-.372 3.328-.637 5.034-.584.763.021 1.515.127 2.246.382 1.59.553 2.427 1.807 2.257 3.667-.074.84-.38 1.615-.784 2.338-.55.999-1.26 1.86-2.055 2.667-1.622 1.637-3.487 2.966-5.479 4.124-2.459 1.435-5.033 2.593-7.8 3.295-1.006.255-2.023.414-3.072.35-.128-.01-.265-.01-.382-.063a.4.4 0 01-.212-.245c-.01-.064.074-.18.138-.244.074-.075.17-.107.265-.16 1.95-1.169 3.762-2.53 5.298-4.219 1.155-1.275 2.11-2.689 2.724-4.315.042-.106.095-.223.106-.33 0-.084-.043-.201-.117-.254-.053-.043-.18-.032-.244 0-.116.063-.201.16-.307.244a35.749 35.749 0 01-3.486 2.72c-2.586 1.754-5.373 3.03-8.425 3.71-2.215.5-4.472.67-6.729.744-1.06.032-2.12.053-3.179.085-.159 0-.318.032-.37.212-.043.181.084.256.211.33.244.149.477.308.72.457 4.176 2.55 8.69 3.943 14.063 3.953.773.011 1.992-.085 3.21-.265a28.57 28.57 0 005.998-1.53c3.391-1.276 6.528-2.998 9.24-5.442 1.42-1.286 2.692-2.689 3.657-4.357.72-1.244 1.23-2.572 1.335-4.018.085-1.169-.117-2.274-.689-3.294-.678-1.212-1.706-2.03-2.946-2.615zm28.93 25.602c-1.017-1.88-2.618-3.04-4.62-3.656-1.579-.488-3.201-.573-4.833-.403-1.833.19-3.528.775-5.054 1.806-3.667 2.476-5.32 6.983-4.917 10.745.339 3.114 1.992 5.24 4.885 6.387 1.272.51 2.617.69 3.995.723.721-.075 1.441-.106 2.151-.223 2.702-.447 4.938-1.722 6.655-3.858 1.918-2.392 2.766-5.155 2.628-8.216a7.41 7.41 0 00-.89-3.305zm-5.86 11.51c-1.59 1.212-3.391 1.647-5.362 1.424a6.659 6.659 0 01-1.134-.212c-1.992-.585-3.158-1.935-3.561-3.954-.116-.584-.127-1.18-.19-1.775.127-1.87.614-3.602 1.653-5.165 1.187-1.796 2.818-2.933 4.948-3.294 1.219-.213 2.417-.15 3.593.244 1.663.563 2.713 1.711 3.168 3.39.774 2.838-.233 7.142-3.115 9.342zM73.33 64.999c-1.335-.563-2.744-.68-4.185-.532-1.834.192-3.497.808-4.938 1.967-2.247 1.796-3.423 4.123-3.2 7.046.158 2.157 1.25 3.751 3.168 4.75 1.144.595 2.384.819 3.677.83.466-.043.932-.054 1.388-.118 2.406-.34 4.419-1.402 5.966-3.294 1.378-1.69 2.024-3.635 1.78-5.824-.265-2.338-1.526-3.932-3.656-4.825zm-.148 7.917c-.742 1.786-1.981 3.04-3.878 3.571a3.642 3.642 0 01-.573.117c-.243.032-.487.043-.73.064 0 .021-.011.032-.011.042-.467-.095-.954-.127-1.4-.286-1.197-.415-1.864-1.318-2.119-2.52-.381-1.753.075-3.336 1.092-4.771.816-1.148 1.907-1.913 3.296-2.232.688-.16 1.388-.191 2.077-.032 1.26.277 2.066 1.074 2.469 2.285.424 1.276.286 2.54-.223 3.762zM41.317 65.03c-.932-.424-1.928-.595-2.935-.627-1.473-.031-2.914.203-4.334.532-.212.042-.308.16-.35.35-.138.596-.286 1.18-.434 1.776-.011.02-.011.053-.022.074-.042.276.075.382.36.319.096-.022.202-.064.297-.085 1.336-.372 2.692-.617 4.09-.585.605.01 1.188.117 1.718.425.974.563.985 1.637 0 2.179-.36.202-.753.361-1.145.457-1.123.255-2.246.478-3.37.701-1.08.213-2.15.447-3.179.85-.71.277-1.377.649-1.95 1.17-1.42 1.296-1.632 4.112.54 5.41.446.265.954.477 1.453.637 1.08.35 2.204.425 3.338.457.89-.075 1.78-.128 2.66-.234a20.835 20.835 0 003.22-.648c.308-.085.308-.096.34-.425.032-.415.032-.84.117-1.233.233-1.063.508-2.115.762-3.178.308-1.275.626-2.54.922-3.815.16-.712.202-1.435.022-2.158-.318-1.137-1.081-1.87-2.12-2.348zm-2.713 11.276c-.519.085-1.07.202-1.632.266-.932.106-1.886.16-2.818-.042a3.57 3.57 0 01-1.081-.394c-.89-.52-.986-1.647-.202-2.327.276-.244.626-.415.954-.574.784-.35 1.622-.5 2.459-.68 1.123-.234 2.257-.404 3.422-.872-.37 1.584-.73 3.072-1.102 4.623zm52.54-11.265a5.046 5.046 0 00-.87-.33c-1.112-.318-2.246-.35-3.38-.286-2.13.117-4.185.595-6.23 1.18-.234.063-.34.17-.36.425-.054.584-.096 1.169-.234 1.732-.689 2.912-1.41 5.813-2.109 8.725-.148.627-.307 1.254-.455 1.892-.053.255.01.33.254.361.085.011.18 0 .275 0h1.982c.54 0 .54 0 .668-.52.477-1.945.964-3.9 1.44-5.846.403-1.615.796-3.241 1.209-4.92a1.85 1.85 0 01.148-.053c.954-.287 1.929-.5 2.925-.574.615-.043 1.24-.053 1.854.106 1.209.298 1.728 1.042 1.611 2.274-.01.075-.021.15-.042.234-.223.967-.445 1.945-.678 2.912-.467 1.956-.944 3.9-1.41 5.856-.116.478-.063.553.424.553h2.098c.488 0 .488 0 .594-.468l1.907-7.886c.201-.85.382-1.69.265-2.572-.148-1.296-.742-2.231-1.886-2.795zm-60.667 1.818c.222.02.434.074.646.106.201.032.276-.075.318-.255.148-.606.307-1.201.445-1.807.074-.297 0-.383-.318-.425a11.631 11.631 0 00-2.978.021c-1.695.202-3.338.67-4.948 1.233-.233.085-.36.191-.382.457-.063.563-.127 1.137-.254 1.69-.371 1.605-.774 3.199-1.155 4.793-.456 1.86-.901 3.72-1.357 5.58-.095.382-.042.457.329.457.784.01 1.579.01 2.363 0 .307 0 .329-.022.413-.351.021-.064.032-.128.053-.192l1.463-6.121c.35-1.499.688-2.997 1.017-4.506.042-.18.148-.213.297-.255 1.324-.351 2.66-.595 4.048-.425zm96.898-2.147h-2.289c-.382 0-.392.01-.488.393l-.477 1.956-2.702 11.127c-.116.457-.063.531.403.531h2.172c.424 0 .435-.01.541-.446.667-2.731 1.324-5.452 1.992-8.183.402-1.648.795-3.295 1.197-4.942.085-.351.021-.436-.349-.436zm-1.103-2.296c.234.075.477.085.721.138.742-.032 1.367-.276 1.78-.744.615-.69.498-1.69-.286-2.189a2.265 2.265 0 00-.858-.319c-.784-.106-1.484.117-2.024.734-.763.86-.424 2.04.667 2.38z"/></g><defs><clipPath id="clip0"><path fill="#fff" d="M0 0h135.407v85H0z"/></clipPath></defs></svg>