<svg xmlns="http://www.w3.org/2000/svg" xmlns:xlink="http://www.w3.org/1999/xlink" viewBox="0 0 545.46 545.45"><defs><linearGradient id="a" y1="375" x2="545.45" y2="375" gradientUnits="userSpaceOnUse"><stop offset="0" stop-color="#285180"/><stop offset="1" stop-color="#85b9f4"/></linearGradient><linearGradient id="b" x1="397.73" y1="465.91" x2="465.91" y2="465.91" xlink:href="#a"/><linearGradient id="c" x1="0" y1="306.82" x2="488.64" y2="306.82" xlink:href="#a"/><linearGradient id="d" x1="231.84" y1="329.01" x2="274.49" y2="329.01" gradientTransform="rotate(82.75 253.162 328.997)" xlink:href="#a"/><linearGradient id="e" x1="174.12" y1="310.25" x2="212" y2="310.25" gradientTransform="rotate(82.75 193.063 310.242)" xlink:href="#a"/><linearGradient id="f" x1="116.41" y1="291.49" x2="149.51" y2="291.49" gradientTransform="rotate(82.75 132.964 291.486)" xlink:href="#a"/><linearGradient id="g" x1="58.69" y1="272.74" x2="87.02" y2="272.74" gradientTransform="rotate(82.75 72.854 272.73)" xlink:href="#a"/><linearGradient id="h" x1="45.45" y1="465.91" x2="113.64" y2="465.91" xlink:href="#a"/></defs><g data-name="Layer 2"><g data-name="Upscaped Icons"><path fill="none" d="M0 0h545.45v545.45H0z"/><path d="M544.77 337l-39.91-109.73h17.87v-22.72H381a11.36 11.36 0 00-11.27 9.92l-23.15 181.82 22.55 2.87 6-46.89h147.6v102.28h-12.19a79.54 79.54 0 00-158.27 11.36 78.8 78.8 0 00.83 11.36H158.27a79.52 79.52 0 00-78.72-90.91A79.55 79.55 0 10151.4 500H360a79.53 79.53 0 00150.58-22.73h23.55a11.35 11.35 0 0011.36-11.36v-125a11.46 11.46 0 00-.72-3.91zM79.55 522.73a56.82 56.82 0 1156.81-56.82 56.89 56.89 0 01-56.81 56.82zm352.27 0a56.82 56.82 0 1156.82-56.82 56.89 56.89 0 01-56.82 56.82zM378 329.55l13-102.28h18.09v102.28zm53.84-102.28h48.86l37.19 102.28h-86.07z" fill="url(#a)"/><path d="M431.82 431.82a34.09 34.09 0 1034.09 34.09 34.13 34.13 0 00-34.09-34.09zm0 45.45a11.37 11.37 0 1111.36-11.36 11.38 11.38 0 01-11.36 11.36z" fill="url(#b)"/><path d="M5.17 305l227.27 147.71a11.38 11.38 0 006.2 1.83h68.18a11.37 11.37 0 0011.28-10l32.84-262.77h137.7v-22.68H340.91a11.37 11.37 0 00-11.28 9.91l-4.43 35.51H21.49a11.37 11.37 0 00-11.28 9.92L.09 294a11.35 11.35 0 005.08 11zm26.33-77.73h290.85l-25.56 204.55H242l-218.47-142z" fill="url(#c)"/><path transform="rotate(-82.75 253.156 329.008)" fill="url(#d)" d="M173.52 317.65h159.3v22.73h-159.3z"/><path transform="rotate(-82.75 193.05 310.247)" fill="url(#e)" d="M132.32 298.89H253.8v22.73H132.32z"/><path transform="rotate(-82.75 132.948 291.49)" fill="url(#f)" d="M91.13 280.13h83.66v22.73H91.13z"/><path transform="rotate(-82.75 72.847 272.734)" fill="url(#g)" d="M49.93 261.37h45.84v22.73H49.93z"/><path d="M79.55 431.82a34.09 34.09 0 1034.09 34.09 34.13 34.13 0 00-34.09-34.09zm0 45.45a11.37 11.37 0 1111.36-11.36 11.38 11.38 0 01-11.36 11.36z" fill="url(#h)"/></g></g></svg>