<svg width="55" height="69" fill="none" xmlns="http://www.w3.org/2000/svg"><path fill="#fff" d="M0 0h55v68.88H0z"/><path d="M55 68.101V.13h-.778C36.45 0 18.549 0 .778 0H0v68.88h55v-.78zm-2.465-1.686H2.465V2.465h50.07v63.95z" fill="#134074"/><path d="M13.62 32.3h2.724v18.679h8.95V6.486h-8.95V22.31H13.62V6.486H4.54v44.493h9.08v-18.68zM49.552 6.486h-8.82v44.493h8.82V6.486zm-12.064 8.042h-8.82v36.58h8.82v-36.58z" fill="#134074"/><path d="M37.488 6.486v5.189c0 .259-.13.518-.389.518h-8.432V6.486h8.821z" fill="#E3000F"/><path d="M27.24 53.833h2.335v7.004c0 .26.26.778.26.778.519 0 .389-.518.389-.778v-7.004h2.335v6.745c0 1.427-.519 2.205-1.686 2.464-.779.26-1.557.13-2.335-.259-.649-.26-1.038-.778-1.168-1.557 0-.908-.13-1.945-.13-2.853v-4.54zm-13.36 0h2.335v6.745c0 1.037-.26 1.946-1.298 2.335-1.167.519-2.205.389-3.242-.39-.26-.259-.65-.648-.65-1.037v-7.653h2.206v6.616c.13.388-.26.907.39 1.166.129-.389.259-.778.259-1.167v-6.615zm6.226 9.209V59.67c0-.39 0-.779-.648-.779v4.151h-2.335v-9.34c1.297.13 2.594.13 3.891.26.649.13 1.038.649 1.168 1.297a5.58 5.58 0 010 2.076c-.13.389-.52.648-.779 1.037.52.13.908.649.908 1.427v2.854c0 .26-.13.39-.389.39h-1.816zm-.648-5.707c.648.13.648-.26.648-.649 0-1.038 0-1.167-.648-1.167v1.816zm27.37 5.707h-2.335v-9.21h2.205v3.114h.13c.26-.908.519-1.687.778-2.595.13-.389.26-.648.778-.648h1.557c-.39 1.167-.649 2.205-1.038 3.243-.26.648-.26 1.167 0 1.816.39 1.167.649 2.464 1.038 3.632 0 .13 0 .26.13.519h-2.076c-.13 0-.26-.26-.389-.39-.26-1.037-.519-1.945-.778-2.983v3.502zM7.783 59.54c-.908-.26-.26-.908-.519-1.427h2.724v4.93c-1.038.26-1.297.13-1.686-.52-.519.65-1.297.909-2.076.65-.648-.26-1.167-.65-1.426-1.428-.13-.259-.13-.518-.13-.648 0-1.946 0-3.762.13-5.708 0-.13.13-.389.13-.519.518-.908 1.556-1.426 2.983-1.167 1.037.13 1.816.778 2.075 1.816.13.39.13.649.13 1.038v.648H7.783V55.78c0-.13-.26-.39-.39-.52-.129.13-.259.26-.259.52v5.448c0 .13.26.389.39.519 0-.26.259-.39.259-.65V59.54zm27.759 4.67c.13-.26.39-.519.649-.778-.13-.13-.39-.13-.519-.26-1.556-.13-2.205-.908-2.335-2.464V59.67h2.205v1.427c0 .13.26.26.26.519.13-.13.389-.26.389-.39.26-.648 0-1.297-.519-1.686l-1.556-1.167c-1.038-.779-1.298-2.854-.52-3.892.26-.26.52-.519.909-.648.908-.39 1.945-.39 2.853.13.65.259.909.778 1.038 1.426v1.168h-2.075v-1.038c0-.13-.13-.26-.26-.39-.13.13-.26.13-.389.26-.26.519 0 1.168.39 1.427.518.39 1.037.649 1.426 1.038 1.038.908 1.557 2.983.908 4.15-.519.779-1.297 1.298-1.946 1.947-.13.13-.389.13-.648.259-.13.13-.26.13-.26 0zm3.243-10.377h2.076c.13 1.037.389 2.075.519 3.242.26-1.037.389-1.945.519-2.853 0-.13.259-.39.389-.39h1.816c-.39 1.168-.649 2.335-.908 3.373-.52 1.687-.779 3.373-.649 5.06 0 .777 0 .777-.778.777H40.6s-.13 0-.259-.13c.519-3.112-.908-5.966-1.557-9.08zM23.09 63.042v-9.21h2.334v7.394h1.427v1.816H23.09z" fill="#000"/></svg>