<svg width="31" height="44" fill="none" xmlns="http://www.w3.org/2000/svg"><path fill-rule="evenodd" clip-rule="evenodd" d="M4.732 14.727C4.732 8.803 9.535 4 15.46 4c5.924 0 10.727 4.803 10.727 10.727 0 3.718-1.891 6.994-4.764 8.919a1.99 1.99 0 00-.304.196 10.678 10.678 0 01-5.66 1.613c-5.924 0-10.727-4.803-10.727-10.728zM20.74 28.48c-1.639.63-3.419.974-5.28.974-1.86 0-3.639-.344-5.277-.973l-1.284 9.67 5.533-3.32a2 2 0 012.058 0l5.533 3.32-1.283-9.671zM6.43 26.36A14.702 14.702 0 01.731 14.727C.732 6.594 7.326 0 15.46 0c8.133 0 14.727 6.594 14.727 14.727 0 4.73-2.23 8.938-5.694 11.633l2.04 15.377a2 2 0 01-3.011 1.978l-8.062-4.837-8.062 4.837a2 2 0 01-3.012-1.978L6.428 26.36z" fill="#fff"/></svg>