<svg width="40" height="40" fill="none" xmlns="http://www.w3.org/2000/svg"><circle cx="20" cy="20" r="20" fill="#F9F7F7"/><path fill-rule="evenodd" clip-rule="evenodd" d="M20.4 10a6.14 6.14 0 016.135 6.133 6.129 6.129 0 01-3.728 5.645 2.704 2.704 0 00-1.625 2.502v1.814a.781.781 0 11-1.563 0V24.28a4.264 4.264 0 012.575-3.94 4.568 4.568 0 002.777-4.207c0-2.52-2.05-4.57-4.57-4.57-2.52 0-4.57 2.05-4.57 4.57a.781.781 0 01-1.563 0A6.14 6.14 0 0120.4 10zm.782 19.219a.781.781 0 11-1.563 0 .781.781 0 011.563 0z" fill="#285180"/></svg>