<svg width="80" height="80" fill="none" xmlns="http://www.w3.org/2000/svg"><path d="M79.957 40c0 22.092-17.898 40-39.978 40C17.899 80 0 62.092 0 40S17.899 0 39.979 0s39.978 17.908 39.978 40z" fill="#4477B2"/><path d="M80 40c0-7.538-2.46-14.393-5.772-20.607-3.635-6.82-13.172-13.297-13.172-13.297C54.905 2.349 47.348 0 39.596 0v80C61.911 80 80 62.09 80 40z" fill="#285180"/><path d="M31.566 29h17v24h-17V29z" fill="#F0F0F0"/><path d="M39.444 29.087h9.005v25.26h-9.005v-25.26z" fill="#D6E9F8"/><path d="M47.764 12v7.62h-5.182V12h-6.033v7.62h-5.183V12h-5.8v11.91c0 2.26 1.814 4.09 4.052 4.09h19.896c2.237 0 4.052-1.83 4.052-4.09V12h-5.802z" fill="#F0F0F0"/><path d="M53.566 12v11.91c0 2.258-1.814 4.09-4.053 4.09h-9.947V12h3.016v7.619h5.183V12h5.8z" fill="#D6E9F8"/><path d="M28.827 53.006h21.945v4.837H28.827v-4.837zM31.566 28h17v9h-17v-9z" fill="#FF3F5C"/><path d="M39.8 53.006h10.972v4.837H39.8v-4.837zM39.566 28h9v9h-9v-9z" fill="#C2132C"/><path d="M55.599 61.22V68H24v-6.78a3.668 3.668 0 013.668-3.667h24.263a3.668 3.668 0 013.668 3.667z" fill="#F0F0F0"/><path d="M55.599 61.22V68h-15.8V57.553h12.132a3.668 3.668 0 013.668 3.667z" fill="#D6E9F8"/></svg>